<?xml version="1.0" encoding="UTF-8"?>
<svg xmlns="http://www.w3.org/2000/svg" xmlns:xlink="http://www.w3.org/1999/xlink" width="900pt" height="599.999999pt" viewBox="0 0 900 599.999999" version="1.2">
<defs>
<clipPath id="clip1">
  <path d="M 642.558594 38.929688 L 900 38.929688 L 900 600 L 642.558594 600 Z M 642.558594 38.929688 "/>
</clipPath>
</defs>
<g id="surface1">
<rect x="0" y="0" width="900" height="599.999999" style="fill:rgb(100%,100%,100%);fill-opacity:1;stroke:none;"/>
<rect x="0" y="0" width="900" height="599.999999" style="fill:rgb(100%,100%,100%);fill-opacity:1;stroke:none;"/>
<rect x="0" y="0" width="900" height="599.999999" style="fill:rgb(79.60968%,83.529663%,87.449646%);fill-opacity:1;stroke:none;"/>
<g clip-path="url(#clip1)" clip-rule="nonzero">
<path style=" stroke:none;fill-rule:evenodd;fill:rgb(35.289001%,53.729248%,63.529968%);fill-opacity:1;" d="M 645.394531 294.234375 C 631.765625 388.714844 667.929688 489.398438 739.816406 552.183594 C 811.691406 614.964844 917.328125 637.113281 1007.777344 606.734375 C 1098.226562 576.371094 1169.570312 493.90625 1184.882812 399.679688 C 1188.714844 376.089844 1189.195312 351.523438 1182.210938 328.664062 C 1168.722656 284.484375 1130.242188 253.507812 1102.074219 216.898438 C 1072.933594 179.035156 1054.203125 133.890625 1024.203125 96.699219 C 994.199219 59.523438 946.707031 29.992188 900.34375 41.4375 C 878.769531 46.757812 860.269531 60.242188 842.363281 73.425781 C 802.453125 102.84375 762.53125 132.257812 722.609375 161.675781 C 689.757812 185.886719 641.027344 253.636719 645.394531 294.234375 "/>
</g>
<path style=" stroke:none;fill-rule:nonzero;fill:rgb(1.959229%,39.99939%,57.649231%);fill-opacity:1;" d="M 646.242188 307.316406 C 646.128906 307.707031 647.050781 308.769531 647.570312 308.820312 C 648.113281 308.871094 649.203125 308.136719 649.253906 307.644531 C 649.390625 306.402344 649.457031 305.148438 649.492188 303.882812 C 649.480469 303.871094 649.46875 303.871094 649.457031 303.859375 C 649.0625 303.441406 649 302.273438 649.304688 301.769531 C 649.355469 301.703125 649.441406 301.640625 649.558594 301.589844 C 649.570312 301.300781 649.582031 301.019531 649.582031 300.730469 C 649.203125 300.753906 648.835938 300.769531 648.457031 300.792969 C 647.683594 302.957031 646.835938 305.109375 646.242188 307.316406 "/>
<path style=" stroke:none;fill-rule:nonzero;fill:rgb(1.959229%,39.99939%,57.649231%);fill-opacity:1;" d="M 664.148438 267.375 C 664.132812 267.753906 664.132812 268.136719 664.121094 268.515625 C 664.324219 268.453125 664.511719 268.386719 664.703125 268.335938 C 664.730469 268.121094 664.84375 267.832031 664.753906 267.667969 C 664.664062 267.5 664.347656 267.464844 664.148438 267.375 "/>
<path style=" stroke:none;fill-rule:nonzero;fill:rgb(1.959229%,39.99939%,57.649231%);fill-opacity:1;" d="M 720.925781 348.773438 C 720.925781 349.304688 721.695312 350.28125 722.128906 350.269531 C 722.925781 350.253906 723.722656 349.6875 725.71875 348.835938 C 723.757812 347.949219 722.976562 347.355469 722.175781 347.332031 C 721.746094 347.316406 720.925781 348.253906 720.925781 348.773438 "/>
<path style=" stroke:none;fill-rule:nonzero;fill:rgb(1.959229%,39.99939%,57.649231%);fill-opacity:1;" d="M 671.851562 384.710938 C 672.246094 385.359375 672.851562 386.128906 673.496094 386.269531 C 673.929688 386.371094 674.574219 385.445312 675.800781 384.40625 C 674.207031 383.914062 673.332031 383.574219 672.421875 383.433594 C 672.296875 383.40625 671.714844 384.472656 671.851562 384.710938 "/>
<path style=" stroke:none;fill-rule:nonzero;fill:rgb(1.959229%,39.99939%,57.649231%);fill-opacity:1;" d="M 773.679688 575.519531 C 773.792969 575.167969 773.300781 574.632812 773.085938 574.191406 L 773.136719 574.089844 C 772.730469 574.394531 772.121094 574.609375 771.972656 575 C 771.832031 575.332031 771.820312 575.722656 771.832031 576.117188 C 772.160156 576.320312 772.476562 576.519531 772.804688 576.722656 C 773.171875 576.355469 773.550781 575.964844 773.679688 575.519531 "/>
<path style=" stroke:none;fill-rule:nonzero;fill:rgb(1.959229%,39.99939%,57.649231%);fill-opacity:1;" d="M 844.589844 474.011719 C 844.957031 473.441406 845.1875 472.808594 845.464844 472.1875 C 844.996094 472 844.542969 471.796875 843.820312 471.492188 C 843.667969 472.203125 843.414062 472.859375 843.441406 473.507812 C 843.453125 473.695312 844.554688 474.074219 844.589844 474.011719 "/>
<path style=" stroke:none;fill-rule:nonzero;fill:rgb(1.959229%,39.99939%,57.649231%);fill-opacity:1;" d="M 779.257812 425.324219 C 779.523438 425.246094 779.613281 424.589844 779.777344 424.183594 C 779.398438 424.054688 778.878906 423.703125 778.652344 423.839844 C 778.296875 424.070312 778.132812 424.601562 777.894531 425.007812 C 778.347656 425.132812 778.867188 425.425781 779.257812 425.324219 "/>
<path style=" stroke:none;fill-rule:nonzero;fill:rgb(1.959229%,39.99939%,57.649231%);fill-opacity:1;" d="M 796.949219 470.605469 C 797.050781 470.214844 797.140625 469.808594 797.253906 469.402344 C 797.039062 469.390625 796.835938 469.390625 796.632812 469.390625 C 796.542969 469.632812 796.355469 469.898438 796.40625 470.101562 C 796.457031 470.300781 796.746094 470.441406 796.949219 470.605469 "/>
<path style=" stroke:none;fill-rule:nonzero;fill:rgb(1.959229%,39.99939%,57.649231%);fill-opacity:1;" d="M 854.96875 434.160156 C 855.207031 434.238281 855.4375 434.363281 855.664062 434.351562 C 855.753906 434.339844 855.816406 434.011719 855.890625 433.820312 C 855.664062 433.742188 855.4375 433.617188 855.207031 433.640625 C 855.105469 433.640625 855.042969 433.972656 854.96875 434.160156 "/>
<path style=" stroke:none;fill-rule:nonzero;fill:rgb(1.959229%,39.99939%,57.649231%);fill-opacity:1;" d="M 880.210938 451.460938 C 880.109375 451.535156 880.503906 452.625 880.679688 452.625 C 881.300781 452.648438 881.921875 452.398438 882.566406 452.230469 C 882.3125 451.472656 882.148438 451.003906 881.984375 450.535156 C 881.375 450.828125 880.730469 451.054688 880.210938 451.460938 "/>
<path style=" stroke:none;fill-rule:nonzero;fill:rgb(1.959229%,39.99939%,57.649231%);fill-opacity:1;" d="M 701.476562 250.039062 C 701.703125 249.445312 702.007812 248.847656 702.109375 248.226562 C 702.121094 248.113281 701.261719 247.875 700.5 247.582031 C 700.363281 248.242188 700.082031 248.875 700.199219 249.429688 C 700.25 249.710938 701.019531 249.847656 701.476562 250.039062 "/>
<path style=" stroke:none;fill-rule:nonzero;fill:rgb(1.959229%,39.99939%,57.649231%);fill-opacity:1;" d="M 880.0625 166.90625 C 879.429688 165.714844 879.023438 164.386719 878.746094 162.980469 C 877.71875 163.664062 876.632812 164.460938 875.835938 165.613281 C 873.898438 168.398438 871 163.019531 869.332031 167.222656 C 874.316406 169.464844 874.316406 169.464844 877.300781 173.617188 C 878.453125 169.714844 878.808594 168.488281 880.261719 167.234375 C 880.1875 167.121094 880.125 167.019531 880.0625 166.90625 "/>
<path style=" stroke:none;fill-rule:nonzero;fill:rgb(1.959229%,39.99939%,57.649231%);fill-opacity:1;" d="M 852.347656 90.433594 C 851.527344 90.660156 850.527344 91.496094 850.246094 92.28125 C 849.894531 93.332031 851.90625 94.585938 853.222656 94.128906 C 854.789062 93.597656 856.269531 92.851562 856.21875 90.28125 C 854.917969 90.304688 853.5625 90.101562 852.347656 90.433594 "/>
<path style=" stroke:none;fill-rule:nonzero;fill:rgb(1.959229%,39.99939%,57.649231%);fill-opacity:1;" d="M 859.664062 203.085938 C 860.105469 203.601562 860.382812 203.917969 860.675781 204.25 C 861.09375 203.820312 861.625 203.425781 861.875 202.917969 C 861.976562 202.703125 861.472656 202.199219 861.246094 201.816406 C 860.710938 202.234375 860.195312 202.652344 859.664062 203.085938 "/>
<path style=" stroke:none;fill-rule:nonzero;fill:rgb(1.959229%,39.99939%,57.649231%);fill-opacity:1;" d="M 738.132812 230.980469 C 737.832031 231.070312 737.703125 231.777344 737.488281 232.210938 C 738.082031 232.425781 738.664062 232.691406 739.273438 232.792969 C 739.363281 232.804688 739.578125 232.007812 739.855469 231.246094 C 739.234375 231.132812 738.628906 230.839844 738.132812 230.980469 "/>
<path style=" stroke:none;fill-rule:nonzero;fill:rgb(1.959229%,39.99939%,57.649231%);fill-opacity:1;" d="M 788.167969 351.523438 C 787.179688 352.242188 786.066406 352.863281 785.269531 353.761719 C 784.953125 354.117188 785.246094 355.15625 785.511719 355.777344 C 785.597656 355.980469 786.648438 356.09375 786.902344 355.867188 C 787.800781 355.003906 788.574219 354.003906 789.28125 352.976562 C 789.371094 352.875 788.761719 352.28125 788.167969 351.523438 "/>
<path style=" stroke:none;fill-rule:nonzero;fill:rgb(1.959229%,39.99939%,57.649231%);fill-opacity:1;" d="M 808.605469 210.847656 L 808.605469 210.832031 C 808.605469 210.832031 808.589844 210.832031 808.589844 210.847656 L 808.605469 210.847656 "/>
<path style=" stroke:none;fill-rule:nonzero;fill:rgb(1.959229%,39.99939%,57.649231%);fill-opacity:1;" d="M 786.421875 408.53125 C 786.648438 408.480469 786.914062 408.480469 787.09375 408.367188 C 787.195312 408.304688 787.128906 408.023438 787.144531 407.859375 C 786.925781 407.785156 786.699219 407.722656 786.472656 407.65625 C 786.445312 407.949219 786.433594 408.238281 786.421875 408.53125 "/>
<path style=" stroke:none;fill-rule:nonzero;fill:rgb(1.959229%,39.99939%,57.649231%);fill-opacity:1;" d="M 789.269531 370.605469 C 789.472656 370.695312 789.660156 370.820312 789.875 370.832031 C 789.9375 370.832031 790.015625 370.515625 790.089844 370.339844 C 789.902344 370.277344 789.699219 370.148438 789.496094 370.160156 C 789.421875 370.175781 789.34375 370.453125 789.269531 370.605469 "/>
<path style=" stroke:none;fill-rule:nonzero;fill:rgb(1.959229%,39.99939%,57.649231%);fill-opacity:1;" d="M 786.320312 259.929688 C 785.546875 260.652344 784.851562 261.296875 784.117188 261.980469 C 785.664062 263.855469 786.992188 265.4375 789.21875 268.136719 C 790.496094 263.613281 788.230469 262.019531 786.320312 259.929688 "/>
<path style=" stroke:none;fill-rule:nonzero;fill:rgb(1.959229%,39.99939%,57.649231%);fill-opacity:1;" d="M 819.574219 141.273438 C 819.601562 141.503906 820.433594 141.84375 820.839844 141.769531 C 821.195312 141.707031 821.789062 140.972656 821.714844 140.820312 C 821.410156 140.238281 820.878906 139.769531 820.019531 138.78125 C 819.765625 140.019531 819.5 140.667969 819.574219 141.273438 "/>
<path style=" stroke:none;fill-rule:nonzero;fill:rgb(1.959229%,39.99939%,57.649231%);fill-opacity:1;" d="M 835.492188 217.480469 C 836 216.914062 836.847656 216.253906 837.1875 215.40625 C 837.367188 214.949219 836.632812 214.152344 836.304688 213.492188 C 835.480469 214.011719 834.480469 214.367188 833.925781 215.089844 C 833.632812 215.441406 834.089844 216.445312 834.292969 217.128906 C 834.328125 217.253906 834.757812 217.28125 835.492188 217.480469 "/>
<path style=" stroke:none;fill-rule:nonzero;fill:rgb(1.959229%,39.99939%,57.649231%);fill-opacity:1;" d="M 764.367188 440.417969 C 765.011719 439.695312 765.683594 439 766.339844 438.300781 L 766.351562 438.277344 C 764.605469 438.390625 762.859375 438.503906 761.011719 438.621094 C 762.125 441.875 762.796875 442.175781 764.367188 440.417969 "/>
<path style=" stroke:none;fill-rule:nonzero;fill:rgb(1.959229%,39.99939%,57.649231%);fill-opacity:1;" d="M 771.742188 393.375 C 771.503906 393.246094 771.199219 392.941406 771.074219 393.007812 C 770.640625 393.234375 770.289062 393.589844 769.90625 393.894531 C 770.25 394.09375 770.589844 394.285156 770.933594 394.476562 C 771.222656 394.082031 771.476562 393.726562 771.742188 393.375 "/>
<path style=" stroke:none;fill-rule:nonzero;fill:rgb(1.959229%,39.99939%,57.649231%);fill-opacity:1;" d="M 792.316406 500.832031 C 791.988281 502.554688 793.316406 504.328125 794.785156 504.238281 C 795.632812 504.203125 796.429688 503.328125 797.773438 502.519531 C 796.34375 500.972656 795.316406 499.894531 794.304688 498.808594 C 793.621094 499.476562 792.46875 500.0625 792.316406 500.832031 "/>
<path style=" stroke:none;fill-rule:nonzero;fill:rgb(1.959229%,39.99939%,57.649231%);fill-opacity:1;" d="M 878.617188 61.371094 C 878.148438 61.230469 877.605469 60.902344 877.238281 61.042969 C 876.949219 61.140625 876.859375 61.828125 876.695312 62.257812 C 877.035156 62.546875 877.367188 62.851562 877.707031 63.144531 C 878.011719 62.546875 878.3125 61.953125 878.617188 61.371094 "/>
<path style=" stroke:none;fill-rule:nonzero;fill:rgb(1.959229%,39.99939%,57.649231%);fill-opacity:1;" d="M 869.671875 326.421875 C 869.597656 326.539062 870.429688 327.511719 870.507812 327.460938 C 871.277344 327.054688 871.976562 326.511719 872.695312 325.992188 C 872.0625 325.167969 871.757812 324.777344 871.457031 324.382812 C 870.835938 325.042969 870.179688 325.675781 869.671875 326.421875 "/>
<path style=" stroke:none;fill-rule:nonzero;fill:rgb(1.959229%,39.99939%,57.649231%);fill-opacity:1;" d="M 854.019531 371.898438 C 853.890625 372.390625 853.574219 372.921875 853.675781 373.351562 C 853.765625 373.667969 854.398438 373.847656 854.789062 374.074219 C 855.082031 373.695312 855.371094 373.328125 855.664062 372.949219 C 855.121094 372.59375 854.574219 372.25 854.019531 371.898438 "/>
<path style=" stroke:none;fill-rule:nonzero;fill:rgb(1.959229%,39.99939%,57.649231%);fill-opacity:1;" d="M 749.332031 148.101562 C 747.992188 147.46875 746.246094 148.265625 746.308594 149.480469 C 746.359375 150.34375 747.09375 151.164062 747.878906 152.671875 C 749.144531 151.367188 750.027344 150.621094 750.648438 149.695312 C 750.777344 149.507812 749.925781 148.378906 749.332031 148.101562 "/>
<path style=" stroke:none;fill-rule:nonzero;fill:rgb(1.959229%,39.99939%,57.649231%);fill-opacity:1;" d="M 883.300781 251.265625 C 883.171875 251.902344 883.324219 252.585938 883.375 253.253906 C 884.035156 253.179688 884.703125 253.089844 885.78125 252.964844 C 885.261719 252.066406 885.019531 251.40625 884.566406 250.988281 C 884.363281 250.8125 883.339844 251.089844 883.300781 251.265625 "/>
<path style=" stroke:none;fill-rule:nonzero;fill:rgb(1.959229%,39.99939%,57.649231%);fill-opacity:1;" d="M 697.578125 476.722656 C 697.691406 477.214844 697.882812 477.683594 698.046875 478.167969 C 698.285156 478.027344 698.730469 477.863281 698.71875 477.75 C 698.652344 477.304688 698.453125 476.875 698.300781 476.429688 C 698.046875 476.53125 697.566406 476.683594 697.578125 476.722656 "/>
<path style=" stroke:none;fill-rule:nonzero;fill:rgb(1.959229%,39.99939%,57.649231%);fill-opacity:1;" d="M 831.621094 550.523438 C 829.722656 552.539062 828.648438 554.347656 829.851562 556.5 C 830.265625 557.261719 831.496094 557.996094 832.34375 557.996094 C 833.859375 557.980469 834.859375 556.613281 834.417969 555.273438 C 833.886719 553.640625 832.660156 552.21875 831.621094 550.523438 "/>
<path style=" stroke:none;fill-rule:nonzero;fill:rgb(1.959229%,39.99939%,57.649231%);fill-opacity:1;" d="M 811.070312 315.265625 C 811.097656 315.179688 810.628906 314.824219 810.527344 314.875 C 810.171875 315.066406 809.894531 315.367188 809.578125 315.621094 C 809.90625 315.875 810.234375 316.128906 810.566406 316.382812 C 810.742188 316.015625 810.957031 315.648438 811.070312 315.265625 "/>
<path style=" stroke:none;fill-rule:nonzero;fill:rgb(1.959229%,39.99939%,57.649231%);fill-opacity:1;" d="M 898.8125 506.390625 C 898.28125 507.0625 899.523438 508.496094 900.496094 508.265625 C 901.117188 508.113281 901.621094 507.519531 902.496094 506.898438 C 901.738281 506.277344 901.230469 505.570312 900.699219 505.53125 C 900.066406 505.492188 899.21875 505.898438 898.8125 506.390625 "/>
<path style=" stroke:none;fill-rule:nonzero;fill:rgb(1.959229%,39.99939%,57.649231%);fill-opacity:1;" d="M 729.894531 541.519531 C 729.566406 543.101562 730.441406 543.914062 732.058594 544.230469 C 732.492188 543.660156 733.25 543.101562 733.3125 542.46875 C 733.414062 541.597656 733.289062 540.355469 732.730469 539.824219 C 731.921875 539.050781 730.175781 540.113281 729.894531 541.519531 "/>
<path style=" stroke:none;fill-rule:nonzero;fill:rgb(1.959229%,39.99939%,57.649231%);fill-opacity:1;" d="M 826.28125 160.246094 C 826.421875 160.675781 826.472656 161.320312 826.738281 161.449219 C 827.039062 161.585938 827.558594 161.21875 827.988281 161.082031 C 827.835938 160.664062 827.800781 160.027344 827.507812 159.878906 C 827.242188 159.738281 826.699219 160.105469 826.28125 160.246094 "/>
<path style=" stroke:none;fill-rule:nonzero;fill:rgb(1.959229%,39.99939%,57.649231%);fill-opacity:1;" d="M 704.398438 488.5 C 702.878906 488.625 701.375 488.929688 698.984375 489.308594 C 701.398438 492.375 703.121094 491.777344 704.792969 490.828125 C 705.132812 490.640625 705.398438 489.917969 705.335938 489.5 C 705.273438 489.105469 704.691406 488.472656 704.398438 488.5 "/>
<path style=" stroke:none;fill-rule:nonzero;fill:rgb(1.959229%,39.99939%,57.649231%);fill-opacity:1;" d="M 869.46875 244.554688 C 869.015625 244.175781 867.925781 244.050781 867.445312 244.339844 C 866.949219 244.65625 866.863281 245.621094 866.609375 246.289062 C 867.507812 246.542969 868.40625 246.796875 869.8125 247.191406 C 869.671875 245.835938 869.847656 244.871094 869.46875 244.554688 "/>
<path style=" stroke:none;fill-rule:nonzero;fill:rgb(1.959229%,39.99939%,57.649231%);fill-opacity:1;" d="M 789.964844 315.28125 C 789.902344 315.898438 789.8125 316.519531 789.851562 317.128906 C 789.863281 317.203125 790.648438 317.21875 791.078125 317.253906 C 791.140625 316.800781 791.417969 316.21875 791.230469 315.898438 C 791.027344 315.558594 790.40625 315.46875 789.964844 315.28125 "/>
<path style=" stroke:none;fill-rule:nonzero;fill:rgb(1.959229%,39.99939%,57.649231%);fill-opacity:1;" d="M 673.992188 449.535156 C 673.828125 449.902344 673.789062 450.320312 673.699219 450.710938 C 674.105469 450.777344 674.484375 450.828125 674.902344 450.890625 C 674.828125 450.382812 674.777344 449.914062 674.660156 449.472656 C 674.648438 449.433594 674.042969 449.433594 673.992188 449.535156 "/>
<path style=" stroke:none;fill-rule:nonzero;fill:rgb(1.959229%,39.99939%,57.649231%);fill-opacity:1;" d="M 783.296875 259.953125 C 783.382812 259.765625 783.460938 259.585938 783.550781 259.421875 C 783.269531 259.613281 782.992188 259.828125 782.714844 260.019531 C 782.917969 260.003906 783.105469 259.980469 783.296875 259.953125 "/>
<path style=" stroke:none;fill-rule:nonzero;fill:rgb(1.959229%,39.99939%,57.649231%);fill-opacity:1;" d="M 838.644531 208.808594 C 838.769531 208.136719 838.910156 207.476562 839.050781 206.808594 C 838.367188 206.84375 837.683594 206.871094 837 206.882812 C 837.101562 207.363281 837.1875 207.832031 837.277344 208.3125 C 837.734375 208.480469 838.1875 208.644531 838.644531 208.808594 "/>
<path style=" stroke:none;fill-rule:nonzero;fill:rgb(1.959229%,39.99939%,57.649231%);fill-opacity:1;" d="M 812.96875 555.042969 C 812.792969 554.917969 812.640625 554.765625 812.5 554.613281 C 812.679688 554.640625 812.816406 554.675781 812.90625 554.777344 C 812.980469 554.867188 813.03125 554.980469 813.070312 555.109375 C 812.882812 554.308594 811.832031 553.398438 810.996094 553.15625 C 809.71875 552.789062 808.085938 554.324219 808.324219 555.550781 C 808.667969 557.363281 809.261719 559.109375 809.78125 560.957031 C 808.832031 561.363281 808.058594 561.628906 807.351562 561.996094 C 806.71875 562.324219 806.148438 562.769531 805.578125 563.136719 C 806.441406 565.65625 807.972656 566.25 810.109375 565.605469 C 811.058594 563.425781 812.148438 561.324219 812.882812 559.097656 C 813.296875 557.867188 813.363281 556.363281 813.070312 555.109375 C 813.03125 555.09375 812.996094 555.070312 812.96875 555.042969 "/>
<path style=" stroke:none;fill-rule:nonzero;fill:rgb(1.959229%,39.99939%,57.649231%);fill-opacity:1;" d="M 835.292969 506.808594 C 834.164062 507.835938 834.355469 508.050781 834.253906 513.089844 C 836.820312 512.332031 839.328125 511.597656 842.226562 510.734375 C 842.136719 509.710938 842.390625 508.457031 841.882812 507.746094 C 841.148438 506.734375 839.933594 505.632812 838.796875 505.46875 C 837.695312 505.304688 836.1875 506 835.292969 506.808594 "/>
<path style=" stroke:none;fill-rule:nonzero;fill:rgb(1.959229%,39.99939%,57.649231%);fill-opacity:1;" d="M 845.832031 590.804688 C 846.464844 587.664062 844.855469 585.828125 842.996094 583.980469 C 839.59375 587.070312 839.734375 587.410156 845.832031 590.804688 "/>
<path style=" stroke:none;fill-rule:nonzero;fill:rgb(1.959229%,39.99939%,57.649231%);fill-opacity:1;" d="M 893.171875 105.984375 C 893.636719 105.601562 893.664062 103.855469 893.207031 103.4375 C 892.625 102.894531 891.195312 102.691406 890.476562 103.058594 C 889.980469 103.3125 890.082031 104.742188 889.816406 106.210938 C 891.347656 106.160156 892.589844 106.464844 893.171875 105.984375 "/>
<path style=" stroke:none;fill-rule:nonzero;fill:rgb(1.959229%,39.99939%,57.649231%);fill-opacity:1;" d="M 704.878906 333.300781 C 704.574219 333.832031 703.929688 334.464844 704.042969 334.871094 C 704.210938 335.425781 704.941406 335.820312 705.4375 336.289062 C 705.589844 336.085938 705.738281 335.894531 705.878906 335.691406 C 705.878906 335.199219 706.007812 334.640625 705.839844 334.210938 C 705.691406 333.832031 705.222656 333.601562 704.878906 333.300781 "/>
<path style=" stroke:none;fill-rule:nonzero;fill:rgb(1.959229%,39.99939%,57.649231%);fill-opacity:1;" d="M 712.292969 387.6875 C 711.246094 391.121094 716.128906 390.320312 716.015625 393.171875 C 715.9375 395.160156 716.953125 397.183594 717.34375 398.691406 C 719 400.199219 719.582031 396.957031 720.949219 398.566406 C 719.445312 394.195312 719.445312 394.183594 721.265625 389.941406 C 716.976562 390.042969 716.976562 390.042969 712.292969 387.6875 "/>
<path style=" stroke:none;fill-rule:nonzero;fill:rgb(1.959229%,39.99939%,57.649231%);fill-opacity:1;" d="M 700.160156 270.425781 C 700.058594 270.832031 700.894531 271.894531 701.398438 271.972656 C 703.714844 272.300781 705.941406 271.894531 707.800781 269.363281 C 705.777344 269.25 703.765625 269.007812 701.742188 269.058594 C 701.171875 269.085938 700.3125 269.855469 700.160156 270.425781 "/>
<path style=" stroke:none;fill-rule:nonzero;fill:rgb(1.959229%,39.99939%,57.649231%);fill-opacity:1;" d="M 796.886719 341 C 797.378906 340.984375 798.011719 341.152344 798.316406 340.898438 C 798.605469 340.667969 798.53125 340 798.621094 339.53125 C 798.175781 339.390625 797.734375 339.265625 797.277344 339.136719 C 797.152344 339.757812 797.027344 340.378906 796.886719 341 "/>
<path style=" stroke:none;fill-rule:nonzero;fill:rgb(1.959229%,39.99939%,57.649231%);fill-opacity:1;" d="M 779.171875 503.554688 C 778.765625 504.113281 778.285156 504.65625 777.917969 505.265625 C 777.511719 505.960938 777.210938 506.710938 776.753906 507.632812 C 774.933594 507.011719 773.222656 506.304688 771.4375 505.859375 C 770.222656 505.558594 768.59375 507.089844 768.882812 508.378906 C 769.085938 509.230469 769.933594 510.332031 770.71875 510.570312 C 771.957031 510.9375 773.453125 510.953125 774.703125 510.621094 C 776.96875 510.027344 779.132812 509.050781 781.359375 508.230469 C 782.132812 506.125 781.625 504.570312 779.171875 503.554688 "/>
<path style=" stroke:none;fill-rule:nonzero;fill:rgb(1.959229%,39.99939%,57.649231%);fill-opacity:1;" d="M 887.714844 503.175781 C 885.933594 507.328125 891.777344 505.582031 891.171875 508.925781 C 890.917969 510.304688 891.121094 511.648438 891.375 512.851562 C 892.5625 512.054688 893.789062 511.394531 895.082031 511 C 895.195312 510.964844 895.320312 510.953125 895.449219 510.914062 C 895.308594 509.015625 895.929688 507.875 897.863281 504.304688 C 892.828125 505.140625 892.828125 505.140625 887.714844 503.175781 "/>
<path style=" stroke:none;fill-rule:nonzero;fill:rgb(1.959229%,39.99939%,57.649231%);fill-opacity:1;" d="M 731.605469 229.777344 C 731.085938 230.347656 730.554688 230.90625 730.035156 231.460938 C 730.210938 231.945312 730.832031 232.628906 731.238281 232.679688 C 733.554688 232.996094 735.78125 232.578125 737.617188 230.03125 C 735.617188 229.917969 733.605469 229.714844 731.605469 229.777344 "/>
<path style=" stroke:none;fill-rule:nonzero;fill:rgb(1.959229%,39.99939%,57.649231%);fill-opacity:1;" d="M 819.144531 441.140625 C 819.285156 441.316406 819.421875 441.480469 819.585938 441.644531 C 819.601562 441.542969 819.613281 441.429688 819.625 441.328125 C 819.449219 441.265625 819.296875 441.203125 819.144531 441.140625 "/>
<path style=" stroke:none;fill-rule:nonzero;fill:rgb(1.959229%,39.99939%,57.649231%);fill-opacity:1;" d="M 784.863281 420.132812 C 785.144531 420.535156 786.675781 420.636719 786.75 420.472656 C 787.117188 419.6875 787.15625 418.75 787.421875 417.332031 C 786.105469 417.675781 785.15625 417.648438 784.902344 418.054688 C 784.574219 418.585938 784.535156 419.648438 784.863281 420.132812 "/>
<path style=" stroke:none;fill-rule:nonzero;fill:rgb(1.959229%,39.99939%,57.649231%);fill-opacity:1;" d="M 726.871094 418.523438 C 726.949219 419.230469 726.808594 420.132812 727.1875 420.585938 C 727.480469 420.929688 728.441406 420.726562 729.566406 420.789062 C 729.023438 419.777344 728.808594 419.066406 728.339844 418.648438 C 728.0625 418.382812 727.367188 418.546875 726.871094 418.523438 "/>
<path style=" stroke:none;fill-rule:nonzero;fill:rgb(1.959229%,39.99939%,57.649231%);fill-opacity:1;" d="M 835.949219 330.855469 C 836.125 330.234375 836.011719 329.539062 836.011719 328.449219 C 835.011719 328.945312 834.40625 329.246094 833.796875 329.550781 C 834.089844 330.109375 834.277344 330.753906 834.707031 331.171875 C 834.875 331.335938 835.875 331.082031 835.949219 330.855469 "/>
<path style=" stroke:none;fill-rule:nonzero;fill:rgb(1.959229%,39.99939%,57.649231%);fill-opacity:1;" d="M 812.5 554.613281 C 812.640625 554.765625 812.792969 554.917969 812.96875 555.042969 C 812.996094 555.070312 813.03125 555.09375 813.070312 555.109375 C 813.03125 554.980469 812.980469 554.867188 812.90625 554.777344 C 812.816406 554.675781 812.679688 554.640625 812.5 554.613281 "/>
<path style=" stroke:none;fill-rule:nonzero;fill:rgb(1.959229%,39.99939%,57.649231%);fill-opacity:1;" d="M 764.074219 378.316406 C 765 375.796875 764.542969 374.582031 762.089844 373.214844 C 760.9375 372.554688 759.746094 371.972656 758.796875 371.464844 C 756.632812 372.199219 755.101562 373.136719 754.484375 375.113281 C 756.621094 376.609375 758.671875 378.089844 760.773438 379.507812 C 761.921875 380.28125 763.59375 379.632812 764.074219 378.316406 "/>
<path style=" stroke:none;fill-rule:nonzero;fill:rgb(1.959229%,39.99939%,57.649231%);fill-opacity:1;" d="M 846.742188 420.839844 C 847.539062 422.09375 849.4375 422.359375 850.046875 421.285156 C 850.464844 420.535156 850.273438 419.445312 850.425781 417.761719 C 848.652344 418.179688 847.503906 418.332031 846.488281 418.789062 C 846.289062 418.878906 846.386719 420.28125 846.742188 420.839844 "/>
<path style=" stroke:none;fill-rule:nonzero;fill:rgb(1.959229%,39.99939%,57.649231%);fill-opacity:1;" d="M 887.324219 418.269531 C 887.246094 418.738281 887.183594 419.179688 887.109375 419.613281 C 887.324219 419.613281 887.5625 419.625 887.765625 419.648438 C 887.679688 419.179688 887.601562 418.699219 887.527344 418.230469 C 887.070312 418.042969 886.617188 417.863281 886.160156 417.6875 C 886.210938 418.269531 886.109375 418.941406 886.386719 419.410156 C 886.234375 418.941406 886.234375 418.433594 886.183594 417.953125 C 886.566406 418.054688 886.945312 418.167969 887.324219 418.269531 "/>
<path style=" stroke:none;fill-rule:nonzero;fill:rgb(1.959229%,39.99939%,57.649231%);fill-opacity:1;" d="M 886.515625 419.496094 C 886.640625 419.5625 886.816406 419.585938 887.019531 419.597656 C 886.855469 419.5625 886.652344 419.535156 886.515625 419.496094 "/>
<path style=" stroke:none;fill-rule:nonzero;fill:rgb(1.959229%,39.99939%,57.649231%);fill-opacity:1;" d="M 676.902344 294.90625 C 676.027344 295.992188 675.292969 297.222656 673.828125 299.414062 C 676.320312 298.285156 677.710938 297.828125 678.902344 297.042969 C 679.34375 296.753906 679.507812 295.691406 679.433594 295.03125 C 679.320312 294.132812 677.636719 293.992188 676.902344 294.90625 "/>
<path style=" stroke:none;fill-rule:nonzero;fill:rgb(1.959229%,39.99939%,57.649231%);fill-opacity:1;" d="M 731.972656 331.730469 C 731.996094 330.765625 732.023438 329.804688 732.074219 328.84375 C 732.199219 326.488281 731.515625 326.207031 728.429688 327.726562 C 729.65625 329.121094 730.808594 330.4375 731.960938 331.753906 L 731.972656 331.730469 "/>
<path style=" stroke:none;fill-rule:nonzero;fill:rgb(1.959229%,39.99939%,57.649231%);fill-opacity:1;" d="M 824.902344 347.050781 C 824.726562 347.847656 824.484375 348.683594 824.546875 348.710938 C 825.207031 348.964844 825.914062 349.078125 826.609375 349.230469 C 826.699219 348.761719 826.988281 348 826.8125 347.863281 C 826.292969 347.46875 825.585938 347.316406 824.902344 347.050781 "/>
<path style=" stroke:none;fill-rule:nonzero;fill:rgb(1.959229%,39.99939%,57.649231%);fill-opacity:1;" d="M 887.109375 419.625 C 887.109375 419.613281 887.109375 419.613281 887.109375 419.613281 C 887.183594 419.179688 887.246094 418.738281 887.324219 418.269531 C 886.945312 418.167969 886.566406 418.054688 886.183594 417.953125 C 886.234375 418.433594 886.234375 418.941406 886.386719 419.410156 C 886.386719 419.445312 886.449219 419.472656 886.515625 419.496094 C 886.652344 419.535156 886.855469 419.5625 887.019531 419.597656 C 887.046875 419.613281 887.082031 419.613281 887.109375 419.625 "/>
<path style=" stroke:none;fill-rule:nonzero;fill:rgb(1.959229%,39.99939%,57.649231%);fill-opacity:1;" d="M 852.335938 279.824219 C 852.132812 280.292969 851.691406 280.8125 851.792969 281.191406 C 851.867188 281.507812 852.589844 281.644531 853.019531 281.875 C 853.246094 281.40625 853.488281 280.9375 853.714844 280.46875 C 853.257812 280.253906 852.792969 280.039062 852.335938 279.824219 "/>
<path style=" stroke:none;fill-rule:nonzero;fill:rgb(1.959229%,39.99939%,57.649231%);fill-opacity:1;" d="M 816.855469 442.886719 C 817.917969 442.898438 818.601562 443.027344 819.167969 442.847656 C 819.421875 442.761719 819.714844 441.757812 819.585938 441.644531 C 819.09375 441.226562 818.449219 441.011719 817.855469 440.707031 C 817.589844 441.304688 817.324219 441.898438 816.855469 442.886719 "/>
<path style=" stroke:none;fill-rule:nonzero;fill:rgb(1.959229%,39.99939%,57.649231%);fill-opacity:1;" d="M 900.773438 300.5 C 900.699219 300.285156 900.675781 299.984375 900.507812 299.855469 C 900.359375 299.742188 900.042969 299.816406 899.8125 299.816406 C 899.992188 300.171875 900.167969 300.539062 900.359375 300.894531 C 900.484375 300.769531 900.636719 300.640625 900.773438 300.5 "/>
<path style=" stroke:none;fill-rule:nonzero;fill:rgb(1.959229%,39.99939%,57.649231%);fill-opacity:1;" d="M 813.804688 397.703125 C 812.996094 397.527344 812.03125 397.769531 811.222656 398.085938 C 811.070312 398.148438 811.386719 399.375 811.566406 400.578125 C 812.730469 400.199219 813.652344 400.058594 814.363281 399.566406 C 814.539062 399.4375 814.132812 397.78125 813.804688 397.703125 "/>
</g>
</svg>
