<?xml version="1.0" encoding="UTF-8"?>
<svg xmlns="http://www.w3.org/2000/svg" xmlns:xlink="http://www.w3.org/1999/xlink" width="224.87999pt" height="225pt" viewBox="0 0 224.87999 225" version="1.2">
<defs>
<clipPath id="clip1">
  <path d="M 29.027344 8.492188 L 196.191406 8.492188 L 196.191406 217.085938 L 29.027344 217.085938 Z M 29.027344 8.492188 "/>
</clipPath>
<clipPath id="clip2">
  <path d="M 29.027344 8.492188 L 196.191406 8.492188 L 196.191406 217.085938 L 29.027344 217.085938 Z M 29.027344 8.492188 "/>
</clipPath>
</defs>
<g id="surface1">
<path style=" stroke:none;fill-rule:nonzero;fill:rgb(35.289001%,53.729248%,63.529968%);fill-opacity:1;" d="M 8.976562 149.730469 C 8.371094 148.125 7.871094 146.417969 7.367188 144.8125 L 144.855469 7.328125 C 146.460938 7.832031 148.164062 8.332031 149.769531 8.933594 Z M 128.796875 3.816406 C 126.890625 3.515625 124.882812 3.316406 122.976562 3.113281 L 3.054688 123.035156 C 3.253906 124.941406 3.457031 126.949219 3.757812 128.855469 Z M 175.5625 22.28125 C 174.257812 21.378906 172.953125 20.476562 171.648438 19.671875 L 19.613281 171.707031 C 20.414062 173.011719 21.316406 174.316406 22.222656 175.621094 Z M 159.003906 12.746094 C 157.5 12.046875 155.992188 11.34375 154.488281 10.742188 L 10.78125 154.449219 C 11.382812 155.953125 12.085938 157.457031 12.789062 158.964844 Z M 167.535156 17.265625 C 166.128906 16.460938 164.722656 15.65625 163.320312 14.957031 L 14.796875 163.480469 C 15.496094 164.882812 16.300781 166.289062 17.101562 167.695312 Z M 68.484375 11.84375 C 63.769531 13.953125 59.152344 16.359375 54.734375 19.070312 L 19.011719 54.796875 C 16.199219 59.210938 13.792969 63.828125 11.785156 68.542969 Z M 110.332031 2.613281 L 2.550781 110.390625 C 2.550781 112.601562 2.550781 114.707031 2.652344 116.914062 L 116.753906 2.710938 C 114.648438 2.613281 112.4375 2.613281 110.332031 2.613281 Z M 222.828125 112.199219 L 112.136719 222.886719 C 114.347656 222.886719 116.652344 222.886719 118.863281 222.6875 L 222.628906 118.921875 C 222.726562 116.714844 222.828125 114.40625 222.828125 112.199219 Z M 182.988281 28 C 181.785156 27 180.578125 25.996094 179.375 25.089844 L 25.03125 179.433594 C 25.933594 180.640625 26.9375 181.84375 27.941406 183.046875 Z M 103.40625 3.011719 C 100.898438 3.214844 98.492188 3.515625 95.980469 3.917969 L 3.855469 96.042969 C 3.457031 98.550781 3.152344 100.957031 2.953125 103.46875 Z M 87.953125 5.421875 C 84.941406 6.125 81.933594 6.925781 78.921875 7.929688 L 7.769531 78.980469 C 6.867188 81.992188 5.964844 84.902344 5.261719 88.011719 Z M 139.636719 5.921875 C 137.828125 5.523438 136.121094 5.121094 134.316406 4.71875 L 4.660156 134.375 C 5.0625 136.183594 5.460938 137.890625 5.863281 139.695312 Z M 220.820312 133.773438 C 221.324219 131.164062 221.726562 128.65625 222.027344 126.046875 L 125.988281 222.085938 C 128.597656 221.785156 131.207031 221.382812 133.714844 220.882812 Z M 222.628906 105.875 C 222.527344 103.867188 222.328125 101.863281 222.125 99.855469 L 99.792969 222.085938 C 101.800781 222.285156 103.808594 222.488281 105.816406 222.585938 Z M 221.222656 94.132812 C 220.921875 92.328125 220.519531 90.523438 220.117188 88.714844 L 88.554688 220.179688 C 90.363281 220.582031 92.167969 220.980469 93.972656 221.28125 Z M 189.8125 34.125 C 188.707031 33.019531 187.605469 32.015625 186.5 30.910156 L 30.953125 186.460938 C 31.957031 187.5625 33.058594 188.667969 34.164062 189.773438 Z M 196.234375 184.453125 C 201.753906 178.03125 206.371094 171.207031 210.183594 163.980469 L 163.921875 210.242188 C 171.144531 206.429688 177.96875 201.8125 184.394531 196.292969 Z M 218.8125 83.496094 C 218.3125 81.792969 217.8125 80.183594 217.308594 78.480469 L 78.417969 217.367188 C 80.125 217.871094 81.730469 218.371094 83.4375 218.875 Z M 215.601562 152.140625 C 216.808594 148.929688 217.910156 145.714844 218.8125 142.40625 L 142.34375 218.875 C 145.65625 217.972656 148.867188 216.867188 152.078125 215.664062 Z M 201.953125 48.171875 C 201.050781 46.96875 200.148438 45.664062 199.144531 44.460938 L 44.398438 199.105469 C 45.605469 200.109375 46.910156 201.011719 48.113281 201.914062 Z M 215.601562 73.664062 C 215 72.058594 214.398438 70.550781 213.695312 69.046875 L 68.886719 213.855469 C 70.390625 214.558594 71.996094 215.160156 73.503906 215.761719 Z M 196.132812 40.847656 C 195.132812 39.644531 194.128906 38.539062 193.023438 37.433594 L 37.375 193.082031 C 38.480469 194.1875 39.683594 195.191406 40.785156 196.195312 Z M 207.074219 56 C 206.269531 54.695312 205.46875 53.289062 204.5625 51.984375 L 51.925781 204.625 C 53.230469 205.527344 54.535156 206.332031 55.941406 207.132812 Z M 211.6875 64.53125 C 210.988281 63.125 210.285156 61.621094 209.480469 60.214844 L 60.15625 209.542969 C 61.558594 210.34375 62.964844 211.046875 64.46875 211.75 Z M 211.6875 64.53125 "/>
<g clip-path="url(#clip1)" clip-rule="nonzero">
<path style=" stroke:none;fill-rule:nonzero;fill:rgb(3.919983%,25.489807%,27.059937%);fill-opacity:1;" d="M 196.191406 154.183594 C 196.195312 154.171875 196.191406 154.160156 196.191406 154.148438 C 196.191406 154.136719 196.183594 154.121094 196.179688 154.109375 C 195.585938 149.820312 194.300781 145.761719 192.367188 142.039062 C 191.234375 139.863281 189.878906 137.761719 188.566406 135.734375 C 186.0625 131.851562 183.691406 128.191406 182.6875 123.941406 C 181.378906 118.414062 182.566406 112.855469 183.828125 106.972656 L 183.917969 106.523438 C 184.839844 102.242188 185.546875 98.664062 185.609375 94.898438 C 185.765625 85.679688 181.648438 76.609375 174.601562 70.640625 C 173.257812 69.503906 171.808594 68.472656 170.414062 67.480469 C 167.925781 65.714844 165.582031 64.046875 163.753906 61.820312 C 161.015625 58.5 159.691406 54.15625 158.40625 49.960938 C 158.082031 48.894531 157.742188 47.792969 157.386719 46.71875 C 151.382812 28.609375 137.535156 14.53125 121.25 9.984375 C 105.253906 5.519531 87.019531 11.355469 77.714844 23.875 C 68.84375 25.519531 61.8125 28.332031 56.238281 32.476562 C 48.097656 38.515625 43.394531 47.675781 43.960938 56.382812 C 44.179688 59.707031 45.125 62.957031 46.042969 66.09375 C 47.304688 70.4375 48.5 74.53125 47.878906 78.722656 C 47.199219 83.261719 44.398438 87.273438 41.683594 91.152344 C 41.148438 91.914062 40.617188 92.679688 40.101562 93.4375 C 35.75 99.871094 34.246094 105.300781 35.503906 110.007812 C 35.535156 110.15625 35.578125 110.296875 35.617188 110.433594 C 36.101562 112.019531 36.890625 113.460938 37.65625 114.847656 C 38.433594 116.253906 39.160156 117.585938 39.570312 119.019531 C 41.039062 124.15625 38.164062 129.367188 35.382812 134.410156 C 34.726562 135.597656 34.050781 136.824219 33.449219 138.019531 C 28.183594 148.449219 27.589844 161.582031 31.847656 173.15625 C 31.863281 173.199219 31.878906 173.238281 31.898438 173.273438 C 32.640625 174.71875 33.433594 176.136719 34.277344 177.523438 C 34.511719 177.917969 34.753906 178.308594 35 178.695312 C 49.882812 202.199219 78.957031 217.085938 110.925781 217.085938 C 115.410156 217.085938 119.855469 216.792969 124.226562 216.210938 C 125.4375 216.054688 126.636719 215.875 127.835938 215.671875 C 142.507812 213.195312 156.253906 207.515625 167.644531 199.085938 C 183.222656 187.558594 193.359375 171.71875 196.179688 154.484375 C 196.179688 154.476562 196.183594 154.472656 196.183594 154.460938 L 196.183594 154.441406 C 196.195312 154.394531 196.199219 154.347656 196.199219 154.296875 C 196.199219 154.257812 196.199219 154.21875 196.191406 154.183594 "/>
</g>
<path style=" stroke:none;fill-rule:nonzero;fill:rgb(100%,100%,100%);fill-opacity:1;" d="M 146.878906 110.042969 C 147.238281 113.230469 146.957031 116.59375 146.3125 119.71875 C 144.382812 129.09375 140.148438 138.183594 142.613281 147.902344 C 143.664062 152.046875 145.96875 156.640625 147.351562 161.257812 C 142.625 160.585938 137.9375 159.894531 135.277344 155.597656 C 134.007812 153.546875 133.652344 151.070312 133.347656 148.726562 C 133.003906 146.054688 132.707031 143.375 132.378906 140.699219 C 131.96875 137.339844 131.574219 133.976562 131.164062 130.617188 C 132.28125 129.632812 133.351562 128.609375 134.375 127.570312 C 139.460938 122.414062 143.695312 116.496094 146.878906 110.042969 "/>
<g clip-path="url(#clip2)" clip-rule="nonzero">
<path style=" stroke:none;fill-rule:nonzero;fill:rgb(3.919983%,25.489807%,27.059937%);fill-opacity:1;" d="M 175.035156 190 C 174.929688 179.675781 179.148438 169.9375 179.144531 159.636719 C 179.136719 155.300781 178.375 150.929688 176.242188 147.105469 C 174.25 143.53125 171.210938 140.71875 168.648438 137.570312 C 165.699219 133.949219 163.886719 130.039062 164.347656 125.269531 C 164.820312 120.429688 166.820312 115.910156 167.6875 111.144531 C 169.035156 103.734375 166.121094 97.664062 161.691406 91.902344 C 156.769531 85.507812 150.035156 79.28125 149.371094 70.765625 C 149.335938 70.261719 148.394531 70.351562 148.414062 70.863281 C 148.988281 85.84375 167.945312 93.53125 166.078125 109.109375 C 165.066406 117.511719 159.585938 125.636719 163.679688 134.050781 C 165.453125 137.695312 168.460938 140.554688 171.023438 143.636719 C 173.996094 147.207031 175.964844 151.09375 176.574219 155.742188 C 178.101562 167.464844 172.144531 178.570312 172.617188 190.25 C 172.648438 190.914062 173.226562 191.207031 173.8125 191.195312 C 171.503906 193.382812 169.035156 195.460938 166.398438 197.410156 C 154.695312 206.066406 140.445312 211.753906 125.261719 213.964844 C 121.09375 210.980469 117.671875 207.238281 116.835938 201.855469 C 116.777344 201.488281 116.738281 201.128906 116.71875 200.777344 C 116.660156 199.941406 116.695312 199.152344 116.8125 198.402344 C 117.835938 191.636719 125.3125 188.035156 131.496094 185.90625 C 137.765625 183.742188 145.089844 181.488281 148.773438 175.503906 C 151.011719 171.863281 151.238281 167.992188 150.566406 164.117188 C 150.421875 163.300781 150.238281 162.480469 150.023438 161.664062 C 149.117188 158.195312 147.671875 154.765625 146.496094 151.558594 C 144.753906 146.796875 143.980469 142.121094 144.675781 137.058594 C 145.375 131.992188 147.085938 127.15625 148.300781 122.210938 C 149.589844 116.949219 150.328125 111.035156 148.800781 105.785156 C 148.488281 104.707031 148.082031 103.660156 147.570312 102.65625 C 147.011719 101.566406 146.332031 100.527344 145.5 99.546875 C 143.03125 96.628906 139.734375 95.773438 136.632812 93.792969 C 132.40625 91.101562 133.019531 86.042969 134.410156 81.914062 C 135.707031 78.050781 137.160156 74.386719 136.894531 70.234375 C 136.683594 66.933594 135.699219 63.726562 134.039062 60.863281 C 129.554688 53.128906 121.261719 50.597656 112.78125 50.210938 C 106.199219 49.914062 98.605469 50.792969 92.039062 48.957031 C 91.6875 46.804688 90.984375 44.710938 89.867188 42.839844 C 88.667969 40.84375 87.023438 39.324219 85.304688 37.785156 C 83.007812 35.722656 80.507812 32.855469 82.3125 29.613281 C 82.457031 29.351562 82.019531 29.238281 81.878906 29.433594 C 79.347656 32.96875 82.097656 36.910156 84.558594 39.589844 C 86.902344 42.140625 88.582031 44.878906 89.390625 48.03125 C 89.511719 48.5 89.609375 48.976562 89.691406 49.464844 C 89.828125 50.296875 89.90625 51.15625 89.925781 52.046875 C 90.125 61.960938 83.5625 69.992188 77.117188 76.835938 C 74.921875 79.164062 72.710938 81.46875 70.613281 83.847656 C 69.980469 84.570312 69.359375 85.296875 68.753906 86.035156 C 65.75 89.667969 63.097656 93.546875 61.253906 98.003906 C 61.066406 98.445312 60.894531 98.886719 60.726562 99.335938 C 60.476562 100.011719 60.246094 100.691406 60.027344 101.382812 C 57.5 109.441406 57.316406 118.210938 59.40625 126.390625 C 61.863281 136.027344 67.34375 145.523438 75.058594 151.902344 C 75.875 152.582031 77.570312 151.613281 76.683594 150.667969 C 70.367188 143.949219 65.066406 136.652344 62.378906 127.726562 C 60.097656 120.175781 59.792969 112.050781 61.644531 104.390625 C 63.222656 106.816406 65.316406 108.832031 67.820312 109.882812 C 70.210938 110.886719 73.042969 110.875 75.351562 109.878906 C 78.082031 116.234375 81.710938 122.195312 86.46875 127.253906 C 87.71875 128.582031 89.066406 129.867188 90.492188 131.0625 C 90.777344 135.757812 91.195312 140.453125 91.5625 145.136719 C 92.058594 151.546875 93.648438 158.8125 87.777344 163.253906 C 85.355469 165.085938 82.457031 166.265625 79.699219 167.492188 C 76.574219 168.886719 73.421875 170.226562 70.25 171.511719 C 66.429688 173.058594 62.570312 174.46875 58.695312 175.851562 C 57.96875 175.003906 57.078125 174.277344 55.972656 173.726562 C 49.34375 170.414062 42.769531 174.152344 36.257812 176.769531 C 35.382812 175.335938 34.554688 173.867188 33.785156 172.375 C 29.75 161.34375 30.316406 148.855469 35.316406 138.960938 C 35.90625 137.792969 36.570312 136.585938 37.214844 135.417969 C 40.203125 130.003906 43.285156 124.40625 41.582031 118.449219 C 41.109375 116.789062 40.285156 115.289062 39.492188 113.84375 C 38.746094 112.488281 38.042969 111.210938 37.621094 109.824219 C 37.589844 109.726562 37.5625 109.621094 37.53125 109.496094 C 36.433594 105.378906 37.84375 100.507812 41.835938 94.609375 C 42.34375 93.851562 42.871094 93.101562 43.402344 92.347656 C 46.25 88.269531 49.195312 84.054688 49.945312 79.027344 C 50.636719 74.386719 49.324219 69.875 48.050781 65.511719 C 47.164062 62.480469 46.25 59.34375 46.050781 56.25 C 45.527344 48.238281 49.90625 39.773438 57.484375 34.152344 C 62.882812 30.140625 69.757812 27.425781 78.5 25.851562 C 78.511719 25.851562 78.519531 25.847656 78.53125 25.84375 C 78.648438 25.824219 78.761719 25.777344 78.863281 25.714844 C 78.90625 25.6875 78.945312 25.65625 78.988281 25.625 C 79.019531 25.59375 79.050781 25.566406 79.078125 25.535156 C 79.105469 25.511719 79.136719 25.472656 79.160156 25.4375 C 79.179688 25.40625 79.203125 25.378906 79.222656 25.347656 C 87.980469 13.339844 105.398438 7.730469 120.6875 11.996094 C 136.308594 16.359375 149.613281 29.914062 155.398438 47.375 C 155.746094 48.425781 156.082031 49.515625 156.402344 50.570312 C 157.746094 54.960938 159.136719 59.503906 162.132812 63.148438 C 164.144531 65.585938 166.710938 67.414062 169.195312 69.179688 C 170.558594 70.148438 171.972656 71.152344 173.246094 72.230469 C 179.820312 77.796875 183.660156 86.257812 183.515625 94.867188 C 183.457031 98.445312 182.765625 101.917969 181.871094 106.089844 L 181.78125 106.53125 C 180.527344 112.390625 179.230469 118.441406 180.648438 124.421875 C 181.738281 129.019531 184.316406 133.007812 186.804688 136.863281 C 188.089844 138.851562 189.421875 140.910156 190.511719 143 C 192.3125 146.472656 193.523438 150.273438 194.097656 154.28125 C 191.898438 167.496094 185.246094 179.875 175.035156 190 Z M 94.089844 147.042969 C 93.589844 142.273438 93.160156 137.492188 92.601562 132.722656 C 97.859375 136.617188 104.042969 139.328125 110.597656 139.53125 C 117.757812 139.761719 124.140625 136.410156 129.558594 131.980469 C 129.734375 135.195312 129.964844 138.402344 130.238281 141.609375 C 130.644531 146.449219 130.488281 152.40625 133.066406 156.707031 C 135.179688 160.238281 139.230469 161.832031 143.074219 162.675781 C 144.714844 163.039062 146.347656 163.316406 147.960938 163.613281 C 148.824219 167.550781 148.738281 171.449219 146.339844 175.042969 C 142.050781 181.464844 133.328125 182.710938 126.691406 185.488281 C 120.394531 188.121094 114.546875 192.78125 114.09375 199.550781 C 110.578125 201.238281 107.113281 203.476562 103.902344 204.273438 C 94.414062 206.628906 93.96875 195.097656 87.167969 191.886719 C 84.128906 190.449219 80.703125 191.140625 77.648438 192.132812 C 74.460938 193.167969 70.433594 195.355469 67.039062 194.0625 C 62.679688 192.402344 62.339844 186.835938 61.625 182.941406 C 61.289062 181.101562 60.789062 179.277344 59.941406 177.6875 C 64.054688 176.210938 68.121094 174.597656 72.148438 172.957031 C 75.566406 171.566406 78.957031 170.109375 82.316406 168.589844 C 85.066406 167.351562 87.878906 166.050781 90.1875 164.066406 C 95.414062 159.570312 94.738281 153.269531 94.089844 147.042969 Z M 142.613281 147.902344 C 143.664062 152.046875 145.96875 156.640625 147.351562 161.257812 C 142.625 160.585938 137.9375 159.894531 135.277344 155.597656 C 134.007812 153.546875 133.652344 151.070312 133.347656 148.726562 C 133.003906 146.054688 132.707031 143.375 132.378906 140.699219 C 131.96875 137.339844 131.574219 133.976562 131.164062 130.617188 C 132.28125 129.632812 133.351562 128.609375 134.375 127.570312 C 139.460938 122.414062 143.695312 116.496094 146.878906 110.042969 C 147.238281 113.230469 146.957031 116.59375 146.3125 119.71875 C 144.382812 129.09375 140.148438 138.183594 142.613281 147.902344 Z M 74.53125 107.894531 C 72.117188 108.96875 69.03125 108.425781 66.722656 106.65625 C 65.039062 105.371094 63.769531 103.667969 62.789062 101.8125 C 62.699219 101.636719 62.609375 101.457031 62.527344 101.277344 C 62.652344 100.886719 62.785156 100.492188 62.925781 100.105469 C 64.421875 95.925781 66.648438 92.269531 69.246094 88.878906 C 70.214844 94.148438 71.523438 99.351562 73.21875 104.324219 C 73.628906 105.523438 74.0625 106.710938 74.53125 107.894531 Z M 71.144531 86.503906 C 73.730469 83.40625 76.578125 80.476562 79.378906 77.492188 C 85.261719 71.226562 91.125 63.992188 92.164062 55.164062 C 92.347656 53.609375 92.378906 52.011719 92.230469 50.429688 C 95.703125 51.535156 99.457031 51.9375 103.15625 52.054688 C 111.519531 52.320312 121.113281 51.421875 127.851562 57.390625 C 130.585938 59.8125 132.382812 62.761719 133.316406 65.941406 C 131.144531 64.503906 128.066406 64.851562 125.816406 66 C 123.914062 66.976562 121.476562 69.292969 122.039062 71.660156 C 122.226562 72.464844 123.300781 72.433594 123.800781 71.949219 C 124.988281 70.800781 125.816406 69.316406 127.417969 68.636719 C 129.042969 67.949219 130.734375 68.335938 132.410156 68.554688 C 132.863281 68.613281 133.417969 68.453125 133.828125 68.164062 C 134.417969 71.675781 134.039062 75.382812 132.792969 78.945312 C 132.296875 80.371094 131.765625 81.828125 131.359375 83.3125 L 131.359375 80.554688 C 131.359375 79.171875 130.226562 78.039062 128.839844 78.039062 L 128.777344 78.039062 C 127.390625 78.039062 126.257812 79.171875 126.257812 80.554688 L 126.257812 89.433594 C 126.257812 90.8125 127.390625 91.945312 128.777344 91.945312 L 128.839844 91.945312 C 129.804688 91.945312 130.652344 91.394531 131.070312 90.589844 C 131.082031 90.636719 131.101562 90.683594 131.113281 90.734375 C 132.214844 94.398438 135.378906 95.875 138.585938 97.402344 C 142.609375 99.316406 144.9375 102.515625 146.089844 106.230469 C 143.328125 112.441406 139.691406 118.242188 135.210938 123.386719 C 133.867188 124.929688 132.40625 126.5 130.84375 128 C 130.378906 128.449219 129.90625 128.886719 129.421875 129.320312 C 124.707031 133.542969 119.128906 136.972656 112.894531 137.394531 C 105.269531 137.910156 97.964844 134.242188 92.183594 129.335938 C 91.539062 128.792969 90.917969 128.230469 90.3125 127.65625 C 89.796875 127.164062 89.289062 126.664062 88.804688 126.160156 C 83.929688 121.105469 80.214844 115 77.457031 108.546875 C 77.148438 107.832031 76.851562 107.109375 76.570312 106.382812 C 76.273438 105.621094 75.988281 104.863281 75.714844 104.097656 C 73.664062 98.328125 72.34375 92.433594 71.144531 86.503906 Z M 196.191406 154.183594 C 196.195312 154.171875 196.191406 154.160156 196.191406 154.148438 C 196.191406 154.136719 196.183594 154.121094 196.179688 154.109375 C 195.585938 149.820312 194.300781 145.761719 192.367188 142.039062 C 191.234375 139.863281 189.878906 137.761719 188.566406 135.734375 C 186.0625 131.851562 183.691406 128.191406 182.6875 123.941406 C 181.378906 118.414062 182.566406 112.855469 183.828125 106.972656 L 183.917969 106.523438 C 184.839844 102.242188 185.546875 98.664062 185.609375 94.898438 C 185.765625 85.679688 181.648438 76.609375 174.601562 70.640625 C 173.257812 69.503906 171.808594 68.472656 170.414062 67.480469 C 167.925781 65.714844 165.582031 64.046875 163.753906 61.820312 C 161.015625 58.5 159.691406 54.15625 158.40625 49.960938 C 158.082031 48.894531 157.742188 47.792969 157.386719 46.71875 C 151.382812 28.609375 137.535156 14.53125 121.25 9.984375 C 105.253906 5.519531 87.019531 11.355469 77.714844 23.875 C 68.84375 25.519531 61.8125 28.332031 56.238281 32.476562 C 48.097656 38.515625 43.394531 47.675781 43.960938 56.382812 C 44.179688 59.707031 45.125 62.957031 46.042969 66.09375 C 47.304688 70.4375 48.5 74.53125 47.878906 78.722656 C 47.199219 83.261719 44.398438 87.273438 41.683594 91.152344 C 41.148438 91.914062 40.617188 92.679688 40.101562 93.4375 C 35.75 99.871094 34.246094 105.300781 35.503906 110.007812 C 35.535156 110.15625 35.578125 110.296875 35.617188 110.433594 C 36.101562 112.019531 36.890625 113.460938 37.65625 114.847656 C 38.433594 116.253906 39.160156 117.585938 39.570312 119.019531 C 41.039062 124.15625 38.164062 129.367188 35.382812 134.410156 C 34.726562 135.597656 34.050781 136.824219 33.449219 138.019531 C 28.183594 148.449219 27.589844 161.582031 31.847656 173.15625 C 31.863281 173.199219 31.878906 173.238281 31.898438 173.273438 C 32.640625 174.71875 33.433594 176.136719 34.277344 177.523438 C 34.511719 177.917969 34.753906 178.308594 35 178.695312 C 49.882812 202.199219 78.957031 217.085938 110.925781 217.085938 C 115.410156 217.085938 119.855469 216.792969 124.226562 216.210938 C 125.4375 216.054688 126.636719 215.875 127.835938 215.671875 C 142.507812 213.195312 156.253906 207.515625 167.644531 199.085938 C 183.222656 187.558594 193.359375 171.71875 196.179688 154.484375 C 196.179688 154.476562 196.183594 154.472656 196.183594 154.460938 L 196.183594 154.441406 C 196.195312 154.394531 196.199219 154.347656 196.199219 154.296875 C 196.199219 154.257812 196.199219 154.21875 196.191406 154.183594 "/>
</g>
<path style=" stroke:none;fill-rule:nonzero;fill:rgb(3.919983%,25.489807%,27.059937%);fill-opacity:1;" d="M 107.203125 117.480469 C 109.414062 118.140625 111.78125 118.339844 114.078125 118.125 C 118.347656 117.71875 123.023438 115.914062 125.59375 112.335938 C 126.226562 111.445312 124.921875 110.832031 124.222656 111.375 C 121.140625 113.785156 117.917969 115.636719 113.953125 116.085938 C 112.144531 116.292969 110.304688 116.210938 108.519531 115.855469 C 106.527344 115.46875 104.6875 114.359375 102.675781 114.191406 C 102.554688 114.179688 102.363281 114.253906 102.425781 114.410156 C 103.101562 116.191406 105.523438 116.976562 107.203125 117.480469 "/>
<path style=" stroke:none;fill-rule:nonzero;fill:rgb(3.919983%,25.489807%,27.059937%);fill-opacity:1;" d="M 113.648438 97.679688 C 114.558594 97.601562 115.292969 97.03125 116.164062 96.894531 C 118.152344 96.578125 118.234375 99.03125 118.078125 100.449219 C 117.800781 103.054688 116.09375 105.28125 113.746094 106.375 C 112.542969 106.9375 113.507812 108.296875 114.601562 107.804688 C 118.410156 106.082031 121.660156 101.023438 119.726562 96.820312 C 118.882812 94.988281 117.167969 94.660156 115.382812 95.324219 C 113.566406 96 112.0625 96.089844 110.652344 94.601562 C 109.351562 93.238281 108.875 91.140625 108.238281 89.4375 C 108.074219 88.980469 107.203125 89.167969 107.230469 89.652344 C 107.433594 93.199219 109.214844 98.058594 113.648438 97.679688 "/>
<path style=" stroke:none;fill-rule:nonzero;fill:rgb(3.919983%,25.489807%,27.059937%);fill-opacity:1;" d="M 117.824219 121.832031 C 115.503906 123.757812 112.953125 123.566406 110.492188 122 C 110.246094 121.84375 109.757812 121.992188 109.875 122.347656 C 111.132812 126.167969 117.367188 125.613281 119.089844 122.53125 C 119.492188 121.808594 118.292969 121.4375 117.824219 121.832031 "/>
<path style=" stroke:none;fill-rule:nonzero;fill:rgb(3.919983%,25.489807%,27.059937%);fill-opacity:1;" d="M 86.242188 74.089844 C 87.617188 71.644531 90.339844 70.007812 93.175781 70.773438 C 95.441406 71.386719 96.691406 73.324219 98.386719 74.75 C 99.140625 75.386719 100.988281 75.007812 100.996094 73.832031 C 101.011719 69.949219 96.746094 67.671875 93.269531 67.550781 C 89.304688 67.414062 85.542969 69.824219 84.144531 73.53125 C 83.65625 74.832031 85.695312 75.0625 86.242188 74.089844 "/>
<path style=" stroke:none;fill-rule:nonzero;fill:rgb(3.919983%,25.489807%,27.059937%);fill-opacity:1;" d="M 93.703125 78.039062 L 93.640625 78.039062 C 92.257812 78.039062 91.121094 79.171875 91.121094 80.554688 L 91.121094 89.433594 C 91.121094 90.8125 92.257812 91.945312 93.640625 91.945312 L 93.703125 91.945312 C 95.089844 91.945312 96.222656 90.8125 96.222656 89.433594 L 96.222656 80.554688 C 96.222656 79.171875 95.089844 78.039062 93.703125 78.039062 "/>
<path style=" stroke:none;fill-rule:nonzero;fill:rgb(100%,100%,100%);fill-opacity:1;" d="M 62.925781 100.105469 C 62.785156 100.492188 62.652344 100.886719 62.527344 101.277344 C 62.609375 101.457031 62.699219 101.636719 62.789062 101.8125 C 63.769531 103.667969 65.039062 105.371094 66.722656 106.65625 C 69.03125 108.425781 72.117188 108.96875 74.53125 107.894531 C 74.0625 106.710938 73.628906 105.523438 73.21875 104.324219 C 71.523438 99.351562 70.214844 94.148438 69.246094 88.878906 C 66.648438 92.269531 64.421875 95.925781 62.925781 100.105469 Z M 86.242188 74.089844 C 87.617188 71.644531 90.339844 70.007812 93.175781 70.773438 C 95.441406 71.386719 96.691406 73.324219 98.386719 74.75 C 99.140625 75.386719 100.988281 75.007812 100.996094 73.832031 C 101.011719 69.949219 96.746094 67.671875 93.269531 67.550781 C 89.304688 67.414062 85.542969 69.824219 84.144531 73.53125 C 83.65625 74.832031 85.695312 75.0625 86.242188 74.089844 Z M 102.425781 114.410156 C 103.101562 116.191406 105.523438 116.976562 107.203125 117.480469 C 109.414062 118.140625 111.78125 118.339844 114.078125 118.125 C 118.347656 117.71875 123.023438 115.914062 125.59375 112.335938 C 126.226562 111.445312 124.921875 110.832031 124.222656 111.375 C 121.140625 113.785156 117.917969 115.636719 113.953125 116.085938 C 112.144531 116.292969 110.304688 116.210938 108.519531 115.855469 C 106.527344 115.46875 104.6875 114.359375 102.675781 114.191406 C 102.554688 114.179688 102.363281 114.253906 102.425781 114.410156 Z M 107.230469 89.652344 C 107.433594 93.199219 109.214844 98.058594 113.648438 97.679688 C 114.558594 97.601562 115.292969 97.03125 116.164062 96.894531 C 118.152344 96.578125 118.234375 99.03125 118.078125 100.449219 C 117.800781 103.054688 116.09375 105.28125 113.746094 106.375 C 112.542969 106.9375 113.507812 108.296875 114.601562 107.804688 C 118.410156 106.082031 121.660156 101.023438 119.726562 96.820312 C 118.882812 94.988281 117.167969 94.660156 115.382812 95.324219 C 113.566406 96 112.0625 96.089844 110.652344 94.601562 C 109.351562 93.238281 108.875 91.140625 108.238281 89.4375 C 108.074219 88.980469 107.203125 89.167969 107.230469 89.652344 Z M 117.824219 121.832031 C 115.503906 123.757812 112.953125 123.566406 110.492188 122 C 110.246094 121.84375 109.757812 121.992188 109.875 122.347656 C 111.132812 126.167969 117.367188 125.613281 119.089844 122.53125 C 119.492188 121.808594 118.292969 121.4375 117.824219 121.832031 Z M 96.222656 80.554688 C 96.222656 79.171875 95.089844 78.039062 93.703125 78.039062 L 93.640625 78.039062 C 92.257812 78.039062 91.121094 79.171875 91.121094 80.554688 L 91.121094 89.433594 C 91.121094 90.8125 92.257812 91.945312 93.640625 91.945312 L 93.703125 91.945312 C 95.089844 91.945312 96.222656 90.8125 96.222656 89.433594 Z M 75.714844 104.097656 C 73.664062 98.328125 72.34375 92.433594 71.144531 86.503906 C 73.730469 83.40625 76.578125 80.476562 79.378906 77.492188 C 85.261719 71.226562 91.125 63.992188 92.164062 55.164062 C 92.347656 53.609375 92.378906 52.011719 92.230469 50.429688 C 95.703125 51.535156 99.457031 51.9375 103.15625 52.054688 C 111.519531 52.320312 121.113281 51.421875 127.851562 57.390625 C 130.585938 59.8125 132.382812 62.761719 133.316406 65.941406 C 131.144531 64.503906 128.066406 64.851562 125.816406 66 C 123.914062 66.976562 121.476562 69.292969 122.039062 71.660156 C 122.226562 72.464844 123.300781 72.433594 123.800781 71.949219 C 124.988281 70.800781 125.816406 69.316406 127.417969 68.636719 C 129.042969 67.949219 130.734375 68.335938 132.410156 68.554688 C 132.863281 68.613281 133.417969 68.453125 133.828125 68.164062 C 134.417969 71.675781 134.039062 75.382812 132.792969 78.945312 C 132.296875 80.371094 131.765625 81.828125 131.359375 83.3125 L 131.359375 80.554688 C 131.359375 79.171875 130.226562 78.039062 128.839844 78.039062 L 128.777344 78.039062 C 127.390625 78.039062 126.257812 79.171875 126.257812 80.554688 L 126.257812 89.433594 C 126.257812 90.8125 127.390625 91.945312 128.777344 91.945312 L 128.839844 91.945312 C 129.804688 91.945312 130.652344 91.394531 131.070312 90.589844 C 131.082031 90.636719 131.101562 90.683594 131.113281 90.734375 C 132.214844 94.398438 135.378906 95.875 138.585938 97.402344 C 142.609375 99.316406 144.9375 102.515625 146.089844 106.230469 C 143.328125 112.441406 139.691406 118.242188 135.210938 123.386719 C 133.867188 124.929688 132.40625 126.5 130.84375 128 C 130.378906 128.449219 129.90625 128.886719 129.421875 129.320312 C 124.707031 133.542969 119.128906 136.972656 112.894531 137.394531 C 105.269531 137.910156 97.964844 134.242188 92.183594 129.335938 C 91.539062 128.792969 90.917969 128.230469 90.3125 127.65625 C 89.796875 127.164062 89.289062 126.664062 88.804688 126.160156 C 83.929688 121.105469 80.214844 115 77.457031 108.546875 C 77.148438 107.832031 76.851562 107.109375 76.570312 106.382812 C 76.273438 105.621094 75.988281 104.863281 75.714844 104.097656 Z M 126.691406 185.488281 C 133.328125 182.710938 142.054688 181.464844 146.339844 175.042969 C 148.738281 171.449219 148.824219 167.550781 147.960938 163.613281 C 146.347656 163.316406 144.714844 163.039062 143.074219 162.675781 C 139.230469 161.832031 135.179688 160.238281 133.066406 156.707031 C 130.488281 152.40625 130.644531 146.449219 130.238281 141.609375 C 129.964844 138.402344 129.734375 135.195312 129.558594 131.980469 C 124.140625 136.410156 117.757812 139.761719 110.597656 139.53125 C 104.042969 139.328125 97.859375 136.617188 92.601562 132.722656 C 93.160156 137.492188 93.589844 142.273438 94.089844 147.042969 C 94.738281 153.269531 95.414062 159.570312 90.1875 164.066406 C 87.878906 166.050781 85.066406 167.351562 82.316406 168.589844 C 78.957031 170.109375 75.566406 171.566406 72.148438 172.957031 C 68.121094 174.597656 64.054688 176.210938 59.941406 177.6875 C 60.789062 179.277344 61.289062 181.101562 61.625 182.941406 C 62.339844 186.835938 62.679688 192.402344 67.039062 194.0625 C 70.433594 195.355469 74.460938 193.167969 77.648438 192.132812 C 80.703125 191.140625 84.128906 190.449219 87.167969 191.886719 C 93.96875 195.097656 94.414062 206.628906 103.902344 204.273438 C 107.113281 203.476562 110.578125 201.238281 114.09375 199.550781 C 114.546875 192.78125 120.394531 188.121094 126.691406 185.488281 Z M 167.6875 111.144531 C 169.035156 103.734375 166.121094 97.664062 161.691406 91.902344 C 156.769531 85.507812 150.035156 79.28125 149.371094 70.765625 C 149.335938 70.261719 148.394531 70.351562 148.414062 70.863281 C 148.988281 85.84375 167.945312 93.53125 166.078125 109.109375 C 165.066406 117.511719 159.585938 125.636719 163.679688 134.050781 C 165.453125 137.695312 168.460938 140.554688 171.023438 143.636719 C 173.996094 147.207031 175.964844 151.09375 176.574219 155.742188 C 178.101562 167.464844 172.144531 178.570312 172.617188 190.25 C 172.648438 190.914062 173.226562 191.207031 173.8125 191.195312 C 171.503906 193.382812 169.035156 195.460938 166.398438 197.410156 C 154.695312 206.066406 140.445312 211.753906 125.261719 213.964844 C 121.09375 210.980469 117.671875 207.238281 116.835938 201.855469 C 116.777344 201.488281 116.738281 201.128906 116.71875 200.777344 C 116.660156 199.941406 116.695312 199.152344 116.8125 198.402344 C 117.835938 191.636719 125.3125 188.035156 131.496094 185.90625 C 137.765625 183.742188 145.089844 181.488281 148.773438 175.503906 C 151.011719 171.863281 151.238281 167.992188 150.566406 164.117188 C 150.421875 163.300781 150.238281 162.480469 150.023438 161.664062 C 149.117188 158.195312 147.671875 154.765625 146.496094 151.558594 C 144.753906 146.796875 143.980469 142.121094 144.675781 137.058594 C 145.375 131.992188 147.085938 127.15625 148.300781 122.210938 C 149.589844 116.949219 150.328125 111.035156 148.800781 105.785156 C 148.488281 104.707031 148.082031 103.660156 147.570312 102.65625 C 147.011719 101.566406 146.332031 100.527344 145.5 99.546875 C 143.03125 96.628906 139.734375 95.773438 136.632812 93.792969 C 132.40625 91.101562 133.019531 86.042969 134.410156 81.914062 C 135.707031 78.050781 137.160156 74.386719 136.894531 70.234375 C 136.683594 66.933594 135.699219 63.726562 134.039062 60.863281 C 129.554688 53.128906 121.261719 50.597656 112.78125 50.210938 C 106.199219 49.914062 98.605469 50.792969 92.039062 48.957031 C 91.6875 46.804688 90.984375 44.710938 89.867188 42.839844 C 88.667969 40.84375 87.023438 39.324219 85.304688 37.785156 C 83.007812 35.722656 80.507812 32.855469 82.3125 29.613281 C 82.457031 29.351562 82.019531 29.238281 81.878906 29.433594 C 79.347656 32.96875 82.097656 36.910156 84.558594 39.589844 C 86.902344 42.140625 88.582031 44.878906 89.390625 48.03125 C 89.511719 48.5 89.609375 48.976562 89.691406 49.464844 C 89.828125 50.296875 89.90625 51.15625 89.925781 52.046875 C 90.125 61.960938 83.5625 69.992188 77.117188 76.835938 C 74.921875 79.164062 72.710938 81.46875 70.613281 83.847656 C 69.980469 84.570312 69.359375 85.296875 68.753906 86.035156 C 65.75 89.667969 63.097656 93.546875 61.253906 98.003906 C 61.066406 98.445312 60.894531 98.886719 60.726562 99.335938 C 60.476562 100.011719 60.246094 100.691406 60.027344 101.382812 C 57.5 109.441406 57.316406 118.210938 59.40625 126.390625 C 61.863281 136.027344 67.34375 145.523438 75.058594 151.902344 C 75.875 152.582031 77.570312 151.613281 76.683594 150.667969 C 70.367188 143.949219 65.066406 136.652344 62.378906 127.726562 C 60.097656 120.175781 59.792969 112.050781 61.644531 104.390625 C 63.222656 106.816406 65.316406 108.832031 67.820312 109.882812 C 70.210938 110.886719 73.042969 110.875 75.351562 109.878906 C 78.082031 116.234375 81.710938 122.195312 86.46875 127.253906 C 87.71875 128.582031 89.066406 129.867188 90.492188 131.0625 C 90.777344 135.757812 91.195312 140.453125 91.5625 145.136719 C 92.058594 151.546875 93.648438 158.8125 87.777344 163.253906 C 85.355469 165.085938 82.457031 166.265625 79.699219 167.492188 C 76.574219 168.886719 73.421875 170.226562 70.25 171.511719 C 66.429688 173.058594 62.570312 174.46875 58.695312 175.851562 C 57.96875 175.003906 57.078125 174.277344 55.972656 173.726562 C 49.34375 170.414062 42.769531 174.152344 36.257812 176.769531 C 35.382812 175.335938 34.554688 173.867188 33.785156 172.375 C 29.75 161.34375 30.316406 148.855469 35.316406 138.960938 C 35.90625 137.792969 36.570312 136.585938 37.214844 135.417969 C 40.203125 130.003906 43.285156 124.40625 41.582031 118.449219 C 41.109375 116.789062 40.285156 115.289062 39.492188 113.84375 C 38.746094 112.488281 38.042969 111.210938 37.621094 109.824219 C 37.589844 109.726562 37.5625 109.621094 37.53125 109.496094 C 36.433594 105.378906 37.84375 100.507812 41.835938 94.609375 C 42.34375 93.851562 42.871094 93.101562 43.402344 92.347656 C 46.25 88.269531 49.195312 84.054688 49.945312 79.027344 C 50.636719 74.386719 49.324219 69.875 48.050781 65.511719 C 47.164062 62.480469 46.25 59.34375 46.050781 56.25 C 45.527344 48.238281 49.90625 39.773438 57.484375 34.152344 C 62.882812 30.140625 69.757812 27.425781 78.5 25.851562 C 78.511719 25.851562 78.519531 25.847656 78.53125 25.84375 C 78.648438 25.824219 78.761719 25.777344 78.863281 25.714844 C 78.90625 25.6875 78.945312 25.65625 78.988281 25.625 C 79.019531 25.59375 79.050781 25.566406 79.078125 25.535156 C 79.105469 25.511719 79.136719 25.472656 79.160156 25.4375 C 79.179688 25.40625 79.203125 25.378906 79.222656 25.347656 C 87.980469 13.339844 105.398438 7.730469 120.6875 11.996094 C 136.308594 16.359375 149.613281 29.914062 155.398438 47.375 C 155.746094 48.425781 156.082031 49.515625 156.402344 50.570312 C 157.746094 54.960938 159.136719 59.503906 162.132812 63.148438 C 164.144531 65.585938 166.710938 67.414062 169.195312 69.179688 C 170.558594 70.148438 171.972656 71.152344 173.246094 72.230469 C 179.820312 77.796875 183.660156 86.257812 183.515625 94.867188 C 183.457031 98.445312 182.765625 101.917969 181.871094 106.089844 L 181.78125 106.53125 C 180.527344 112.390625 179.230469 118.441406 180.648438 124.421875 C 181.738281 129.019531 184.316406 133.007812 186.804688 136.863281 C 188.089844 138.851562 189.421875 140.910156 190.511719 143 C 192.3125 146.472656 193.523438 150.273438 194.097656 154.28125 C 191.898438 167.496094 185.246094 179.875 175.035156 190 C 174.929688 179.679688 179.148438 169.9375 179.144531 159.636719 C 179.136719 155.300781 178.375 150.929688 176.242188 147.105469 C 174.25 143.53125 171.210938 140.71875 168.648438 137.570312 C 165.699219 133.949219 163.886719 130.039062 164.347656 125.269531 C 164.820312 120.429688 166.820312 115.910156 167.6875 111.144531 "/>
</g>
</svg>
