<?xml version="1.0" encoding="UTF-8"?>
<svg xmlns="http://www.w3.org/2000/svg" xmlns:xlink="http://www.w3.org/1999/xlink" width="30pt" height="30.000001pt" viewBox="0 0 30 30.000001" version="1.2">
<defs>
<clipPath id="clip1">
  <path d="M 0.484375 0 L 29.515625 0 L 29.515625 29 L 0.484375 29 Z M 0.484375 0 "/>
</clipPath>
</defs>
<g id="surface1">
<g clip-path="url(#clip1)" clip-rule="nonzero">
<path style=" stroke:none;fill-rule:nonzero;fill:rgb(79.60968%,83.529663%,87.449646%);fill-opacity:1;" d="M 15 0.0585938 C 6.984375 0.0585938 0.484375 6.558594 0.484375 14.578125 C 0.484375 21.855469 5.84375 27.863281 12.828125 28.914062 L 12.828125 18.421875 L 9.238281 18.421875 L 9.238281 14.609375 L 12.828125 14.609375 L 12.828125 12.070312 C 12.828125 7.867188 14.878906 6.019531 18.371094 6.019531 C 20.042969 6.019531 20.929688 6.144531 21.347656 6.199219 L 21.347656 9.53125 L 18.964844 9.53125 C 17.480469 9.53125 16.964844 10.9375 16.964844 12.523438 L 16.964844 14.609375 L 21.3125 14.609375 L 20.722656 18.421875 L 16.964844 18.421875 L 16.964844 28.945312 C 24.050781 27.984375 29.515625 21.925781 29.515625 14.578125 C 29.515625 6.558594 23.015625 0.0585938 15 0.0585938 Z M 15 0.0585938 "/>
</g>
</g>
</svg>
