<?xml version="1.0" encoding="UTF-8"?>
<svg xmlns="http://www.w3.org/2000/svg" xmlns:xlink="http://www.w3.org/1999/xlink" width="30pt" height="30.000001pt" viewBox="0 0 30 30.000001" version="1.2">
<defs>
<clipPath id="clip1">
  <path d="M 0.484375 0 L 29.515625 0 L 29.515625 29.03125 L 0.484375 29.03125 Z M 0.484375 0 "/>
</clipPath>
</defs>
<g id="surface1">
<g clip-path="url(#clip1)" clip-rule="nonzero">
<path style=" stroke:none;fill-rule:nonzero;fill:rgb(79.60968%,83.529663%,87.449646%);fill-opacity:1;" d="M 8.949219 0 C 4.28125 0 0.484375 3.800781 0.484375 8.46875 L 0.484375 20.566406 C 0.484375 25.234375 4.285156 29.03125 8.953125 29.03125 L 21.050781 29.03125 C 25.71875 29.03125 29.515625 25.230469 29.515625 20.5625 L 29.515625 8.464844 C 29.515625 3.796875 25.714844 0 21.046875 0 Z M 23.46875 4.839844 C 24.136719 4.839844 24.675781 5.378906 24.675781 6.046875 C 24.675781 6.714844 24.136719 7.257812 23.46875 7.257812 C 22.800781 7.257812 22.257812 6.714844 22.257812 6.046875 C 22.257812 5.378906 22.800781 4.839844 23.46875 4.839844 Z M 15 7.257812 C 19.003906 7.257812 22.257812 10.511719 22.257812 14.515625 C 22.257812 18.519531 19.003906 21.773438 15 21.773438 C 10.996094 21.773438 7.742188 18.519531 7.742188 14.515625 C 7.742188 10.511719 10.996094 7.257812 15 7.257812 Z M 15 9.675781 C 14.683594 9.675781 14.367188 9.707031 14.054688 9.769531 C 13.746094 9.832031 13.441406 9.925781 13.148438 10.046875 C 12.855469 10.167969 12.574219 10.316406 12.3125 10.492188 C 12.046875 10.667969 11.804688 10.871094 11.578125 11.09375 C 11.355469 11.320312 11.152344 11.5625 10.976562 11.828125 C 10.800781 12.09375 10.652344 12.371094 10.53125 12.664062 C 10.40625 12.957031 10.316406 13.261719 10.253906 13.570312 C 10.191406 13.882812 10.160156 14.199219 10.160156 14.515625 C 10.160156 14.832031 10.191406 15.148438 10.253906 15.460938 C 10.316406 15.773438 10.40625 16.074219 10.53125 16.367188 C 10.652344 16.660156 10.800781 16.941406 10.976562 17.203125 C 11.152344 17.46875 11.355469 17.714844 11.578125 17.9375 C 11.804688 18.164062 12.046875 18.363281 12.3125 18.539062 C 12.574219 18.714844 12.855469 18.863281 13.148438 18.988281 C 13.441406 19.109375 13.746094 19.199219 14.054688 19.261719 C 14.367188 19.324219 14.683594 19.355469 15 19.355469 C 15.316406 19.355469 15.632812 19.324219 15.945312 19.261719 C 16.253906 19.199219 16.558594 19.109375 16.851562 18.988281 C 17.144531 18.863281 17.425781 18.714844 17.6875 18.539062 C 17.953125 18.363281 18.195312 18.164062 18.421875 17.9375 C 18.644531 17.714844 18.847656 17.46875 19.023438 17.203125 C 19.199219 16.941406 19.347656 16.660156 19.46875 16.367188 C 19.59375 16.074219 19.683594 15.773438 19.746094 15.460938 C 19.808594 15.148438 19.839844 14.832031 19.839844 14.515625 C 19.839844 14.199219 19.808594 13.882812 19.746094 13.570312 C 19.683594 13.261719 19.59375 12.957031 19.46875 12.664062 C 19.347656 12.371094 19.199219 12.09375 19.023438 11.828125 C 18.847656 11.5625 18.644531 11.320312 18.421875 11.09375 C 18.195312 10.871094 17.953125 10.667969 17.6875 10.492188 C 17.425781 10.316406 17.144531 10.167969 16.851562 10.046875 C 16.558594 9.925781 16.253906 9.832031 15.945312 9.769531 C 15.632812 9.707031 15.316406 9.675781 15 9.675781 Z M 15 9.675781 "/>
</g>
</g>
</svg>
