<?xml version="1.0" encoding="UTF-8"?>
<svg xmlns="http://www.w3.org/2000/svg" xmlns:xlink="http://www.w3.org/1999/xlink" width="900pt" height="599.999999pt" viewBox="0 0 900 599.999999" version="1.2">
<defs>
<clipPath id="clip1">
  <path d="M 0 154.449219 L 473.664062 154.449219 L 473.664062 600 L 0 600 Z M 0 154.449219 "/>
</clipPath>
</defs>
<g id="surface1">
<rect x="0" y="0" width="900" height="599.999999" style="fill:rgb(100%,100%,100%);fill-opacity:1;stroke:none;"/>
<rect x="0" y="0" width="900" height="599.999999" style="fill:rgb(35.289001%,53.729248%,63.529968%);fill-opacity:1;stroke:none;"/>
<g clip-path="url(#clip1)" clip-rule="nonzero">
<path style=" stroke:none;fill-rule:evenodd;fill:rgb(1.959229%,39.99939%,57.649231%);fill-opacity:1;" d="M 6.230469 736.375 C -26.824219 601.941406 -66.679688 434.75 -99.726562 300.316406 C -102.074219 290.769531 -104.441406 280.960938 -103.234375 271.203125 C -101.058594 253.582031 -87.816406 239.511719 -74.390625 227.890625 C -41.421875 199.367188 -2.976562 177.195312 38.242188 162.960938 C 75.238281 150.179688 125.007812 148.277344 144.5 182.226562 C 165.585938 218.980469 133.296875 262.578125 127.265625 304.519531 C 160.546875 284.246094 200.980469 275.996094 239.542969 281.601562 C 251.984375 283.417969 264.621094 286.808594 274.441406 294.652344 C 289.125 306.34375 295.046875 325.792969 298.0625 344.324219 C 304.3125 382.683594 301.375 422.507812 289.570312 459.542969 C 316.886719 453.203125 344.207031 446.855469 371.523438 440.519531 C 376.5 439.359375 381.859375 438.238281 386.5625 440.210938 C 391.992188 442.5 394.988281 448.230469 397.558594 453.535156 C 422.921875 506.035156 448.289062 558.527344 473.65625 611.03125 C 318.925781 656.695312 163.046875 698.492188 6.230469 736.375 "/>
</g>
<path style=" stroke:none;fill-rule:nonzero;fill:rgb(35.289001%,53.729248%,63.529968%);fill-opacity:1;" d="M 245.589844 459.902344 C 244.855469 460.5 244.035156 461.15625 243.222656 461.824219 C 243.378906 462.160156 243.523438 462.488281 243.675781 462.828125 C 244.546875 462.625 245.570312 462.644531 246.238281 462.171875 C 247.347656 461.386719 246.953125 460.546875 245.589844 459.902344 "/>
<path style=" stroke:none;fill-rule:nonzero;fill:rgb(35.289001%,53.729248%,63.529968%);fill-opacity:1;" d="M 260.214844 518.269531 C 260.457031 518.585938 261.21875 518.507812 262.089844 518.671875 C 261.90625 517.863281 261.953125 517.253906 261.710938 517.089844 C 261.238281 516.789062 260.609375 516.75 260.050781 516.605469 C 260.078125 517.175781 259.925781 517.890625 260.214844 518.269531 "/>
<path style=" stroke:none;fill-rule:nonzero;fill:rgb(35.289001%,53.729248%,63.529968%);fill-opacity:1;" d="M 359.933594 461.175781 C 360.152344 461.40625 360.898438 461.425781 361.179688 461.222656 C 361.410156 461.058594 361.285156 460.414062 361.332031 459.824219 C 360.675781 459.832031 360.230469 459.84375 359.777344 459.851562 C 359.816406 460.304688 359.691406 460.914062 359.933594 461.175781 "/>
<path style=" stroke:none;fill-rule:nonzero;fill:rgb(35.289001%,53.729248%,63.529968%);fill-opacity:1;" d="M 153.492188 404.925781 C 153.765625 404.886719 154.023438 404.769531 154.285156 404.691406 C 154.101562 404.460938 153.917969 404.25 153.734375 404.027344 C 153.5625 404.210938 153.367188 404.375 153.242188 404.578125 C 153.214844 404.625 153.417969 404.925781 153.492188 404.925781 "/>
<path style=" stroke:none;fill-rule:nonzero;fill:rgb(35.289001%,53.729248%,63.529968%);fill-opacity:1;" d="M 218.523438 593.207031 C 218.714844 593.234375 218.976562 592.933594 219.199219 592.78125 C 219.042969 592.558594 218.917969 592.191406 218.726562 592.152344 C 218.542969 592.105469 218.28125 592.414062 218.058594 592.566406 C 218.214844 592.789062 218.339844 593.167969 218.523438 593.207031 "/>
<path style=" stroke:none;fill-rule:nonzero;fill:rgb(35.289001%,53.729248%,63.529968%);fill-opacity:1;" d="M 263.101562 450.835938 C 263.09375 450.78125 263.09375 450.722656 263.09375 450.664062 C 262.9375 450.671875 262.785156 450.691406 262.621094 450.703125 C 262.648438 450.800781 262.667969 450.894531 262.6875 450.992188 C 262.8125 450.945312 262.949219 450.894531 263.101562 450.835938 "/>
<path style=" stroke:none;fill-rule:nonzero;fill:rgb(35.289001%,53.729248%,63.529968%);fill-opacity:1;" d="M 6.453125 277.136719 C 6.308594 277.128906 6.152344 277.117188 6.007812 277.109375 C 6.027344 277.242188 6.027344 277.464844 6.058594 277.53125 C 6.191406 277.398438 6.328125 277.261719 6.453125 277.136719 "/>
<path style=" stroke:none;fill-rule:nonzero;fill:rgb(35.289001%,53.729248%,63.529968%);fill-opacity:1;" d="M 328.375 505.457031 C 329.15625 505.96875 330.132812 505.601562 330.355469 504.761719 C 330.625 503.746094 330.46875 502.605469 330.507812 501.386719 C 328.855469 501.785156 327.699219 502.355469 327.589844 503.863281 C 327.550781 504.394531 327.929688 505.175781 328.375 505.457031 "/>
<path style=" stroke:none;fill-rule:nonzero;fill:rgb(35.289001%,53.729248%,63.529968%);fill-opacity:1;" d="M 351.015625 582.914062 C 351.304688 583.078125 351.835938 582.828125 352.261719 582.761719 C 352.203125 582.296875 352.214844 581.738281 352.125 581.726562 C 351.671875 581.648438 351.199219 581.707031 350.726562 581.726562 C 350.8125 582.132812 350.773438 582.769531 351.015625 582.914062 "/>
<path style=" stroke:none;fill-rule:nonzero;fill:rgb(35.289001%,53.729248%,63.529968%);fill-opacity:1;" d="M 347.375 535.351562 C 347.199219 535.292969 346.863281 535.589844 346.59375 535.738281 C 346.726562 535.988281 346.804688 536.363281 347.027344 536.460938 C 347.191406 536.527344 347.539062 536.210938 347.808594 536.066406 C 347.671875 535.8125 347.585938 535.4375 347.375 535.351562 "/>
<path style=" stroke:none;fill-rule:nonzero;fill:rgb(35.289001%,53.729248%,63.529968%);fill-opacity:1;" d="M 236.363281 390.597656 C 237.203125 391 238.121094 390.519531 238.25 389.660156 C 238.394531 388.617188 238.101562 387.503906 237.988281 386.296875 C 236.394531 386.886719 235.320312 387.589844 235.390625 389.097656 C 235.417969 389.628906 235.890625 390.363281 236.363281 390.597656 "/>
<path style=" stroke:none;fill-rule:nonzero;fill:rgb(35.289001%,53.729248%,63.529968%);fill-opacity:1;" d="M 162.46875 446.152344 C 161.085938 445.523438 159.839844 444.964844 157.871094 444.066406 C 159.210938 446.382812 160.835938 447.011719 162.46875 446.152344 "/>
<path style=" stroke:none;fill-rule:nonzero;fill:rgb(35.289001%,53.729248%,63.529968%);fill-opacity:1;" d="M 314.347656 575.785156 C 313.238281 575.195312 313.1875 576.382812 312.984375 577.109375 C 312.832031 577.679688 312.675781 578.25 312.53125 578.78125 C 313.902344 579.503906 313.921875 578.605469 314.269531 577.882812 C 314.636719 577.117188 315.207031 576.230469 314.347656 575.785156 "/>
<path style=" stroke:none;fill-rule:nonzero;fill:rgb(35.289001%,53.729248%,63.529968%);fill-opacity:1;" d="M 359.804688 515.523438 C 359.75 515.679688 360.085938 515.976562 360.242188 516.21875 C 360.472656 516.046875 360.859375 515.902344 360.898438 515.6875 C 360.9375 515.464844 360.648438 515.1875 360.5 514.933594 C 360.261719 515.128906 359.902344 515.273438 359.804688 515.523438 "/>
<path style=" stroke:none;fill-rule:nonzero;fill:rgb(35.289001%,53.729248%,63.529968%);fill-opacity:1;" d="M 288.59375 344.230469 C 289.445312 344.75 290.128906 344.035156 290.640625 343.367188 C 290.835938 343.128906 290.875 342.769531 291.105469 342.140625 C 290.75 341.882812 290.632812 341.773438 290.488281 341.699219 C 289.386719 341.058594 288.488281 341.417969 288.113281 342.507812 C 287.949219 342.992188 288.207031 343.988281 288.59375 344.230469 "/>
<path style=" stroke:none;fill-rule:nonzero;fill:rgb(35.289001%,53.729248%,63.529968%);fill-opacity:1;" d="M 382.023438 583.621094 C 382.042969 583.359375 382.160156 582.945312 382.035156 582.867188 C 381.839844 582.710938 381.492188 582.78125 381.203125 582.75 C 381.222656 583.128906 381.25 583.503906 381.269531 583.871094 C 381.523438 583.792969 381.773438 583.707031 382.023438 583.621094 "/>
<path style=" stroke:none;fill-rule:nonzero;fill:rgb(35.289001%,53.729248%,63.529968%);fill-opacity:1;" d="M 395.246094 555.707031 C 395.355469 555.746094 395.507812 555.589844 395.613281 555.535156 C 395.597656 554.578125 395.597656 553.628906 395.546875 552.691406 C 395.539062 552.585938 395.324219 552.421875 395.179688 552.382812 C 395.046875 552.355469 394.746094 552.433594 394.746094 552.492188 C 394.609375 553.4375 394.484375 554.382812 394.445312 555.332031 C 394.445312 555.457031 394.957031 555.628906 395.246094 555.707031 "/>
<path style=" stroke:none;fill-rule:nonzero;fill:rgb(35.289001%,53.729248%,63.529968%);fill-opacity:1;" d="M 402.617188 524.269531 C 402.320312 524.105469 401.960938 524.066406 401.625 523.988281 C 401.613281 524.257812 401.613281 524.527344 401.605469 524.800781 C 401.882812 524.875 402.175781 524.953125 402.453125 525.03125 C 402.511719 524.761719 402.6875 524.296875 402.617188 524.269531 "/>
<path style=" stroke:none;fill-rule:nonzero;fill:rgb(35.289001%,53.729248%,63.529968%);fill-opacity:1;" d="M 296.1875 575.929688 C 296.140625 575.921875 296.089844 575.902344 296.042969 575.890625 C 296.042969 575.890625 296.042969 575.949219 296.042969 575.949219 C 296.089844 575.949219 296.140625 575.941406 296.1875 575.929688 "/>
<path style=" stroke:none;fill-rule:nonzero;fill:rgb(35.289001%,53.729248%,63.529968%);fill-opacity:1;" d="M 352.609375 582.585938 L 352.261719 582.761719 L 352.523438 582.984375 Z M 352.609375 582.585938 "/>
<path style=" stroke:none;fill-rule:nonzero;fill:rgb(35.289001%,53.729248%,63.529968%);fill-opacity:1;" d="M 149.53125 521.601562 C 149.511719 521.175781 149.273438 520.769531 149.117188 520.355469 C 148.828125 520.617188 148.546875 520.886719 148.101562 521.292969 C 148.414062 521.648438 148.644531 521.9375 148.894531 522.21875 C 149.117188 522.007812 149.542969 521.792969 149.53125 521.601562 "/>
<path style=" stroke:none;fill-rule:nonzero;fill:rgb(35.289001%,53.729248%,63.529968%);fill-opacity:1;" d="M 280.546875 395.425781 C 280.5 395.128906 280.546875 394.703125 280.375 394.558594 C 280.199219 394.414062 279.792969 394.539062 279.496094 394.539062 C 279.582031 394.835938 279.601562 395.203125 279.792969 395.417969 C 279.902344 395.542969 280.289062 395.425781 280.546875 395.425781 "/>
<path style=" stroke:none;fill-rule:nonzero;fill:rgb(35.289001%,53.729248%,63.529968%);fill-opacity:1;" d="M 309.777344 553.882812 C 309.757812 553.804688 309.390625 553.757812 309.363281 553.804688 C 309.238281 554.015625 309.179688 554.269531 309.09375 554.5 C 309.371094 554.566406 309.652344 554.625 309.933594 554.691406 C 309.894531 554.421875 309.875 554.132812 309.777344 553.882812 "/>
<path style=" stroke:none;fill-rule:nonzero;fill:rgb(35.289001%,53.729248%,63.529968%);fill-opacity:1;" d="M 260.320312 484.433594 C 260.425781 483.976562 260.359375 483.476562 260.367188 482.992188 C 260.148438 483.011719 259.925781 483.019531 259.703125 483.03125 C 259.527344 483.425781 259.210938 483.8125 259.21875 484.199219 C 259.230469 484.617188 259.539062 485.03125 259.710938 485.445312 C 259.925781 485.109375 260.222656 484.800781 260.320312 484.433594 "/>
<path style=" stroke:none;fill-rule:nonzero;fill:rgb(35.289001%,53.729248%,63.529968%);fill-opacity:1;" d="M 375.078125 530.558594 C 374.992188 530.375 374.90625 530.179688 374.816406 529.996094 C 374.710938 530.046875 374.605469 530.105469 374.5 530.152344 C 374.566406 530.269531 374.632812 530.382812 374.691406 530.5 C 374.828125 530.519531 374.953125 530.539062 375.078125 530.558594 "/>
<path style=" stroke:none;fill-rule:nonzero;fill:rgb(35.289001%,53.729248%,63.529968%);fill-opacity:1;" d="M 213.644531 497.804688 C 213.578125 497.699219 213.382812 497.667969 213.25 497.601562 C 213.21875 497.832031 213.179688 498.074219 213.152344 498.304688 C 213.296875 498.289062 213.453125 498.257812 213.605469 498.238281 C 213.625 498.09375 213.703125 497.910156 213.644531 497.804688 "/>
<path style=" stroke:none;fill-rule:nonzero;fill:rgb(35.289001%,53.729248%,63.529968%);fill-opacity:1;" d="M 429.085938 576.558594 C 429.222656 576.5 429.347656 575.957031 429.25 575.804688 C 428.835938 575.195312 427.511719 575.234375 427.203125 575.863281 C 427.105469 576.046875 427.328125 576.382812 427.492188 576.933594 C 427.984375 576.828125 428.566406 576.761719 429.085938 576.558594 "/>
<path style=" stroke:none;fill-rule:nonzero;fill:rgb(35.289001%,53.729248%,63.529968%);fill-opacity:1;" d="M 324.355469 588.394531 C 324.355469 588.382812 324.296875 588.414062 324.296875 588.414062 C 324.335938 588.453125 324.375 588.492188 324.402344 588.527344 C 324.394531 588.480469 324.375 588.433594 324.355469 588.394531 "/>
<path style=" stroke:none;fill-rule:nonzero;fill:rgb(35.289001%,53.729248%,63.529968%);fill-opacity:1;" d="M 190.925781 546.769531 C 190.046875 547.195312 189.097656 547.660156 187.804688 548.289062 C 189.425781 549.976562 190.730469 551.339844 192.394531 553.070312 C 192.847656 551.988281 193.53125 551.15625 193.332031 550.703125 C 192.78125 549.398438 191.863281 548.25 190.925781 546.769531 "/>
<path style=" stroke:none;fill-rule:nonzero;fill:rgb(35.289001%,53.729248%,63.529968%);fill-opacity:1;" d="M 81.441406 237.785156 C 80.253906 238.355469 79.269531 238.933594 78.214844 239.300781 C 77.238281 239.640625 76.1875 239.726562 74.457031 240.0625 C 76.410156 241.417969 77.789062 242.375 79.25 243.378906 C 80.707031 242.015625 81.394531 240.210938 81.441406 237.785156 "/>
<path style=" stroke:none;fill-rule:nonzero;fill:rgb(35.289001%,53.729248%,63.529968%);fill-opacity:1;" d="M 109.714844 518.984375 C 110.3125 519.425781 110.933594 519.476562 111.511719 518.945312 C 112.273438 518.21875 112.332031 516.847656 111.347656 516.035156 C 110.835938 516.132812 109.984375 516.113281 109.339844 516.472656 C 108.527344 516.925781 108.789062 518.289062 109.714844 518.984375 "/>
<path style=" stroke:none;fill-rule:nonzero;fill:rgb(35.289001%,53.729248%,63.529968%);fill-opacity:1;" d="M 72.148438 507.765625 C 72.128906 507.339844 72.285156 506.75 72.0625 506.527344 C 71.683594 506.152344 71.078125 506.007812 70.234375 505.609375 C 70.3125 506.519531 70.199219 507.207031 70.417969 507.339844 C 70.914062 507.628906 71.570312 507.640625 72.148438 507.765625 "/>
<path style=" stroke:none;fill-rule:nonzero;fill:rgb(35.289001%,53.729248%,63.529968%);fill-opacity:1;" d="M 228.742188 293.261719 C 228.859375 292.914062 228.800781 292.519531 228.808594 292.171875 C 228.308594 292.082031 228.007812 292.027344 227.710938 291.976562 C 227.765625 292.414062 227.765625 292.875 227.921875 293.28125 C 227.949219 293.367188 228.714844 293.359375 228.742188 293.261719 "/>
<path style=" stroke:none;fill-rule:nonzero;fill:rgb(35.289001%,53.729248%,63.529968%);fill-opacity:1;" d="M 201.878906 388.847656 C 201.9375 388.375 202.089844 387.871094 201.996094 387.8125 C 201.667969 387.628906 201.25 387.609375 200.875 387.535156 C 200.816406 387.832031 200.625 388.316406 200.730469 388.402344 C 201.027344 388.632812 201.464844 388.691406 201.878906 388.847656 "/>
<path style=" stroke:none;fill-rule:nonzero;fill:rgb(35.289001%,53.729248%,63.529968%);fill-opacity:1;" d="M 8.925781 521.292969 C 9.300781 521.117188 9.640625 520.867188 9.988281 520.644531 C 9.8125 520.394531 9.640625 520.140625 9.371094 519.738281 C 9.050781 520.046875 8.714844 520.296875 8.511719 520.636719 C 8.441406 520.742188 8.878906 521.3125 8.925781 521.292969 "/>
<path style=" stroke:none;fill-rule:nonzero;fill:rgb(35.289001%,53.729248%,63.529968%);fill-opacity:1;" d="M 90.570312 281 C 90.523438 281.242188 90.558594 281.496094 90.570312 281.734375 C 90.832031 281.679688 91.101562 281.621094 91.371094 281.5625 C 91.238281 281.339844 91.121094 281.097656 90.957031 280.914062 C 90.90625 280.855469 90.570312 280.953125 90.570312 281 "/>
<path style=" stroke:none;fill-rule:nonzero;fill:rgb(35.289001%,53.729248%,63.529968%);fill-opacity:1;" d="M 31.546875 292.875 C 31.316406 292.441406 31.144531 292.09375 30.929688 291.753906 C 30.921875 291.734375 30.542969 291.871094 30.542969 291.929688 C 30.542969 292.296875 30.613281 292.671875 30.652344 293.039062 C 30.902344 292.992188 31.144531 292.953125 31.546875 292.875 "/>
<path style=" stroke:none;fill-rule:nonzero;fill:rgb(35.289001%,53.729248%,63.529968%);fill-opacity:1;" d="M 93.1875 258.082031 C 92.996094 257.785156 92.867188 257.53125 92.675781 257.339844 C 92.617188 257.28125 92.25 257.386719 92.242188 257.445312 C 92.203125 257.707031 92.25 257.976562 92.269531 258.246094 C 92.558594 258.191406 92.859375 258.140625 93.1875 258.082031 "/>
<path style=" stroke:none;fill-rule:nonzero;fill:rgb(35.289001%,53.729248%,63.529968%);fill-opacity:1;" d="M 159.683594 535.28125 C 159.570312 535.359375 159.453125 535.425781 159.335938 535.503906 C 159.5 535.648438 159.675781 535.792969 159.847656 535.941406 C 159.898438 535.804688 160.015625 535.660156 159.984375 535.554688 C 159.964844 535.445312 159.792969 535.371094 159.683594 535.28125 "/>
<path style=" stroke:none;fill-rule:nonzero;fill:rgb(35.289001%,53.729248%,63.529968%);fill-opacity:1;" d="M 232.578125 488.316406 C 232.714844 488.355469 232.847656 488.433594 232.972656 488.414062 C 233.042969 488.402344 233.097656 488.238281 233.15625 488.140625 C 233.082031 488.046875 232.992188 487.929688 232.90625 487.824219 C 232.800781 487.988281 232.683594 488.152344 232.578125 488.316406 "/>
<path style=" stroke:none;fill-rule:nonzero;fill:rgb(35.289001%,53.729248%,63.529968%);fill-opacity:1;" d="M 218.976562 360.945312 L 218.707031 361.089844 L 218.917969 361.242188 Z M 218.976562 360.945312 "/>
<path style=" stroke:none;fill-rule:nonzero;fill:rgb(35.289001%,53.729248%,63.529968%);fill-opacity:1;" d="M 27.898438 504.664062 C 27.945312 504.691406 28.089844 504.539062 28.195312 504.472656 C 28.101562 504.355469 28.03125 504.210938 27.90625 504.140625 C 27.859375 504.113281 27.714844 504.269531 27.609375 504.335938 C 27.703125 504.453125 27.78125 504.597656 27.898438 504.664062 "/>
<path style=" stroke:none;fill-rule:nonzero;fill:rgb(35.289001%,53.729248%,63.529968%);fill-opacity:1;" d="M 34.765625 521.667969 C 34.6875 521.679688 34.523438 522.363281 34.609375 522.433594 C 34.921875 522.644531 35.324219 522.722656 35.710938 522.855469 C 35.835938 522.375 35.914062 522.085938 35.984375 521.792969 C 35.578125 521.738281 35.160156 521.640625 34.765625 521.667969 "/>
<path style=" stroke:none;fill-rule:nonzero;fill:rgb(35.289001%,53.729248%,63.529968%);fill-opacity:1;" d="M 11.484375 357.6875 C 11.523438 357.640625 11.175781 357.234375 10.875 356.816406 C 10.585938 357.117188 10.230469 357.347656 10.105469 357.667969 C 10.035156 357.832031 10.394531 358.160156 10.558594 358.414062 C 10.875 358.179688 11.226562 357.976562 11.484375 357.6875 "/>
<path style=" stroke:none;fill-rule:nonzero;fill:rgb(35.289001%,53.729248%,63.529968%);fill-opacity:1;" d="M 103.535156 181.347656 C 103.640625 181.234375 103.734375 181.125 103.832031 181.011719 C 103.496094 180.769531 103.167969 180.382812 102.820312 180.355469 C 102.546875 180.335938 102.257812 180.796875 101.976562 181.050781 C 102.199219 181.214844 102.402344 181.472656 102.644531 181.511719 C 102.925781 181.5625 103.234375 181.417969 103.535156 181.347656 "/>
<path style=" stroke:none;fill-rule:nonzero;fill:rgb(35.289001%,53.729248%,63.529968%);fill-opacity:1;" d="M 130.050781 375.917969 C 130.050781 375.84375 130.050781 375.765625 130.050781 375.679688 C 130.125 374.867188 130.367188 374.046875 130.695312 373.234375 C 129.933594 373.234375 129.113281 373.28125 128.308594 373.601562 C 126.386719 374.382812 126.699219 370.652344 124.4375 372.25 C 126.253906 375.070312 126.253906 375.070312 126.378906 378.199219 C 128.28125 376.585938 128.878906 376.074219 130.050781 375.917969 "/>
<path style=" stroke:none;fill-rule:nonzero;fill:rgb(35.289001%,53.729248%,63.529968%);fill-opacity:1;" d="M 140.675781 329.359375 C 141.652344 329.609375 142.664062 329.726562 143.496094 328.394531 C 142.820312 327.96875 142.191406 327.40625 141.46875 327.164062 C 140.964844 327.011719 140.171875 327.109375 139.765625 327.417969 C 139.226562 327.832031 139.835938 329.148438 140.675781 329.359375 "/>
<path style=" stroke:none;fill-rule:nonzero;fill:rgb(35.289001%,53.729248%,63.529968%);fill-opacity:1;" d="M 112.199219 434.230469 C 111.996094 434.453125 112.148438 435.019531 112.148438 435.425781 C 112.84375 435.40625 113.53125 435.378906 114.179688 435.359375 C 114.246094 434.730469 114.410156 434.285156 114.285156 434.160156 C 113.597656 433.523438 112.804688 433.609375 112.199219 434.230469 "/>
<path style=" stroke:none;fill-rule:nonzero;fill:rgb(35.289001%,53.729248%,63.529968%);fill-opacity:1;" d="M 108.652344 388.054688 C 108.777344 387.976562 108.691406 387.542969 108.691406 387.28125 C 108.285156 387.320312 107.878906 387.359375 107.464844 387.398438 C 107.511719 387.8125 107.550781 388.074219 107.589844 388.335938 C 107.949219 388.25 108.351562 388.238281 108.652344 388.054688 "/>
<path style=" stroke:none;fill-rule:nonzero;fill:rgb(35.289001%,53.729248%,63.529968%);fill-opacity:1;" d="M 35.75 360.933594 C 35.566406 360.875 35.269531 361.203125 35.007812 361.347656 C 35.238281 361.660156 35.453125 361.988281 35.730469 362.25 C 35.769531 362.277344 36.148438 361.949219 36.542969 361.660156 C 36.261719 361.378906 36.050781 361.03125 35.75 360.933594 "/>
<path style=" stroke:none;fill-rule:nonzero;fill:rgb(35.289001%,53.729248%,63.529968%);fill-opacity:1;" d="M 25.347656 276.789062 C 25.203125 276.816406 24.953125 276.789062 24.921875 276.855469 C 24.824219 277.117188 24.796875 277.398438 24.738281 277.667969 C 24.960938 277.621094 25.171875 277.5625 25.394531 277.511719 C 25.386719 277.273438 25.367188 277.03125 25.347656 276.789062 "/>
<path style=" stroke:none;fill-rule:nonzero;fill:rgb(35.289001%,53.729248%,63.529968%);fill-opacity:1;" d="M 21.03125 439.535156 C 20.277344 439.582031 19.503906 439.523438 18.789062 439.71875 C 18.507812 439.792969 18.304688 440.421875 18.238281 440.828125 C 18.207031 440.964844 18.71875 441.378906 18.921875 441.339844 C 19.667969 441.203125 20.402344 440.945312 21.105469 440.664062 C 21.183594 440.636719 21.078125 440.132812 21.03125 439.535156 "/>
<path style=" stroke:none;fill-rule:nonzero;fill:rgb(35.289001%,53.729248%,63.529968%);fill-opacity:1;" d="M 174.910156 487.957031 C 175.226562 488.152344 175.808594 487.9375 176.261719 487.910156 C 176.203125 487.371094 176.136719 486.820312 176.039062 485.988281 C 175.277344 486.34375 174.65625 486.441406 174.542969 486.730469 C 174.417969 487.070312 174.621094 487.765625 174.910156 487.957031 "/>
<path style=" stroke:none;fill-rule:nonzero;fill:rgb(35.289001%,53.729248%,63.529968%);fill-opacity:1;" d="M 44.011719 299.078125 C 43.710938 298.875 43.296875 298.835938 42.917969 298.742188 C 42.820312 299.136719 42.714844 299.542969 42.542969 300.199219 C 43.1875 300.0625 43.632812 300.046875 43.972656 299.863281 C 44.105469 299.792969 44.125 299.164062 44.011719 299.078125 "/>
<path style=" stroke:none;fill-rule:nonzero;fill:rgb(35.289001%,53.729248%,63.529968%);fill-opacity:1;" d="M 78.667969 374.238281 C 78.660156 374.238281 78.660156 374.238281 78.648438 374.238281 C 78.648438 374.238281 78.648438 374.25 78.648438 374.25 L 78.660156 374.25 L 78.667969 374.238281 "/>
<path style=" stroke:none;fill-rule:nonzero;fill:rgb(35.289001%,53.729248%,63.529968%);fill-opacity:1;" d="M 1.621094 468.085938 C 1.527344 467.976562 1.4375 467.871094 1.34375 467.765625 C 1.238281 467.910156 1.128906 468.046875 1.023438 468.191406 C 1.160156 468.25 1.292969 468.324219 1.429688 468.335938 C 1.488281 468.335938 1.554688 468.171875 1.621094 468.085938 "/>
<path style=" stroke:none;fill-rule:nonzero;fill:rgb(35.289001%,53.729248%,63.529968%);fill-opacity:1;" d="M 15.464844 449.554688 C 15.417969 449.523438 15.28125 449.640625 15.195312 449.699219 C 15.273438 449.804688 15.328125 449.9375 15.425781 450.015625 C 15.464844 450.035156 15.609375 449.902344 15.707031 449.84375 C 15.628906 449.734375 15.5625 449.601562 15.464844 449.554688 "/>
<path style=" stroke:none;fill-rule:nonzero;fill:rgb(35.289001%,53.729248%,63.529968%);fill-opacity:1;" d="M 35.953125 259.40625 C 35.855469 259.660156 35.820312 259.949219 35.769531 260.21875 C 35.984375 260.160156 36.203125 260.113281 36.425781 260.0625 C 36.40625 259.824219 36.386719 259.582031 36.378906 259.339844 C 36.234375 259.359375 35.984375 259.339844 35.953125 259.40625 "/>
<path style=" stroke:none;fill-rule:nonzero;fill:rgb(35.289001%,53.729248%,63.529968%);fill-opacity:1;" d="M 49.515625 397.128906 C 51.6875 395.242188 51.050781 393.660156 50.773438 391.949219 C 50.144531 392.054688 49.5625 392.152344 48.957031 392.265625 C 49.121094 393.734375 49.265625 395 49.515625 397.128906 "/>
<path style=" stroke:none;fill-rule:nonzero;fill:rgb(35.289001%,53.729248%,63.529968%);fill-opacity:1;" d="M 167.617188 354.683594 C 167.453125 354.441406 167.296875 354.007812 167.105469 353.988281 C 166.863281 353.96875 166.59375 354.277344 166.332031 354.449219 C 166.515625 354.703125 166.6875 354.964844 166.871094 355.222656 C 167.125 355.039062 167.363281 354.867188 167.617188 354.683594 "/>
<path style=" stroke:none;fill-rule:nonzero;fill:rgb(35.289001%,53.729248%,63.529968%);fill-opacity:1;" d="M 108.09375 342.925781 C 108.296875 343.011719 108.847656 342.828125 108.855469 342.730469 C 108.894531 342.335938 108.777344 341.910156 108.671875 341.117188 C 108.121094 341.667969 107.765625 341.910156 107.609375 342.246094 C 107.542969 342.375 107.851562 342.828125 108.09375 342.925781 "/>
<path style=" stroke:none;fill-rule:nonzero;fill:rgb(35.289001%,53.729248%,63.529968%);fill-opacity:1;" d="M 182.355469 320.558594 C 182.414062 320.363281 182.480469 320.179688 182.539062 319.988281 C 182.394531 319.957031 182.242188 319.929688 182.097656 319.910156 C 182.066406 320.015625 181.980469 320.160156 182.019531 320.238281 C 182.085938 320.375 182.242188 320.449219 182.355469 320.558594 "/>
<path style=" stroke:none;fill-rule:nonzero;fill:rgb(35.289001%,53.729248%,63.529968%);fill-opacity:1;" d="M 192.375 345.660156 C 192.25 345.609375 192.101562 345.503906 192.015625 345.53125 C 191.902344 345.589844 191.8125 345.753906 191.71875 345.871094 C 191.902344 345.949219 192.085938 346.015625 192.269531 346.09375 C 192.304688 345.949219 192.335938 345.804688 192.375 345.660156 "/>
<path style=" stroke:none;fill-rule:nonzero;fill:rgb(35.289001%,53.729248%,63.529968%);fill-opacity:1;" d="M 151.195312 390.21875 C 151.195312 390.152344 151.039062 390.09375 150.953125 390.035156 C 150.847656 390.121094 150.730469 390.210938 150.613281 390.285156 C 150.777344 390.402344 150.933594 390.507812 151.097656 390.617188 C 151.136719 390.488281 151.203125 390.34375 151.195312 390.21875 "/>
<path style=" stroke:none;fill-rule:nonzero;fill:rgb(35.289001%,53.729248%,63.529968%);fill-opacity:1;" d="M 90.230469 384.914062 C 89.960938 385.011719 89.863281 385.667969 89.738281 386.082031 C 89.710938 386.171875 89.921875 386.316406 90.230469 386.671875 C 90.6875 386.546875 91.34375 386.5 91.796875 386.179688 C 92.039062 386.007812 91.933594 385.339844 91.988281 384.90625 C 91.390625 384.886719 90.761719 384.742188 90.230469 384.914062 "/>
<path style=" stroke:none;fill-rule:nonzero;fill:rgb(35.289001%,53.729248%,63.529968%);fill-opacity:1;" d="M 112.894531 198.75 C 113.355469 199.464844 113.609375 199.957031 113.964844 200.335938 C 114.0625 200.429688 114.757812 200.179688 114.75 200.113281 C 114.738281 199.570312 114.660156 199.019531 114.46875 198.519531 C 114.4375 198.441406 113.714844 198.625 112.894531 198.75 "/>
<path style=" stroke:none;fill-rule:nonzero;fill:rgb(35.289001%,53.729248%,63.529968%);fill-opacity:1;" d="M 246.699219 316.5 C 248.84375 315.347656 250.140625 313.929688 250.699219 311.996094 C 249.132812 311.15625 247.65625 310.363281 245.570312 309.242188 C 246.054688 310.933594 246.449219 311.910156 246.59375 312.925781 C 246.75 314.046875 246.671875 315.183594 246.699219 316.5 "/>
<path style=" stroke:none;fill-rule:nonzero;fill:rgb(35.289001%,53.729248%,63.529968%);fill-opacity:1;" d="M 195.8125 485.667969 C 193.195312 485.03125 191.078125 483.496094 187.410156 483.496094 C 191.3125 487.011719 193.53125 487.535156 195.8125 485.667969 "/>
<path style=" stroke:none;fill-rule:nonzero;fill:rgb(35.289001%,53.729248%,63.529968%);fill-opacity:1;" d="M 117.441406 166.519531 C 117.394531 166.402344 117.347656 166.285156 117.296875 166.179688 C 117.132812 166.285156 116.980469 166.402344 116.816406 166.519531 C 116.921875 166.605469 117.027344 166.75 117.132812 166.757812 C 117.242188 166.757812 117.347656 166.605469 117.441406 166.519531 "/>
<path style=" stroke:none;fill-rule:nonzero;fill:rgb(35.289001%,53.729248%,63.529968%);fill-opacity:1;" d="M 248.527344 548.210938 C 248.089844 547.988281 247.210938 548.105469 246.855469 548.433594 C 246.59375 548.664062 246.894531 549.496094 246.960938 550.402344 C 247.871094 550.125 248.640625 550.105469 248.914062 549.726562 C 249.125 549.425781 248.863281 548.394531 248.527344 548.210938 "/>
<path style=" stroke:none;fill-rule:nonzero;fill:rgb(35.289001%,53.729248%,63.529968%);fill-opacity:1;" d="M 219.09375 313.707031 C 219.179688 313.117188 219.238281 312.527344 219.246094 311.9375 C 219.257812 311.8125 219.0625 311.6875 218.957031 311.5625 C 218.6875 311.726562 218.175781 311.917969 218.183594 312.0625 C 218.253906 312.664062 218.464844 313.242188 218.648438 313.824219 C 218.65625 313.832031 219.082031 313.765625 219.09375 313.707031 "/>
<path style=" stroke:none;fill-rule:nonzero;fill:rgb(35.289001%,53.729248%,63.529968%);fill-opacity:1;" d="M 60.277344 288.722656 C 60.335938 288.691406 60.304688 288.355469 60.257812 288.335938 C 60.027344 288.265625 59.765625 288.246094 59.523438 288.21875 C 59.5625 288.449219 59.601562 288.691406 59.640625 288.933594 C 59.863281 288.867188 60.082031 288.828125 60.277344 288.722656 "/>
<path style=" stroke:none;fill-rule:nonzero;fill:rgb(35.289001%,53.729248%,63.529968%);fill-opacity:1;" d="M 164.679688 321.070312 C 164.484375 320.847656 164.3125 320.5 164.082031 320.441406 C 163.898438 320.402344 163.625 320.722656 163.394531 320.886719 C 163.472656 321.148438 163.550781 321.417969 163.625 321.679688 C 163.972656 321.476562 164.332031 321.273438 164.679688 321.070312 "/>
<path style=" stroke:none;fill-rule:nonzero;fill:rgb(35.289001%,53.729248%,63.529968%);fill-opacity:1;" d="M 71.335938 454.828125 C 71.867188 454.875 72.410156 454.820312 72.960938 454.800781 C 72.902344 454.160156 72.882812 453.863281 72.863281 453.5625 C 72.324219 453.699219 71.773438 453.792969 71.261719 454.007812 C 71.183594 454.035156 71.289062 454.820312 71.335938 454.828125 "/>
<path style=" stroke:none;fill-rule:nonzero;fill:rgb(35.289001%,53.729248%,63.529968%);fill-opacity:1;" d="M 266.195312 582.199219 C 266.367188 582.257812 266.6875 581.902344 267.21875 581.5625 C 266.9375 580.972656 266.648438 580.34375 266.359375 579.71875 C 265.992188 579.910156 265.410156 580.027344 265.316406 580.316406 C 265.035156 581.136719 265.316406 581.882812 266.195312 582.199219 "/>
<path style=" stroke:none;fill-rule:nonzero;fill:rgb(35.289001%,53.729248%,63.529968%);fill-opacity:1;" d="M 47.324219 472.710938 C 47.253906 472.90625 47.527344 473.203125 47.652344 473.457031 C 47.933594 473.359375 48.203125 473.261719 48.480469 473.167969 C 48.316406 472.808594 48.152344 472.441406 47.988281 472.085938 C 47.757812 472.285156 47.410156 472.460938 47.324219 472.710938 "/>
<path style=" stroke:none;fill-rule:nonzero;fill:rgb(35.289001%,53.729248%,63.529968%);fill-opacity:1;" d="M 198.285156 527.261719 C 198.101562 526.925781 197.929688 526.578125 197.753906 526.230469 C 197.484375 526.414062 197.105469 526.546875 197.011719 526.789062 C 196.941406 526.964844 197.289062 527.28125 197.453125 527.542969 C 197.726562 527.445312 198.003906 527.359375 198.285156 527.261719 "/>
<path style=" stroke:none;fill-rule:nonzero;fill:rgb(35.289001%,53.729248%,63.529968%);fill-opacity:1;" d="M 135.863281 476.238281 C 135.621094 475.9375 135.429688 475.589844 135.140625 475.398438 C 135.035156 475.332031 134.453125 475.699219 134.472656 475.773438 C 134.558594 476.171875 134.78125 476.539062 134.964844 476.90625 C 135.199219 476.722656 135.449219 476.546875 135.863281 476.238281 "/>
<path style=" stroke:none;fill-rule:nonzero;fill:rgb(35.289001%,53.729248%,63.529968%);fill-opacity:1;" d="M 174.347656 424.46875 C 174.289062 424.25 174.234375 424.035156 174.175781 423.8125 C 173.960938 423.988281 173.730469 424.140625 173.546875 424.34375 C 173.5 424.402344 173.632812 424.617188 173.671875 424.75 C 173.894531 424.664062 174.125 424.566406 174.347656 424.46875 "/>
<path style=" stroke:none;fill-rule:nonzero;fill:rgb(35.289001%,53.729248%,63.529968%);fill-opacity:1;" d="M 191.824219 417.136719 C 191.785156 417.242188 191.882812 417.40625 191.921875 417.542969 C 192.046875 417.464844 192.160156 417.378906 192.277344 417.300781 C 192.238281 417.167969 192.199219 417.039062 192.152344 416.90625 C 192.035156 416.984375 191.851562 417.03125 191.824219 417.136719 "/>
<path style=" stroke:none;fill-rule:nonzero;fill:rgb(35.289001%,53.729248%,63.529968%);fill-opacity:1;" d="M 206.167969 451.648438 C 207.714844 450.285156 207.558594 448.808594 206.902344 447.261719 C 206.226562 448.25 205.773438 449.4375 204.042969 449.167969 C 203.027344 449.019531 202.863281 450.085938 202.933594 451.195312 C 204.042969 451.351562 205.125 451.503906 206.167969 451.648438 "/>
<path style=" stroke:none;fill-rule:nonzero;fill:rgb(35.289001%,53.729248%,63.529968%);fill-opacity:1;" d="M 67.261719 321.878906 C 66.992188 322.335938 67.105469 323.011719 66.992188 324.035156 C 68.082031 323.804688 68.789062 323.714844 69.414062 323.445312 C 69.539062 323.386719 69.484375 322.527344 69.28125 322.191406 C 68.796875 321.40625 67.636719 321.234375 67.261719 321.878906 "/>
<path style=" stroke:none;fill-rule:nonzero;fill:rgb(35.289001%,53.729248%,63.529968%);fill-opacity:1;" d="M 235.804688 334.972656 C 236.191406 335.03125 236.597656 334.925781 236.992188 334.867188 C 236.945312 334.585938 237.003906 334.171875 236.835938 334.035156 C 236.5 333.746094 236.035156 333.609375 235.40625 333.300781 C 235.667969 334.441406 235.699219 334.964844 235.804688 334.972656 "/>
<path style=" stroke:none;fill-rule:nonzero;fill:rgb(35.289001%,53.729248%,63.529968%);fill-opacity:1;" d="M 103.4375 420.035156 C 103.167969 420.324219 103.011719 420.722656 102.808594 421.078125 C 103.175781 421.261719 103.550781 421.445312 104.140625 421.734375 C 104.179688 421.109375 104.277344 420.683594 104.179688 420.324219 C 104.132812 420.160156 103.515625 419.957031 103.4375 420.035156 "/>
<path style=" stroke:none;fill-rule:nonzero;fill:rgb(35.289001%,53.729248%,63.529968%);fill-opacity:1;" d="M 110.226562 569.628906 C 106.539062 570.335938 106.539062 570.335938 107.582031 572.453125 C 108.519531 571.445312 109.378906 570.546875 110.226562 569.628906 "/>
<path style=" stroke:none;fill-rule:nonzero;fill:rgb(35.289001%,53.729248%,63.529968%);fill-opacity:1;" d="M 47.855469 199.667969 C 48.335938 198.933594 48.722656 198.121094 49.207031 197.175781 C 47.121094 197.339844 46.386719 198.007812 46.773438 199.234375 C 46.851562 199.484375 47.804688 199.746094 47.855469 199.667969 "/>
<path style=" stroke:none;fill-rule:nonzero;fill:rgb(35.289001%,53.729248%,63.529968%);fill-opacity:1;" d="M 66.710938 570.007812 C 66.75 570.308594 66.679688 570.722656 66.855469 570.875 C 67.027344 571.042969 67.445312 570.945312 67.742188 570.964844 C 67.6875 570.578125 67.628906 570.191406 67.578125 569.804688 C 67.289062 569.871094 67 569.941406 66.710938 570.007812 "/>
<path style=" stroke:none;fill-rule:nonzero;fill:rgb(35.289001%,53.729248%,63.529968%);fill-opacity:1;" d="M 71.898438 535.3125 C 71.628906 535.351562 71.25 535.292969 71.105469 535.445312 C 70.921875 535.640625 70.941406 536.015625 70.875 536.316406 C 71.269531 536.257812 71.65625 536.199219 72.050781 536.140625 C 72.003906 535.871094 71.957031 535.589844 71.898438 535.3125 "/>
<path style=" stroke:none;fill-rule:nonzero;fill:rgb(35.289001%,53.729248%,63.529968%);fill-opacity:1;" d="M 70.234375 505.609375 C 70.042969 505.457031 69.851562 505.3125 69.65625 505.167969 C 69.703125 505.300781 69.703125 505.496094 69.800781 505.5625 C 69.898438 505.640625 70.082031 505.601562 70.234375 505.609375 "/>
<path style=" stroke:none;fill-rule:nonzero;fill:rgb(35.289001%,53.729248%,63.529968%);fill-opacity:1;" d="M 107.746094 590.761719 C 107.871094 590.527344 107.601562 589.804688 107.347656 589.707031 C 107.050781 589.601562 106.429688 589.832031 106.257812 590.113281 C 106.09375 590.363281 106.355469 590.875 106.46875 591.464844 C 107.03125 591.175781 107.582031 591.070312 107.746094 590.761719 "/>
<path style=" stroke:none;fill-rule:nonzero;fill:rgb(35.289001%,53.729248%,63.529968%);fill-opacity:1;" d="M 19.910156 223.871094 C 20.257812 223.859375 20.808594 223.261719 20.835938 222.90625 C 20.855469 222.558594 20.382812 221.917969 20.023438 221.84375 C 18.21875 221.445312 16.644531 221.988281 14.316406 223.707031 C 17 223.8125 18.460938 223.929688 19.910156 223.871094 "/>
<path style=" stroke:none;fill-rule:nonzero;fill:rgb(35.289001%,53.729248%,63.529968%);fill-opacity:1;" d="M 24.410156 172.777344 C 24.429688 172.375 24.449219 171.96875 24.46875 171.5625 C 24.199219 171.609375 23.925781 171.667969 23.65625 171.714844 C 23.617188 171.996094 23.453125 172.382812 23.578125 172.539062 C 23.734375 172.722656 24.121094 172.710938 24.410156 172.777344 "/>
<path style=" stroke:none;fill-rule:nonzero;fill:rgb(35.289001%,53.729248%,63.529968%);fill-opacity:1;" d="M 112.796875 250.566406 C 114.003906 250.769531 115.269531 250.605469 116.515625 250.605469 C 116.554688 250.277344 116.59375 249.957031 116.632812 249.628906 C 115.453125 249.203125 114.285156 248.75 113.085938 248.382812 C 112.84375 248.316406 112.507812 248.566406 112.207031 248.683594 C 111.707031 249.53125 111.792969 250.394531 112.796875 250.566406 "/>
<path style=" stroke:none;fill-rule:nonzero;fill:rgb(35.289001%,53.729248%,63.529968%);fill-opacity:1;" d="M 16.652344 198.992188 C 17.195312 198.992188 17.726562 198.703125 18.265625 198.527344 C 18.121094 198.132812 18.035156 197.457031 17.804688 197.398438 C 17.300781 197.28125 16.722656 197.476562 15.890625 197.582031 C 16.265625 198.304688 16.460938 198.992188 16.652344 198.992188 "/>
<path style=" stroke:none;fill-rule:nonzero;fill:rgb(35.289001%,53.729248%,63.529968%);fill-opacity:1;" d="M 44.300781 429.03125 C 44.511719 428.894531 44.742188 428.789062 44.925781 428.625 C 44.964844 428.597656 44.851562 428.25 44.78125 428.25 C 44.542969 428.230469 44.289062 428.285156 44.039062 428.316406 C 44.125 428.546875 44.210938 428.789062 44.300781 429.03125 "/>
<path style=" stroke:none;fill-rule:nonzero;fill:rgb(35.289001%,53.729248%,63.529968%);fill-opacity:1;" d="M 128.773438 289.367188 C 128.765625 289.222656 128.792969 288.980469 128.734375 288.953125 C 128.492188 288.855469 128.222656 288.816406 127.972656 288.761719 C 128.097656 288.992188 128.214844 289.242188 128.378906 289.445312 C 128.417969 289.496094 128.640625 289.398438 128.773438 289.367188 "/>
<path style=" stroke:none;fill-rule:nonzero;fill:rgb(35.289001%,53.729248%,63.529968%);fill-opacity:1;" d="M 140.25 573.96875 C 140.09375 574.015625 139.960938 574.132812 139.816406 574.210938 C 139.816406 574.375 139.785156 574.558594 139.816406 574.710938 C 140.046875 575.699219 140.78125 576.171875 141.660156 575.832031 C 141.882812 575.746094 142.125 575.320312 142.09375 575.097656 C 141.949219 574.132812 141.1875 573.707031 140.25 573.96875 "/>
<path style=" stroke:none;fill-rule:nonzero;fill:rgb(35.289001%,53.729248%,63.529968%);fill-opacity:1;" d="M 89.46875 283.910156 C 90.078125 284.539062 91.101562 284.210938 91.324219 283.367188 C 91.429688 282.933594 91.351562 282.449219 91.371094 281.5625 C 90.300781 282.132812 89.691406 282.316406 89.3125 282.710938 C 89.128906 282.914062 89.238281 283.667969 89.46875 283.910156 "/>
<path style=" stroke:none;fill-rule:nonzero;fill:rgb(35.289001%,53.729248%,63.529968%);fill-opacity:1;" d="M 26.128906 557.609375 C 26.496094 557.746094 26.960938 557.601562 27.617188 557.582031 C 27.433594 557.003906 27.414062 556.472656 27.152344 556.277344 C 26.84375 556.046875 26.273438 555.96875 25.898438 556.085938 C 25.40625 556.25 25.550781 557.398438 26.128906 557.609375 "/>
<path style=" stroke:none;fill-rule:nonzero;fill:rgb(35.289001%,53.729248%,63.529968%);fill-opacity:1;" d="M 156.554688 562.492188 C 156.613281 562.363281 156.671875 562.238281 156.738281 562.113281 C 156.515625 562.007812 156.304688 561.890625 156.074219 561.8125 C 156.0625 561.804688 155.957031 562.054688 155.898438 562.179688 C 156.109375 562.289062 156.332031 562.394531 156.554688 562.492188 "/>
<path style=" stroke:none;fill-rule:nonzero;fill:rgb(35.289001%,53.729248%,63.529968%);fill-opacity:1;" d="M 101.234375 478.316406 C 101.523438 478.488281 102.289062 478.363281 102.5 478.105469 C 103.203125 477.222656 103.050781 475.71875 102.140625 475.097656 C 101.773438 474.847656 101.058594 475.089844 100.683594 475.109375 C 99.960938 476.304688 100.238281 477.71875 101.234375 478.316406 "/>
<path style=" stroke:none;fill-rule:nonzero;fill:rgb(35.289001%,53.729248%,63.529968%);fill-opacity:1;" d="M 27.480469 592.894531 C 26.855469 593.726562 25.261719 592.992188 25.222656 594.710938 C 25.53125 594.886719 25.792969 595.070312 26.082031 595.175781 C 26.378906 595.28125 26.710938 595.359375 27.027344 595.371094 C 28.410156 595.398438 28.523438 594.984375 27.480469 592.894531 "/>
<path style=" stroke:none;fill-rule:nonzero;fill:rgb(35.289001%,53.729248%,63.529968%);fill-opacity:1;" d="M 95.148438 197.164062 C 95.285156 197.15625 95.554688 197 95.542969 196.933594 C 95.410156 195.996094 95.273438 195.050781 95.03125 194.132812 C 95.003906 194.007812 94.472656 193.988281 94.164062 193.988281 C 94.058594 193.988281 93.941406 194.179688 93.863281 194.257812 C 94.144531 195.175781 94.40625 196.074219 94.714844 196.960938 C 94.753906 197.070312 94.992188 197.164062 95.148438 197.164062 "/>
<path style=" stroke:none;fill-rule:nonzero;fill:rgb(35.289001%,53.729248%,63.529968%);fill-opacity:1;" d="M 109.359375 458.324219 C 109.289062 458.230469 109.136719 458.210938 109.019531 458.152344 C 109 458.324219 108.980469 458.5 108.960938 458.671875 C 109.078125 458.664062 109.203125 458.664062 109.328125 458.652344 C 109.339844 458.539062 109.40625 458.394531 109.359375 458.324219 "/>
<path style=" stroke:none;fill-rule:nonzero;fill:rgb(35.289001%,53.729248%,63.529968%);fill-opacity:1;" d="M 179.46875 512.355469 C 179.527344 512.558594 180.019531 512.710938 180.328125 512.761719 C 181.765625 513.03125 182.058594 512.742188 183.023438 510.007812 C 181.914062 509.804688 180.851562 509.609375 179.089844 509.292969 C 179.257812 510.828125 179.292969 511.609375 179.46875 512.355469 "/>
<path style=" stroke:none;fill-rule:nonzero;fill:rgb(35.289001%,53.729248%,63.529968%);fill-opacity:1;" d="M 222.117188 286.671875 C 221.179688 286.527344 220.144531 286.355469 219.101562 286.191406 C 218.957031 286.527344 218.804688 286.855469 218.65625 287.195312 C 219.382812 287.707031 220.050781 288.488281 220.851562 288.671875 C 222.164062 288.980469 222.53125 288.132812 222.117188 286.671875 "/>
<path style=" stroke:none;fill-rule:nonzero;fill:rgb(35.289001%,53.729248%,63.529968%);fill-opacity:1;" d="M 190.085938 336.722656 C 189.996094 336.179688 189.609375 335.679688 189.339844 335.15625 C 188.945312 335.5625 188.296875 335.917969 188.210938 336.382812 C 188.144531 336.78125 188.703125 337.300781 189.148438 338.054688 C 189.640625 337.378906 190.132812 337.011719 190.085938 336.722656 "/>
<path style=" stroke:none;fill-rule:nonzero;fill:rgb(35.289001%,53.729248%,63.529968%);fill-opacity:1;" d="M 297.917969 373.96875 C 298.1875 374.035156 298.59375 373.515625 299.066406 373.15625 C 298.621094 372.671875 298.3125 372.34375 298.011719 372.015625 C 297.695312 372.34375 297.152344 372.652344 297.125 373 C 297.09375 373.320312 297.578125 373.898438 297.917969 373.96875 "/>
<path style=" stroke:none;fill-rule:nonzero;fill:rgb(35.289001%,53.729248%,63.529968%);fill-opacity:1;" d="M 226.078125 567.574219 C 225.796875 567.234375 225.527344 566.90625 225.082031 566.355469 C 224.792969 567.023438 224.628906 567.417969 224.453125 567.824219 C 224.753906 567.921875 225.0625 568.140625 225.332031 568.105469 C 225.601562 568.066406 225.824219 567.757812 226.078125 567.574219 "/>
<path style=" stroke:none;fill-rule:nonzero;fill:rgb(35.289001%,53.729248%,63.529968%);fill-opacity:1;" d="M 105.28125 355.234375 C 105.347656 354.964844 105.542969 354.625 105.445312 354.449219 C 105.347656 354.285156 104.953125 354.296875 104.691406 354.230469 C 104.613281 354.488281 104.421875 354.835938 104.519531 355 C 104.625 355.164062 105.019531 355.15625 105.28125 355.234375 "/>
<path style=" stroke:none;fill-rule:nonzero;fill:rgb(35.289001%,53.729248%,63.529968%);fill-opacity:1;" d="M 188.5 531.109375 C 188.402344 531.222656 188.210938 531.398438 188.238281 531.425781 C 188.382812 531.660156 188.566406 531.851562 188.742188 532.054688 C 188.867188 531.949219 188.984375 531.851562 189.109375 531.746094 C 188.90625 531.535156 188.703125 531.320312 188.5 531.109375 "/>
<path style=" stroke:none;fill-rule:nonzero;fill:rgb(35.289001%,53.729248%,63.529968%);fill-opacity:1;" d="M 132.203125 428.585938 C 132.339844 428.394531 132.542969 428.160156 132.523438 427.96875 C 132.503906 427.804688 132.203125 427.679688 132 427.523438 C 131.933594 427.851562 131.855469 428.121094 131.847656 428.394531 C 131.847656 428.460938 132.195312 428.605469 132.203125 428.585938 "/>
<path style=" stroke:none;fill-rule:nonzero;fill:rgb(35.289001%,53.729248%,63.529968%);fill-opacity:1;" d="M 209.917969 502.875 C 209.847656 503.003906 209.714844 503.136719 209.722656 503.253906 C 209.722656 503.378906 209.878906 503.496094 209.964844 503.609375 C 209.953125 503.371094 209.933594 503.128906 209.917969 502.875 "/>
<path style=" stroke:none;fill-rule:nonzero;fill:rgb(35.289001%,53.729248%,63.529968%);fill-opacity:1;" d="M 240.644531 293.628906 C 240.527344 293.523438 240.421875 293.417969 240.304688 293.3125 C 240.246094 293.386719 240.191406 293.464844 240.132812 293.542969 C 240.246094 293.601562 240.382812 293.667969 240.519531 293.746094 C 240.558594 293.707031 240.605469 293.667969 240.644531 293.628906 "/>
<path style=" stroke:none;fill-rule:nonzero;fill:rgb(35.289001%,53.729248%,63.529968%);fill-opacity:1;" d="M 98.597656 411.957031 C 98.492188 411.609375 97.96875 411.175781 97.621094 411.167969 C 97.265625 411.15625 96.90625 411.628906 96.539062 411.890625 C 96.917969 412.316406 97.292969 412.75 97.882812 413.425781 C 98.269531 412.683594 98.683594 412.25 98.597656 411.957031 "/>
<path style=" stroke:none;fill-rule:nonzero;fill:rgb(35.289001%,53.729248%,63.529968%);fill-opacity:1;" d="M 244.902344 379.851562 C 245.851562 379.378906 246.59375 378.507812 247.519531 377.726562 C 246.128906 376.75 244.941406 376.265625 243.734375 377.183594 C 243.320312 377.515625 242.980469 378.316406 243.066406 378.835938 C 243.203125 379.753906 244.132812 380.238281 244.902344 379.851562 "/>
<path style=" stroke:none;fill-rule:nonzero;fill:rgb(35.289001%,53.729248%,63.529968%);fill-opacity:1;" d="M 201.175781 448.046875 C 201.484375 447.699219 201.898438 447.332031 201.851562 447.253906 C 201.609375 446.867188 201.25 446.546875 200.921875 446.210938 C 200.671875 446.546875 200.179688 446.933594 200.226562 447.214844 C 200.296875 447.542969 200.835938 447.773438 201.175781 448.046875 "/>
<path style=" stroke:none;fill-rule:nonzero;fill:rgb(35.289001%,53.729248%,63.529968%);fill-opacity:1;" d="M 233.097656 413.699219 C 233.207031 413.425781 233.429688 413.117188 233.351562 412.894531 C 233.28125 412.730469 232.828125 412.671875 232.539062 412.566406 C 232.441406 412.835938 232.210938 413.148438 232.289062 413.378906 C 232.347656 413.535156 232.820312 413.589844 233.097656 413.699219 "/>
<path style=" stroke:none;fill-rule:nonzero;fill:rgb(35.289001%,53.729248%,63.529968%);fill-opacity:1;" d="M 179.574219 416.402344 C 180.386719 416.171875 181.429688 416.007812 181.199219 415.070312 C 180.898438 413.84375 179.980469 414.605469 179.304688 414.933594 C 178.773438 415.183594 178.242188 415.457031 177.757812 415.699219 C 178.125 417.203125 178.800781 416.625 179.574219 416.402344 "/>
<path style=" stroke:none;fill-rule:nonzero;fill:rgb(35.289001%,53.729248%,63.529968%);fill-opacity:1;" d="M 157.453125 584.085938 C 156.71875 583.640625 155.984375 583.195312 155.25 582.75 C 155.125 582.933594 155.011719 583.117188 154.882812 583.3125 C 155.589844 583.792969 156.292969 584.289062 156.992188 584.78125 C 157.15625 584.546875 157.300781 584.316406 157.453125 584.085938 "/>
<path style=" stroke:none;fill-rule:nonzero;fill:rgb(35.289001%,53.729248%,63.529968%);fill-opacity:1;" d="M 34.003906 422.945312 C 34.195312 422.730469 34.523438 422.519531 34.535156 422.296875 C 34.542969 422.054688 34.253906 421.804688 34.089844 421.550781 C 33.859375 421.851562 33.605469 422.140625 33.421875 422.46875 C 33.402344 422.507812 33.800781 422.78125 34.003906 422.945312 "/>
<path style=" stroke:none;fill-rule:nonzero;fill:rgb(35.289001%,53.729248%,63.529968%);fill-opacity:1;" d="M 111.589844 598.296875 C 111.378906 598.5 110.953125 598.800781 111 598.90625 C 111.15625 599.292969 111.464844 599.621094 111.742188 599.996094 C 112.035156 599.648438 112.429688 599.320312 112.382812 599.226562 C 112.199219 598.875 111.871094 598.597656 111.589844 598.296875 "/>
<path style=" stroke:none;fill-rule:nonzero;fill:rgb(35.289001%,53.729248%,63.529968%);fill-opacity:1;" d="M 67.761719 559.96875 C 68.074219 560.179688 68.351562 560.472656 68.691406 560.585938 C 68.824219 560.625 69.085938 560.269531 69.289062 560.09375 C 68.988281 559.824219 68.691406 559.542969 68.382812 559.253906 C 68.109375 559.574219 67.9375 559.765625 67.761719 559.96875 "/>
<path style=" stroke:none;fill-rule:nonzero;fill:rgb(35.289001%,53.729248%,63.529968%);fill-opacity:1;" d="M 257.027344 409.9375 C 257.21875 409.824219 257.230469 409.425781 257.324219 409.148438 C 257.015625 409.089844 256.679688 408.925781 256.429688 409.019531 C 256.273438 409.078125 256.273438 409.535156 256.195312 409.804688 C 256.484375 409.863281 256.84375 410.054688 257.027344 409.9375 "/>
<path style=" stroke:none;fill-rule:nonzero;fill:rgb(35.289001%,53.729248%,63.529968%);fill-opacity:1;" d="M 49.527344 390.75 C 49.3125 390.761719 49.101562 390.78125 48.898438 390.789062 C 49.003906 390.835938 49.109375 390.894531 49.214844 390.945312 C 49.324219 390.875 49.417969 390.816406 49.527344 390.75 "/>
<path style=" stroke:none;fill-rule:nonzero;fill:rgb(35.289001%,53.729248%,63.529968%);fill-opacity:1;" d="M 113.230469 548.5 C 112.777344 548.238281 112.023438 549.117188 112.257812 549.6875 C 112.402344 550.054688 112.804688 550.316406 113.261719 550.78125 C 113.570312 550.257812 113.957031 549.902344 113.925781 549.5625 C 113.886719 549.1875 113.570312 548.703125 113.230469 548.5 "/>
<path style=" stroke:none;fill-rule:nonzero;fill:rgb(35.289001%,53.729248%,63.529968%);fill-opacity:1;" d="M 94.222656 382.566406 C 94.394531 382.808594 94.578125 383.039062 94.753906 383.28125 C 95.050781 382.984375 95.339844 382.683594 95.632812 382.394531 C 95.273438 382.179688 94.917969 381.957031 94.558594 381.746094 C 94.445312 382.027344 94.335938 382.296875 94.222656 382.566406 "/>
<path style=" stroke:none;fill-rule:nonzero;fill:rgb(35.289001%,53.729248%,63.529968%);fill-opacity:1;" d="M 219.605469 470.46875 C 219.835938 470.605469 220.070312 470.730469 220.300781 470.875 C 220.511719 470.703125 220.890625 470.519531 220.871094 470.375 C 220.851562 470.132812 220.570312 469.910156 220.40625 469.679688 C 220.136719 469.9375 219.867188 470.210938 219.605469 470.46875 "/>
<path style=" stroke:none;fill-rule:nonzero;fill:rgb(35.289001%,53.729248%,63.529968%);fill-opacity:1;" d="M 159.800781 440.027344 C 159.839844 439.765625 159.996094 439.398438 159.886719 439.273438 C 159.714844 439.070312 159.355469 439.019531 159.078125 438.90625 C 159.046875 439.214844 158.914062 439.5625 159.027344 439.804688 C 159.105469 439.96875 159.53125 439.957031 159.800781 440.027344 "/>
<path style=" stroke:none;fill-rule:nonzero;fill:rgb(35.289001%,53.729248%,63.529968%);fill-opacity:1;" d="M 249.9375 462.210938 C 249.984375 462.316406 250.207031 462.335938 250.324219 462.375 C 251.027344 461.71875 251.722656 461.089844 252.390625 460.433594 C 252.476562 460.355469 252.449219 460.085938 252.378906 459.957031 C 252.3125 459.832031 252.0625 459.660156 252.003906 459.699219 C 251.222656 460.21875 250.417969 460.761719 249.695312 461.371094 C 249.597656 461.4375 249.8125 461.9375 249.9375 462.210938 "/>
<path style=" stroke:none;fill-rule:nonzero;fill:rgb(35.289001%,53.729248%,63.529968%);fill-opacity:1;" d="M 277.660156 447.214844 C 277.890625 447.089844 278.347656 446.90625 278.335938 446.828125 C 278.25 446.507812 278.046875 446.210938 277.882812 445.910156 C 277.679688 446.085938 277.464844 446.257812 277.265625 446.433594 C 277.390625 446.691406 277.523438 446.953125 277.660156 447.214844 "/>
<path style=" stroke:none;fill-rule:nonzero;fill:rgb(35.289001%,53.729248%,63.529968%);fill-opacity:1;" d="M 168.957031 401.445312 C 168.957031 401.445312 168.910156 401.496094 168.910156 401.496094 C 168.949219 401.523438 168.988281 401.5625 169.015625 401.589844 C 168.996094 401.542969 168.976562 401.496094 168.957031 401.445312 "/>
<path style=" stroke:none;fill-rule:nonzero;fill:rgb(35.289001%,53.729248%,63.529968%);fill-opacity:1;" d="M 201.53125 448.191406 L 201.175781 448.046875 L 201.175781 448.394531 Z M 201.53125 448.191406 "/>
<path style=" stroke:none;fill-rule:nonzero;fill:rgb(35.289001%,53.729248%,63.529968%);fill-opacity:1;" d="M 277.390625 319.570312 C 277.523438 318.652344 277.320312 317.832031 276.296875 317.640625 C 275.304688 317.445312 274.734375 317.949219 274.722656 318.992188 C 275.488281 319.386719 276.230469 319.773438 277.226562 320.277344 C 277.3125 319.898438 277.359375 319.734375 277.390625 319.570312 "/>
<path style=" stroke:none;fill-rule:nonzero;fill:rgb(35.289001%,53.729248%,63.529968%);fill-opacity:1;" d="M 112.1875 255.851562 C 112.496094 255.5625 112.640625 255.109375 112.855469 254.722656 C 112.457031 254.683594 112.074219 254.644531 111.472656 254.585938 C 111.40625 255.050781 111.359375 255.417969 111.308594 255.785156 C 111.609375 255.8125 112.054688 255.988281 112.1875 255.851562 "/>
<path style=" stroke:none;fill-rule:nonzero;fill:rgb(35.289001%,53.729248%,63.529968%);fill-opacity:1;" d="M 194.527344 397.097656 C 194.566406 397.03125 194.363281 396.730469 194.304688 396.742188 C 194.0625 396.789062 193.84375 396.90625 193.609375 397 C 193.753906 397.253906 193.890625 397.503906 194.027344 397.753906 C 194.199219 397.542969 194.402344 397.339844 194.527344 397.097656 "/>
<path style=" stroke:none;fill-rule:nonzero;fill:rgb(35.289001%,53.729248%,63.529968%);fill-opacity:1;" d="M 214.679688 313.070312 C 214.523438 312.914062 214.359375 312.75 214.195312 312.597656 C 213.800781 312.722656 213.296875 312.75 213.007812 313.011719 C 212.707031 313.300781 212.601562 313.804688 212.398438 314.210938 C 212.792969 314.140625 213.230469 314.160156 213.566406 313.988281 C 213.984375 313.765625 214.3125 313.386719 214.679688 313.070312 "/>
<path style=" stroke:none;fill-rule:nonzero;fill:rgb(35.289001%,53.729248%,63.529968%);fill-opacity:1;" d="M 255.585938 429.863281 C 255.472656 429.8125 255.363281 429.765625 255.257812 429.726562 C 255.210938 429.851562 255.171875 429.976562 255.132812 430.09375 C 255.199219 430.210938 255.269531 430.316406 255.335938 430.421875 C 255.421875 430.230469 255.5 430.046875 255.585938 429.863281 "/>
<path style=" stroke:none;fill-rule:nonzero;fill:rgb(35.289001%,53.729248%,63.529968%);fill-opacity:1;" d="M 172.5625 287.976562 C 172.609375 287.863281 172.503906 287.6875 172.457031 287.542969 C 172.261719 287.679688 172.058594 287.804688 171.867188 287.9375 C 171.980469 288.035156 172.097656 288.132812 172.214844 288.238281 C 172.328125 288.152344 172.523438 288.09375 172.5625 287.976562 "/>
<path style=" stroke:none;fill-rule:nonzero;fill:rgb(35.289001%,53.729248%,63.529968%);fill-opacity:1;" d="M 256.84375 501.359375 C 256.976562 501.425781 257.460938 501.15625 257.507812 500.984375 C 257.691406 500.269531 256.785156 499.300781 256.109375 499.484375 C 255.914062 499.542969 255.808594 499.929688 255.5 500.421875 C 255.90625 500.722656 256.339844 501.097656 256.84375 501.359375 "/>
<path style=" stroke:none;fill-rule:nonzero;fill:rgb(35.289001%,53.729248%,63.529968%);fill-opacity:1;" d="M 161.773438 556.808594 C 161.761719 556.742188 161.414062 556.730469 161.222656 556.691406 C 161.25 556.972656 161.261719 557.261719 161.328125 557.535156 C 161.335938 557.589844 161.578125 557.589844 161.703125 557.621094 C 161.734375 557.351562 161.808594 557.070312 161.773438 556.808594 "/>
<path style=" stroke:none;fill-rule:nonzero;fill:rgb(35.289001%,53.729248%,63.529968%);fill-opacity:1;" d="M 178.359375 431.050781 C 178.378906 431.011719 178.40625 430.964844 178.425781 430.925781 C 178.425781 430.925781 178.367188 430.894531 178.367188 430.894531 C 178.367188 430.945312 178.359375 431 178.359375 431.050781 "/>
<path style=" stroke:none;fill-rule:nonzero;fill:rgb(35.289001%,53.729248%,63.529968%);fill-opacity:1;" d="M 119.539062 307.929688 C 120.148438 306.644531 120.410156 305.195312 120.882812 303.511719 C 119.984375 303.144531 119.007812 302.75 117.675781 302.199219 C 117.492188 304.539062 117.335938 306.414062 117.144531 308.796875 C 118.253906 308.421875 119.335938 308.382812 119.539062 307.929688 "/>
<path style=" stroke:none;fill-rule:nonzero;fill:rgb(35.289001%,53.729248%,63.529968%);fill-opacity:1;" d="M 88.917969 225.660156 C 89.972656 225.753906 91.035156 224.886719 90.984375 223.609375 C 90.570312 223.292969 90.019531 222.644531 89.324219 222.402344 C 88.453125 222.09375 87.605469 223.195312 87.699219 224.355469 C 87.757812 225.097656 88.144531 225.589844 88.917969 225.660156 "/>
<path style=" stroke:none;fill-rule:nonzero;fill:rgb(35.289001%,53.729248%,63.529968%);fill-opacity:1;" d="M 71.996094 187.917969 C 72.023438 187.386719 71.722656 186.847656 71.460938 185.949219 C 70.835938 186.613281 70.246094 186.980469 70.292969 187.234375 C 70.398438 187.792969 70.835938 188.296875 71.125 188.816406 C 71.433594 188.519531 71.964844 188.238281 71.996094 187.917969 "/>
<path style=" stroke:none;fill-rule:nonzero;fill:rgb(35.289001%,53.729248%,63.529968%);fill-opacity:1;" d="M 108.710938 272.945312 C 108.777344 272.847656 108.71875 272.671875 108.71875 272.527344 C 108.585938 272.5 108.449219 272.460938 108.316406 272.421875 C 108.316406 272.644531 108.324219 272.867188 108.335938 273.089844 C 108.460938 273.039062 108.652344 273.03125 108.710938 272.945312 "/>
<path style=" stroke:none;fill-rule:nonzero;fill:rgb(35.289001%,53.729248%,63.529968%);fill-opacity:1;" d="M 192.75 296.140625 C 192.769531 296.015625 192.800781 295.878906 192.828125 295.746094 C 192.625 295.773438 192.433594 295.804688 192.230469 295.824219 C 192.296875 295.949219 192.335938 296.101562 192.433594 296.191406 C 192.480469 296.238281 192.632812 296.160156 192.75 296.140625 "/>
<path style=" stroke:none;fill-rule:nonzero;fill:rgb(35.289001%,53.729248%,63.529968%);fill-opacity:1;" d="M 36.621094 171.097656 C 36.386719 170.75 36.183594 170.382812 35.894531 170.101562 C 35.835938 170.042969 35.21875 170.375 35.230469 170.488281 C 35.269531 170.867188 35.480469 171.214844 35.636719 171.601562 C 36.078125 171.367188 36.351562 171.234375 36.621094 171.097656 "/>
<path style=" stroke:none;fill-rule:nonzero;fill:rgb(35.289001%,53.729248%,63.529968%);fill-opacity:1;" d="M 270.773438 552.925781 C 270.667969 552.828125 270.492188 552.617188 270.453125 552.636719 C 270.242188 552.78125 270.066406 552.964844 269.863281 553.136719 C 269.972656 553.242188 270.066406 553.359375 270.171875 553.464844 C 270.375 553.292969 270.578125 553.109375 270.773438 552.925781 "/>
<path style=" stroke:none;fill-rule:nonzero;fill:rgb(35.289001%,53.729248%,63.529968%);fill-opacity:1;" d="M 347.289062 460.578125 C 347.558594 460.414062 347.972656 460.101562 347.945312 459.902344 C 347.855469 459.136719 347.617188 458.382812 347.25 456.886719 C 345.703125 457.804688 344.777344 458.355469 343.800781 458.925781 C 345.65625 461.15625 346.03125 461.332031 347.289062 460.578125 "/>
<path style=" stroke:none;fill-rule:nonzero;fill:rgb(35.289001%,53.729248%,63.529968%);fill-opacity:1;" d="M 436.5625 586.820312 C 437.566406 585.851562 436.957031 585.109375 435.441406 584.015625 C 434.921875 585.378906 434.574219 586.269531 434.265625 587.070312 C 435.363281 588.054688 436.058594 587.3125 436.5625 586.820312 "/>
<path style=" stroke:none;fill-rule:nonzero;fill:rgb(35.289001%,53.729248%,63.529968%);fill-opacity:1;" d="M 391.691406 558.953125 C 391.789062 558.355469 392.023438 557.746094 391.925781 557.175781 C 391.886719 556.925781 391.199219 556.78125 390.390625 556.375 C 390.445312 557.3125 390.359375 557.929688 390.574219 558.414062 C 390.699219 558.703125 391.308594 558.78125 391.691406 558.953125 "/>
<path style=" stroke:none;fill-rule:nonzero;fill:rgb(35.289001%,53.729248%,63.529968%);fill-opacity:1;" d="M 379.726562 589.8125 C 379.394531 589.582031 379.085938 589.292969 378.71875 589.148438 C 378.625 589.109375 378.160156 589.554688 378.199219 589.699219 C 378.304688 590.066406 378.574219 590.402344 378.914062 590.953125 C 379.261719 590.453125 379.492188 590.132812 379.726562 589.8125 "/>
<path style=" stroke:none;fill-rule:nonzero;fill:rgb(35.289001%,53.729248%,63.529968%);fill-opacity:1;" d="M 300.023438 521.207031 C 300.0625 521.023438 299.75 520.769531 299.597656 520.546875 C 299.375 520.691406 299 520.828125 298.96875 521.011719 C 298.941406 521.207031 299.238281 521.464844 299.382812 521.6875 C 299.605469 521.535156 299.984375 521.40625 300.023438 521.207031 "/>
<path style=" stroke:none;fill-rule:nonzero;fill:rgb(35.289001%,53.729248%,63.529968%);fill-opacity:1;" d="M 383.5 505.40625 C 383.964844 505.097656 383.898438 504.886719 383.347656 504.875 C 383.222656 504.867188 383.085938 505.003906 382.949219 505.078125 C 382.988281 505.195312 382.988281 505.386719 383.058594 505.417969 C 383.191406 505.464844 383.394531 505.476562 383.5 505.40625 "/>
<path style=" stroke:none;fill-rule:nonzero;fill:rgb(35.289001%,53.729248%,63.529968%);fill-opacity:1;" d="M 243.445312 590.800781 C 243.484375 590.925781 243.492188 591.117188 243.589844 591.175781 C 243.675781 591.242188 243.851562 591.1875 243.996094 591.1875 C 243.929688 590.972656 243.851562 590.761719 243.78125 590.546875 C 243.667969 590.636719 243.550781 590.710938 243.445312 590.800781 "/>
<path style=" stroke:none;fill-rule:nonzero;fill:rgb(35.289001%,53.729248%,63.529968%);fill-opacity:1;" d="M 416.597656 534.546875 L 416.34375 534.742188 L 416.671875 534.761719 Z M 416.597656 534.546875 "/>
<path style=" stroke:none;fill-rule:nonzero;fill:rgb(35.289001%,53.729248%,63.529968%);fill-opacity:1;" d="M 158.070312 347.542969 C 157.957031 347.070312 157.28125 346.488281 156.796875 346.429688 C 156.449219 346.394531 156.023438 347.164062 155.394531 347.832031 C 156.207031 348.316406 156.738281 348.886719 157.191406 348.835938 C 157.558594 348.796875 158.167969 347.910156 158.070312 347.542969 "/>
<path style=" stroke:none;fill-rule:nonzero;fill:rgb(35.289001%,53.729248%,63.529968%);fill-opacity:1;" d="M 371.542969 444.539062 C 371.515625 444.421875 370.820312 444.324219 370.78125 444.402344 C 370.605469 444.761719 370.546875 445.1875 370.453125 445.582031 C 370.75 445.621094 371.050781 445.660156 371.542969 445.71875 C 371.5625 445.3125 371.628906 444.894531 371.542969 444.539062 "/>
<path style=" stroke:none;fill-rule:nonzero;fill:rgb(35.289001%,53.729248%,63.529968%);fill-opacity:1;" d="M 245.859375 576.355469 C 245.859375 576.335938 245.859375 576.316406 245.859375 576.296875 C 245.78125 576.324219 245.707031 576.34375 245.65625 576.316406 C 245.726562 576.335938 245.792969 576.34375 245.859375 576.355469 "/>
<path style=" stroke:none;fill-rule:nonzero;fill:rgb(35.289001%,53.729248%,63.529968%);fill-opacity:1;" d="M 407.746094 526.179688 C 407.679688 526.007812 407.621094 525.824219 407.554688 525.648438 C 407.457031 525.71875 407.351562 525.792969 407.253906 525.863281 C 407.292969 525.976562 407.304688 526.140625 407.378906 526.191406 C 407.46875 526.238281 407.621094 526.191406 407.746094 526.179688 "/>
<path style=" stroke:none;fill-rule:nonzero;fill:rgb(35.289001%,53.729248%,63.529968%);fill-opacity:1;" d="M 7.320312 370.441406 C 6.328125 369.707031 5.371094 368.90625 4.316406 368.257812 C 4.019531 368.074219 3.3125 368.179688 3.042969 368.433594 C 2.859375 368.605469 2.925781 369.425781 3.167969 369.628906 C 4.242188 370.585938 5.515625 371.117188 7.320312 370.441406 "/>
<path style=" stroke:none;fill-rule:nonzero;fill:rgb(35.289001%,53.729248%,63.529968%);fill-opacity:1;" d="M 118.660156 498.238281 C 118.351562 498.433594 118.253906 498.984375 117.878906 499.746094 C 118.726562 499.851562 119.328125 500.035156 119.859375 499.921875 C 120.082031 499.871094 120.359375 499.097656 120.253906 498.769531 C 120.011719 498.027344 119.308594 497.832031 118.660156 498.238281 "/>
<path style=" stroke:none;fill-rule:nonzero;fill:rgb(35.289001%,53.729248%,63.529968%);fill-opacity:1;" d="M 354.328125 596.132812 C 354.492188 595.84375 354.792969 595.535156 354.890625 595.253906 C 354.878906 595.234375 354.871094 595.207031 354.859375 595.1875 C 354.820312 595.058594 354.792969 594.933594 354.765625 594.808594 C 354.550781 594.636719 354.175781 594.492188 353.921875 594.324219 C 353.738281 594.761719 353.507812 595.175781 353.410156 595.628906 C 353.390625 595.707031 353.914062 595.910156 354.328125 596.132812 "/>
<path style=" stroke:none;fill-rule:nonzero;fill:rgb(35.289001%,53.729248%,63.529968%);fill-opacity:1;" d="M 30.410156 436.894531 C 30.226562 436.671875 30.042969 436.460938 29.859375 436.25 C 29.578125 436.519531 29.296875 436.800781 29.027344 437.070312 C 29.289062 437.222656 29.558594 437.523438 29.789062 437.496094 C 30.023438 437.476562 30.207031 437.109375 30.410156 436.894531 "/>
<path style=" stroke:none;fill-rule:nonzero;fill:rgb(35.289001%,53.729248%,63.529968%);fill-opacity:1;" d="M 103.261719 529.476562 C 103.039062 529.640625 102.847656 529.84375 102.652344 530.035156 C 102.855469 530.210938 103.058594 530.382812 103.273438 530.558594 C 103.378906 530.304688 103.535156 530.054688 103.589844 529.785156 C 103.609375 529.707031 103.292969 529.457031 103.261719 529.476562 "/>
<path style=" stroke:none;fill-rule:nonzero;fill:rgb(35.289001%,53.729248%,63.529968%);fill-opacity:1;" d="M 21.125 554.820312 C 20.535156 555.445312 20.1875 556.199219 19.917969 556.90625 C 20.789062 556.894531 21.648438 556.964844 22.429688 557.195312 C 22.507812 557.214844 22.585938 557.253906 22.652344 557.273438 C 23.222656 556.25 23.917969 555.871094 26.109375 554.691406 C 23.25 553.425781 23.25 553.425781 21.28125 550.722656 C 18.972656 552.238281 22.566406 553.3125 21.125 554.820312 "/>
<path style=" stroke:none;fill-rule:nonzero;fill:rgb(35.289001%,53.729248%,63.529968%);fill-opacity:1;" d="M 31.433594 358.46875 C 31.367188 358.769531 31.453125 359.332031 31.644531 359.496094 C 32.726562 360.433594 34.011719 360.964844 35.808594 360.277344 C 34.8125 359.550781 33.859375 358.761719 32.804688 358.132812 C 32.351562 358.238281 31.898438 358.355469 31.433594 358.46875 "/>
<path style=" stroke:none;fill-rule:nonzero;fill:rgb(35.289001%,53.729248%,63.529968%);fill-opacity:1;" d="M 418.082031 559.292969 C 418.605469 558.730469 419.109375 558.140625 419.511719 557.496094 C 419.621094 557.320312 419.417969 556.703125 419.292969 556.675781 C 418.886719 556.597656 418.230469 556.546875 418.054688 556.78125 C 417.609375 557.371094 417.378906 558.125 417.058594 558.800781 C 417.601562 559.058594 418.027344 559.351562 418.082031 559.292969 "/>
<path style=" stroke:none;fill-rule:nonzero;fill:rgb(35.289001%,53.729248%,63.529968%);fill-opacity:1;" d="M 145.988281 482.730469 C 145.371094 482.507812 144.683594 483.523438 144.800781 484.558594 C 144.820312 484.828125 145.167969 485.050781 145.359375 485.300781 C 145.792969 484.808594 146.230469 484.316406 146.625 483.863281 C 146.605469 483.726562 146.585938 483.589844 146.578125 483.457031 C 146.324219 483.078125 146.191406 482.800781 145.988281 482.730469 "/>
<path style=" stroke:none;fill-rule:nonzero;fill:rgb(35.289001%,53.729248%,63.529968%);fill-opacity:1;" d="M 6.9375 496.296875 C 6.984375 496.25 7.023438 496.199219 7.070312 496.152344 C 7.003906 496.054688 6.945312 495.976562 6.886719 495.890625 C 6.898438 496.027344 6.917969 496.160156 6.9375 496.296875 "/>
<path style=" stroke:none;fill-rule:nonzero;fill:rgb(35.289001%,53.729248%,63.529968%);fill-opacity:1;" d="M 145.5625 383.667969 C 145.824219 383.078125 146.09375 382.441406 146.363281 381.804688 C 145.988281 381.660156 145.515625 381.300781 145.234375 381.417969 C 144.433594 381.753906 144.066406 382.460938 144.402344 383.320312 C 144.480469 383.496094 144.953125 383.503906 145.5625 383.667969 "/>
<path style=" stroke:none;fill-rule:nonzero;fill:rgb(35.289001%,53.729248%,63.529968%);fill-opacity:1;" d="M 138.289062 497.542969 C 138.578125 496.992188 139.003906 496.546875 138.925781 496.210938 C 138.859375 495.890625 138.261719 495.699219 137.894531 495.4375 C 137.632812 495.832031 137.148438 496.230469 137.167969 496.605469 C 137.179688 496.894531 137.804688 497.15625 138.289062 497.542969 "/>
<path style=" stroke:none;fill-rule:nonzero;fill:rgb(35.289001%,53.729248%,63.529968%);fill-opacity:1;" d="M 52.460938 444.964844 C 52.769531 444.710938 52.945312 444.316406 53.300781 443.765625 C 52.625 443.679688 52.21875 443.628906 51.804688 443.582031 C 51.765625 443.957031 51.652344 444.363281 51.726562 444.710938 C 51.757812 444.855469 52.355469 445.058594 52.460938 444.964844 "/>
<path style=" stroke:none;fill-rule:nonzero;fill:rgb(35.289001%,53.729248%,63.529968%);fill-opacity:1;" d="M 137.160156 214.390625 C 137.140625 214.277344 136.472656 214.082031 136.425781 214.152344 C 136.203125 214.480469 136.078125 214.894531 135.914062 215.273438 C 136.210938 215.328125 136.503906 215.398438 137.015625 215.492188 C 137.070312 215.117188 137.207031 214.75 137.160156 214.390625 "/>
<path style=" stroke:none;fill-rule:nonzero;fill:rgb(35.289001%,53.729248%,63.529968%);fill-opacity:1;" d="M 268.300781 599.738281 C 268.339844 599.609375 268.367188 599.484375 268.414062 599.359375 C 268.210938 599.320312 268.011719 599.28125 267.808594 599.253906 C 267.835938 599.117188 267.835938 598.914062 267.914062 598.886719 C 268.125 598.789062 268.359375 598.761719 268.578125 598.710938 C 268.597656 598.625 268.617188 598.539062 268.617188 598.453125 C 268.617188 598.335938 268.117188 598.210938 267.84375 598.085938 C 267.691406 598.460938 267.46875 598.839844 267.429688 599.226562 C 267.421875 599.339844 267.902344 599.515625 268.300781 599.738281 "/>
<path style=" stroke:none;fill-rule:nonzero;fill:rgb(35.289001%,53.729248%,63.529968%);fill-opacity:1;" d="M 379.414062 539.628906 C 379.300781 539.582031 379.195312 539.542969 379.085938 539.496094 C 379.039062 539.621094 379 539.746094 378.953125 539.863281 C 379.027344 539.976562 379.097656 540.085938 379.164062 540.191406 C 379.242188 540.007812 379.328125 539.8125 379.414062 539.628906 "/>
<path style=" stroke:none;fill-rule:nonzero;fill:rgb(35.289001%,53.729248%,63.529968%);fill-opacity:1;" d="M 417.53125 544.820312 C 417.332031 544.886719 417.136719 544.945312 416.933594 545.011719 C 417.050781 545.03125 417.164062 545.058594 417.28125 545.078125 C 417.367188 544.992188 417.445312 544.90625 417.53125 544.820312 "/>
<path style=" stroke:none;fill-rule:nonzero;fill:rgb(35.289001%,53.729248%,63.529968%);fill-opacity:1;" d="M 10.789062 594.675781 C 10.34375 595.273438 10.113281 596.015625 9.804688 596.691406 C 10.335938 596.964844 10.761719 597.242188 10.820312 597.1875 C 11.339844 596.625 11.84375 596.035156 12.25 595.390625 C 12.363281 595.214844 12.152344 594.597656 12.027344 594.566406 C 11.621094 594.492188 10.953125 594.441406 10.789062 594.675781 "/>
<path style=" stroke:none;fill-rule:nonzero;fill:rgb(35.289001%,53.729248%,63.529968%);fill-opacity:1;" d="M -0.320312 445.203125 C 1.003906 444.21875 1.167969 443.4375 0.375 441.910156 C 0 441.195312 -0.40625 440.5 -0.734375 439.917969 C -2.085938 439.570312 -3.1875 439.535156 -4.164062 440.34375 C -3.574219 441.824219 -3.015625 443.273438 -2.40625 444.703125 C -2.078125 445.484375 -1.003906 445.707031 -0.320312 445.203125 "/>
<path style=" stroke:none;fill-rule:nonzero;fill:rgb(35.289001%,53.729248%,63.529968%);fill-opacity:1;" d="M 256.300781 546.691406 C 256.097656 546.472656 255.90625 546.257812 255.703125 546.035156 C 255.441406 546.363281 255.179688 546.691406 254.921875 547.011719 C 255.296875 547.1875 255.675781 547.359375 256.050781 547.542969 C 256.128906 547.253906 256.214844 546.972656 256.300781 546.691406 "/>
<path style=" stroke:none;fill-rule:nonzero;fill:rgb(35.289001%,53.729248%,63.529968%);fill-opacity:1;" d="M 342.71875 540.179688 C 342.429688 540.074219 342.070312 539.8125 341.859375 539.902344 C 341.511719 540.035156 341.257812 540.402344 340.796875 540.847656 C 341.453125 541.097656 341.847656 541.253906 342.253906 541.40625 C 342.410156 541.003906 342.5625 540.585938 342.71875 540.179688 "/>
<path style=" stroke:none;fill-rule:nonzero;fill:rgb(35.289001%,53.729248%,63.529968%);fill-opacity:1;" d="M 29.394531 496.074219 C 29.859375 495.832031 30.128906 495.214844 30.765625 494.394531 C 29.722656 494.015625 29.085938 493.707031 28.410156 493.601562 C 28.273438 493.582031 27.859375 494.335938 27.847656 494.742188 C 27.839844 495.648438 28.726562 496.421875 29.394531 496.074219 "/>
<path style=" stroke:none;fill-rule:nonzero;fill:rgb(35.289001%,53.729248%,63.529968%);fill-opacity:1;" d="M 48.714844 507.398438 C 48.753906 507.464844 48.828125 507.542969 48.9375 507.621094 C 48.859375 507.542969 48.761719 507.464844 48.714844 507.398438 "/>
<path style=" stroke:none;fill-rule:nonzero;fill:rgb(35.289001%,53.729248%,63.529968%);fill-opacity:1;" d="M 48.664062 507.300781 C 48.753906 507.023438 48.917969 506.761719 49.0625 506.488281 C 49.214844 506.671875 49.378906 506.855469 49.535156 507.03125 C 49.34375 507.253906 49.160156 507.457031 48.976562 507.648438 C 49.089844 507.726562 49.207031 507.8125 49.292969 507.890625 C 49.410156 507.621094 49.535156 507.351562 49.652344 507.078125 C 49.476562 506.839844 49.304688 506.585938 49.128906 506.34375 C 48.964844 506.664062 48.695312 506.972656 48.664062 507.300781 "/>
<path style=" stroke:none;fill-rule:nonzero;fill:rgb(35.289001%,53.729248%,63.529968%);fill-opacity:1;" d="M 367.996094 501.621094 C 368.160156 501.417969 368.316406 501.203125 368.480469 501.003906 C 368.363281 500.914062 368.257812 500.828125 368.144531 500.742188 C 367.988281 500.933594 367.824219 501.117188 367.71875 501.332031 C 367.699219 501.371094 367.902344 501.523438 367.996094 501.621094 "/>
<path style=" stroke:none;fill-rule:nonzero;fill:rgb(35.289001%,53.729248%,63.529968%);fill-opacity:1;" d="M 312.289062 553.71875 C 313.140625 552.722656 314.085938 551.773438 314.703125 550.644531 C 315.207031 549.71875 315.292969 548.546875 315.574219 547.484375 C 315.574219 547.484375 315.554688 547.503906 315.554688 547.503906 C 314.773438 547.351562 314 547.207031 313.09375 547.03125 C 312.859375 547.464844 312.425781 547.902344 312.484375 548.25 C 312.714844 549.457031 312.832031 550.507812 311.46875 551.167969 C 311.054688 551.371094 310.609375 551.765625 310.433594 552.179688 C 310.203125 552.703125 310.03125 553.398438 310.203125 553.890625 C 310.445312 554.585938 311.652344 554.472656 312.289062 553.71875 "/>
<path style=" stroke:none;fill-rule:nonzero;fill:rgb(35.289001%,53.729248%,63.529968%);fill-opacity:1;" d="M 332.835938 494.984375 C 332.710938 494.382812 332.671875 494.394531 330.207031 493.707031 C 330.375 495.109375 330.519531 496.402344 330.671875 497.804688 C 332.082031 497.253906 333.175781 496.644531 332.835938 494.984375 "/>
<path style=" stroke:none;fill-rule:nonzero;fill:rgb(35.289001%,53.729248%,63.529968%);fill-opacity:1;" d="M -1.179688 410.539062 C -0.839844 410.054688 -0.503906 409.5625 -0.15625 409.089844 C 0.695312 407.929688 0.433594 407.550781 -1.652344 407.300781 C -1.488281 408.421875 -1.34375 409.484375 -1.1875 410.546875 L -1.179688 410.539062 "/>
<path style=" stroke:none;fill-rule:nonzero;fill:rgb(35.289001%,53.729248%,63.529968%);fill-opacity:1;" d="M 245.890625 574.875 C 245.347656 575.148438 244.992188 575.3125 244.644531 575.484375 C 244.972656 575.773438 245.269531 576.152344 245.65625 576.316406 C 245.707031 576.34375 245.78125 576.324219 245.859375 576.296875 C 246.042969 576.21875 246.273438 576.046875 246.46875 575.949219 C 246.292969 575.621094 246.109375 575.292969 245.890625 574.875 "/>
<path style=" stroke:none;fill-rule:nonzero;fill:rgb(35.289001%,53.729248%,63.529968%);fill-opacity:1;" d="M 63.289062 522.855469 C 63.675781 522.730469 64.003906 522.433594 64.351562 522.199219 C 64.152344 521.96875 63.957031 521.738281 63.65625 521.398438 C 63.359375 521.660156 63.011719 521.921875 62.75 522.238281 C 62.722656 522.289062 63.183594 522.894531 63.289062 522.855469 "/>
<path style=" stroke:none;fill-rule:nonzero;fill:rgb(35.289001%,53.729248%,63.529968%);fill-opacity:1;" d="M 40.636719 450.304688 C 40.890625 450.652344 41.21875 450.945312 41.519531 451.261719 C 41.71875 451.050781 42.125 450.761719 42.085938 450.625 C 41.953125 450.25 41.632812 449.9375 41.371094 449.570312 C 41.015625 449.917969 40.609375 450.269531 40.636719 450.304688 "/>
<path style=" stroke:none;fill-rule:nonzero;fill:rgb(35.289001%,53.729248%,63.529968%);fill-opacity:1;" d="M 49.0625 506.488281 C 48.917969 506.761719 48.753906 507.023438 48.664062 507.300781 C 48.664062 507.332031 48.683594 507.359375 48.714844 507.398438 C 48.761719 507.464844 48.859375 507.542969 48.9375 507.621094 C 48.945312 507.628906 48.957031 507.640625 48.964844 507.660156 C 48.976562 507.648438 48.976562 507.648438 48.976562 507.648438 C 49.160156 507.457031 49.34375 507.253906 49.535156 507.03125 C 49.378906 506.855469 49.214844 506.671875 49.0625 506.488281 "/>
<path style=" stroke:none;fill-rule:nonzero;fill:rgb(35.289001%,53.729248%,63.529968%);fill-opacity:1;" d="M 46.320312 258.265625 C 47.691406 258.304688 48.9375 258.34375 50.183594 258.382812 C 47.207031 256.09375 47.207031 256.09375 46.320312 258.265625 "/>
<path style=" stroke:none;fill-rule:nonzero;fill:rgb(35.289001%,53.729248%,63.529968%);fill-opacity:1;" d="M 78.476562 425.089844 C 78.3125 424.816406 78.148438 424.558594 77.972656 424.296875 C 77.710938 424.460938 77.328125 424.585938 77.238281 424.816406 C 77.179688 425 77.5 425.320312 77.65625 425.570312 C 77.925781 425.417969 78.195312 425.253906 78.476562 425.089844 "/>
<path style=" stroke:none;fill-rule:nonzero;fill:rgb(35.289001%,53.729248%,63.529968%);fill-opacity:1;" d="M 20.449219 226.777344 C 20.441406 227.019531 20.777344 227.261719 20.972656 227.503906 C 21.222656 227.203125 21.472656 226.90625 21.726562 226.605469 C 21.484375 226.429688 21.242188 226.265625 21 226.09375 C 20.796875 226.324219 20.449219 226.546875 20.449219 226.777344 "/>
<path style=" stroke:none;fill-rule:nonzero;fill:rgb(35.289001%,53.729248%,63.529968%);fill-opacity:1;" d="M 5.128906 496.015625 C 5.671875 496.382812 5.96875 496.671875 6.328125 496.78125 C 6.492188 496.820312 6.964844 496.402344 6.9375 496.296875 C 6.839844 495.929688 6.570312 495.589844 6.375 495.242188 C 6.039062 495.457031 5.691406 495.667969 5.128906 496.015625 "/>
<path style=" stroke:none;fill-rule:nonzero;fill:rgb(35.289001%,53.729248%,63.529968%);fill-opacity:1;" d="M 49.855469 207.589844 C 50.027344 207.367188 50.203125 207.144531 50.375 206.925781 C 50.164062 206.742188 49.960938 206.421875 49.738281 206.421875 C 49.476562 206.410156 49.207031 206.671875 48.9375 206.828125 C 49.246094 207.078125 49.542969 207.339844 49.855469 207.589844 "/>
<path style=" stroke:none;fill-rule:nonzero;fill:rgb(35.289001%,53.729248%,63.529968%);fill-opacity:1;" d="M 86.617188 488.710938 C 86.308594 488.664062 85.960938 488.519531 85.71875 488.617188 C 85.554688 488.683594 85.546875 489.117188 85.480469 489.386719 C 85.757812 489.4375 86.050781 489.476562 86.339844 489.523438 C 86.433594 489.253906 86.523438 488.984375 86.617188 488.710938 "/>
<path style=" stroke:none;fill-rule:nonzero;fill:rgb(35.289001%,53.729248%,63.529968%);fill-opacity:1;" d="M 71.210938 185.601562 C 71.222656 185.714844 71.367188 185.832031 71.460938 185.949219 C 71.445312 185.707031 71.433594 185.464844 71.414062 185.214844 C 71.335938 185.339844 71.203125 185.472656 71.210938 185.601562 "/>
<path style=" stroke:none;fill-rule:nonzero;fill:rgb(35.289001%,53.729248%,63.529968%);fill-opacity:1;" d="M 300.777344 520.414062 C 300.648438 520.304688 300.484375 520.085938 300.398438 520.113281 C 300.117188 520.210938 299.867188 520.394531 299.597656 520.546875 C 299.722656 520.65625 299.847656 520.769531 299.964844 520.886719 C 300.234375 520.730469 300.503906 520.578125 300.777344 520.414062 "/>
<path style=" stroke:none;fill-rule:nonzero;fill:rgb(35.289001%,53.729248%,63.529968%);fill-opacity:1;" d="M 33.277344 269.5625 C 33.152344 269.273438 32.574219 268.960938 32.246094 269.011719 C 31.953125 269.070312 31.742188 269.601562 31.382812 270.074219 C 31.964844 270.304688 32.410156 270.644531 32.746094 270.558594 C 33.007812 270.5 33.363281 269.8125 33.277344 269.5625 "/>
<path style=" stroke:none;fill-rule:nonzero;fill:rgb(35.289001%,53.729248%,63.529968%);fill-opacity:1;" d="M 95.902344 451.148438 C 95.929688 451.011719 96.027344 450.847656 95.988281 450.730469 C 95.941406 450.617188 95.757812 450.558594 95.640625 450.46875 C 95.613281 450.722656 95.582031 450.964844 95.554688 451.214844 C 95.671875 451.195312 95.785156 451.175781 95.902344 451.148438 "/>
<path style=" stroke:none;fill-rule:nonzero;fill:rgb(35.289001%,53.729248%,63.529968%);fill-opacity:1;" d="M 66.441406 285.996094 C 66.644531 286.101562 67.125 286.007812 67.269531 285.832031 C 67.898438 285.089844 67.714844 284.238281 66.894531 283.707031 C 66.757812 283.621094 66.574219 283.601562 66.421875 283.542969 C 66.292969 283.648438 66.148438 283.746094 66.054688 283.871094 C 65.472656 284.703125 65.597656 285.570312 66.441406 285.996094 "/>
<path style=" stroke:none;fill-rule:nonzero;fill:rgb(35.289001%,53.729248%,63.529968%);fill-opacity:1;" d="M 41.527344 316.761719 C 41.527344 316.75 41.527344 316.75 41.527344 316.75 C 41.003906 316.414062 40.484375 316.054688 39.941406 315.734375 C 39.847656 315.679688 39.632812 315.792969 39.480469 315.824219 C 39.558594 316.082031 39.585938 316.527344 39.703125 316.558594 C 40.300781 316.683594 40.917969 316.703125 41.527344 316.761719 "/>
<path style=" stroke:none;fill-rule:nonzero;fill:rgb(35.289001%,53.729248%,63.529968%);fill-opacity:1;" d="M 4.316406 188.613281 C 4.617188 188.09375 5.011719 187.726562 4.984375 187.398438 C 4.945312 187.011719 4.628906 186.539062 4.289062 186.335938 C 3.835938 186.074219 3.082031 186.953125 3.304688 187.523438 C 3.449219 187.878906 3.863281 188.140625 4.316406 188.613281 "/>
<path style=" stroke:none;fill-rule:nonzero;fill:rgb(35.289001%,53.729248%,63.529968%);fill-opacity:1;" d="M 86.707031 288.152344 C 86.636719 287.917969 86.582031 287.6875 86.484375 287.464844 C 86.484375 287.445312 86.234375 287.53125 86.097656 287.570312 C 86.164062 287.804688 86.234375 288.035156 86.300781 288.265625 C 86.433594 288.230469 86.570312 288.191406 86.707031 288.152344 "/>
<path style=" stroke:none;fill-rule:nonzero;fill:rgb(35.289001%,53.729248%,63.529968%);fill-opacity:1;" d="M 113.445312 191.792969 C 114.574219 191.734375 115.597656 190.625 115.464844 189.542969 C 115.40625 189.089844 114.75 188.722656 114.488281 188.449219 C 113.105469 188.703125 112.238281 189.851562 112.449219 190.992188 C 112.515625 191.320312 113.117188 191.8125 113.445312 191.792969 "/>
<path style=" stroke:none;fill-rule:nonzero;fill:rgb(35.289001%,53.729248%,63.529968%);fill-opacity:1;" d="M 17.253906 471.15625 C 17.15625 471.136719 16.90625 471.871094 16.585938 472.546875 C 17.308594 472.742188 17.839844 472.984375 18.363281 472.964844 C 18.5 472.964844 18.847656 471.96875 18.703125 471.824219 C 18.34375 471.464844 17.773438 471.261719 17.253906 471.15625 "/>
<path style=" stroke:none;fill-rule:nonzero;fill:rgb(35.289001%,53.729248%,63.529968%);fill-opacity:1;" d="M 132.792969 183.785156 C 132.8125 183.675781 132.726562 183.542969 132.6875 183.425781 C 132.550781 183.523438 132.40625 183.621094 132.261719 183.714844 C 132.347656 183.804688 132.433594 183.890625 132.523438 183.976562 C 132.617188 183.910156 132.773438 183.859375 132.792969 183.785156 "/>
</g>
</svg>
