<?xml version="1.0" encoding="UTF-8"?>
<svg xmlns="http://www.w3.org/2000/svg" xmlns:xlink="http://www.w3.org/1999/xlink" width="30pt" height="30.000001pt" viewBox="0 0 30 30.000001" version="1.2">
<defs>
<clipPath id="clip1">
  <path d="M 0.484375 0 L 29.515625 0 L 29.515625 29.03125 L 0.484375 29.03125 Z M 0.484375 0 "/>
</clipPath>
</defs>
<g id="surface1">
<g clip-path="url(#clip1)" clip-rule="nonzero">
<path style=" stroke:none;fill-rule:nonzero;fill:rgb(79.60968%,83.529663%,87.449646%);fill-opacity:1;" d="M 15 0 C 6.984375 0 0.484375 6.5 0.484375 14.515625 C 0.484375 22.53125 6.984375 29.03125 15 29.03125 C 23.015625 29.03125 29.515625 22.53125 29.515625 14.515625 C 29.515625 6.5 23.015625 0 15 0 Z M 9.550781 6.535156 C 10.570312 6.535156 11.25 7.214844 11.25 8.121094 C 11.25 9.023438 10.570312 9.703125 9.4375 9.703125 C 8.421875 9.703125 7.742188 9.023438 7.742188 8.121094 C 7.742188 7.214844 8.421875 6.535156 9.550781 6.535156 Z M 11.371094 20.566406 L 7.742188 20.566406 L 7.742188 10.886719 L 11.371094 10.886719 Z M 23.46875 20.566406 L 20.050781 20.566406 L 20.050781 15.277344 C 20.050781 13.8125 19.140625 13.476562 18.800781 13.476562 C 18.457031 13.476562 17.320312 13.699219 17.320312 15.277344 C 17.320312 15.5 17.320312 20.566406 17.320312 20.566406 L 13.789062 20.566406 L 13.789062 10.886719 L 17.320312 10.886719 L 17.320312 12.238281 C 17.773438 11.449219 18.6875 10.886719 20.394531 10.886719 C 22.101562 10.886719 23.46875 12.238281 23.46875 15.277344 Z M 23.46875 20.566406 "/>
</g>
</g>
</svg>
