<?xml version="1.0" encoding="UTF-8"?>
<svg xmlns="http://www.w3.org/2000/svg" xmlns:xlink="http://www.w3.org/1999/xlink" width="300pt" height="299.999988pt" viewBox="0 0 300 299.999988" version="1.2">
<defs>
<clipPath id="clip1">
  <path d="M 35 26.453125 L 254 26.453125 L 254 181 L 35 181 Z M 35 26.453125 "/>
</clipPath>
</defs>
<g id="surface1">
<path style=" stroke:none;fill-rule:nonzero;fill:rgb(3.919983%,25.489807%,27.059937%);fill-opacity:1;" d="M 192.925781 123.832031 C 192.925781 123.832031 299.636719 127.917969 298.976562 130.316406 C 298.914062 130.679688 298.734375 131.757812 298.675781 133.378906 C 292.300781 146.648438 294.585938 153.492188 297.773438 157.273438 C 297.59375 159.855469 297.292969 161.714844 296.992188 162.316406 C 295.609375 164.777344 199.058594 269.664062 195.929688 271.464844 C 192.804688 273.203125 158.355469 267.800781 140.441406 263.660156 C 122.527344 259.515625 0.90625 224.574219 0.90625 223.253906 C 0.90625 221.933594 0.363281 185.25 2.828125 183.210938 C 5.292969 181.167969 12.027344 175.105469 12.027344 175.105469 Z M 192.925781 123.832031 "/>
<path style=" stroke:none;fill-rule:nonzero;fill:rgb(35.289001%,53.729248%,63.529968%);fill-opacity:1;" d="M 276.429688 102.339844 C 277.03125 102.882812 277.511719 104.082031 277.753906 105.882812 C 275.347656 112.90625 270.78125 126.714844 276.851562 133.199219 C 276.308594 136.5625 275.710938 139.023438 275.109375 139.5625 C 272.703125 141.785156 194.96875 229.078125 187.996094 228.835938 C 181.023438 228.597656 11.484375 186.871094 11.605469 183.75 C 11.664062 180.6875 13.167969 140.34375 13.167969 140.34375 C 41.484375 117.167969 68.839844 92.792969 95.171875 67.339844 C 94.628906 68.898438 95.652344 70.460938 97.214844 70.761719 C 120.78125 74.664062 272.882812 99.398438 276.429688 102.339844 Z M 276.429688 102.339844 "/>
<g clip-path="url(#clip1)" clip-rule="nonzero">
<path style=" stroke:none;fill-rule:nonzero;fill:rgb(1.959229%,39.99939%,57.649231%);fill-opacity:1;" d="M 241.320312 122.511719 C 224.308594 140.34375 210.601562 156.671875 195.148438 173.183594 C 190.699219 177.925781 186.191406 180.207031 179.640625 180.027344 C 176.875 179.96875 174.347656 178.648438 171.761719 177.867188 C 148.078125 171.023438 63.96875 146.527344 37.636719 141.125 C 37.097656 130.199219 36.554688 119.269531 36.015625 108.34375 C 35.832031 105.582031 35.773438 102.761719 36.675781 100.179688 C 37.996094 96.816406 40.882812 94.296875 43.710938 92.074219 C 70.523438 70.339844 97.394531 48.609375 124.148438 26.933594 C 124.691406 26.453125 201.703125 47.828125 219.015625 52.210938 C 236.269531 56.59375 248.175781 61.457031 249.617188 63.917969 C 249.917969 64.457031 250.277344 66.378906 250.699219 69.199219 C 240.058594 86.25 253.765625 100 253.765625 103.121094 C 253.824219 106.902344 253.824219 109.363281 241.320312 122.511719 Z M 241.320312 122.511719 "/>
</g>
<path style=" stroke:none;fill-rule:nonzero;fill:rgb(79.60968%,83.529663%,87.449646%);fill-opacity:1;" d="M 186.433594 173.902344 C 185.832031 173.425781 185.589844 172.582031 185.410156 171.863281 C 183.125 159.433594 183.667969 146.105469 183.367188 133.5 C 205.007812 111.285156 227.433594 89.792969 250.519531 69.082031 C 251.542969 78.566406 253.644531 99.878906 253.765625 102.941406 C 253.765625 103 253.765625 103.121094 253.765625 103.121094 C 233.085938 126.957031 210.960938 148.507812 190.28125 172.402344 C 189.316406 173.605469 187.695312 174.804688 186.433594 173.902344 Z M 276.792969 133.257812 C 277.992188 125.394531 278.773438 112.308594 277.691406 105.941406 L 189.917969 192.574219 C 189.917969 192.574219 186.25 215.089844 190.097656 222.414062 C 190.398438 223.132812 257.855469 153.011719 276.792969 133.257812 Z M 259.539062 171.921875 C 248.355469 182.609375 192.746094 236.703125 192.5625 237.421875 C 192.265625 238.261719 193.046875 261.015625 195.390625 265.28125 C 195.390625 265.28125 251.84375 209.085938 270.058594 187.414062 C 281.179688 174.144531 291.460938 163.457031 297.710938 157.035156 C 298.195312 150.191406 298.3125 138.601562 298.613281 133.140625 C 291.761719 140.042969 268.976562 162.859375 259.539062 171.921875 Z M 115.730469 224.273438 C 106.59375 220.132812 97.035156 216.949219 87.296875 214.730469 C 80.320312 213.109375 73.109375 211.96875 65.953125 212.148438 C 60 212.328125 51.285156 217.789062 54.050781 224.875 C 55.191406 227.878906 57.898438 229.917969 60.542969 231.597656 C 65.832031 234.839844 71.664062 237.0625 77.554688 239.042969 C 93.128906 244.386719 109.839844 248.710938 126.011719 245.40625 C 128.296875 244.925781 130.941406 244.085938 132.085938 242.046875 C 133.707031 239.222656 131.902344 235.621094 129.621094 233.21875 C 125.773438 229.078125 120.78125 226.496094 115.730469 224.273438 Z M 132.203125 156.914062 C 143.566406 160.574219 155.050781 163.519531 166.773438 165.617188 C 167.132812 159.554688 168.15625 153.371094 168.214844 146.648438 C 162.382812 144.367188 139.71875 138.121094 133.46875 137.460938 C 132.867188 143.34375 132.867188 151.148438 132.203125 156.914062 Z M 49 108.285156 C 48.941406 107.503906 47.917969 107.503906 47.859375 108.285156 C 47.496094 112.785156 47.257812 117.230469 47.074219 121.734375 C 46.835938 126.175781 46.054688 130.796875 46.535156 135.179688 C 46.714844 136.5 48.699219 137.042969 49 135.480469 C 49.839844 131.277344 49.539062 126.777344 49.539062 122.394531 C 49.539062 117.769531 49.359375 113.085938 49 108.285156 Z M 56.753906 141.183594 C 57.535156 131.15625 56.273438 120.832031 55.371094 110.867188 C 55.371094 110.6875 55.070312 110.6875 55.070312 110.867188 C 54.46875 120.890625 53.148438 131.15625 53.449219 141.183594 C 53.570312 143.285156 56.574219 143.285156 56.753906 141.183594 Z M 21.765625 150.371094 C 21.707031 150.070312 21.285156 150.070312 21.226562 150.371094 C 20.140625 155.292969 20.203125 160.394531 20.023438 165.378906 C 19.722656 170.84375 19.179688 176.425781 19.542969 181.828125 C 19.722656 183.570312 22.066406 183.570312 22.308594 181.828125 C 22.847656 176.367188 22.546875 170.78125 22.488281 165.378906 C 22.308594 160.394531 22.609375 155.292969 21.765625 150.371094 Z M 155.289062 189.695312 C 153.90625 197.679688 153.367188 206.742188 155.109375 214.730469 C 155.472656 216.410156 158.238281 216.050781 158.175781 214.367188 C 157.816406 206.203125 156.613281 197.980469 156.132812 189.8125 C 156.011719 189.332031 155.351562 189.214844 155.289062 189.695312 Z M 166.292969 194.136719 C 163.464844 196.539062 163.464844 200.261719 163.464844 203.800781 C 163.40625 208.90625 162.445312 215.148438 164.128906 220.011719 C 164.429688 220.851562 165.691406 220.914062 165.992188 220.011719 C 167.132812 216.109375 166.472656 211.605469 166.472656 207.585938 C 166.414062 203.683594 165.390625 198.460938 167.496094 194.976562 C 167.796875 194.195312 166.832031 193.597656 166.292969 194.136719 Z M 173.507812 130.796875 C 169.539062 128.035156 163.707031 127.253906 159.019531 125.996094 C 153.667969 124.554688 148.375 123.113281 142.964844 121.613281 C 132.023438 118.730469 121.023438 115.847656 110.082031 113.085938 C 99.320312 110.386719 88.617188 107.804688 77.796875 105.28125 C 72.445312 103.960938 66.976562 102.761719 61.625 101.621094 C 56.515625 100.539062 51.105469 98.738281 45.8125 98.558594 C 45.210938 98.558594 44.792969 99.578125 45.511719 99.878906 C 50.023438 101.921875 55.433594 102.640625 60.242188 103.839844 C 65.59375 105.222656 71.003906 106.421875 76.414062 107.683594 C 87.476562 110.265625 98.476562 112.785156 109.480469 115.488281 C 120.242188 118.070312 131.003906 120.710938 141.703125 123.59375 C 147.054688 125.035156 152.34375 126.476562 157.753906 127.976562 C 162.566406 129.355469 168.15625 132.058594 173.328125 131.820312 C 173.746094 131.699219 173.925781 131.097656 173.507812 130.796875 Z M 173.507812 130.796875 "/>
</g>
</svg>
