<?xml version="1.0" encoding="UTF-8"?>
<svg xmlns="http://www.w3.org/2000/svg" xmlns:xlink="http://www.w3.org/1999/xlink" width="900pt" height="599.999999pt" viewBox="0 0 900 599.999999" version="1.2">
<g id="surface1">
<rect x="0" y="0" width="900" height="599.999999" style="fill:rgb(100%,100%,100%);fill-opacity:1;stroke:none;"/>
<rect x="0" y="0" width="900" height="599.999999" style="fill:rgb(35.289001%,53.729248%,63.529968%);fill-opacity:1;stroke:none;"/>
<path style=" stroke:none;fill-rule:evenodd;fill:rgb(1.959229%,39.99939%,57.649231%);fill-opacity:1;" d="M -228.652344 -43.207031 C -194.632812 -70.019531 -135.902344 -117.445312 -93.550781 -126.511719 C -51.199219 -135.566406 -0.199219 -119.984375 17.132812 -80.289062 C 40.960938 -25.699219 -6.128906 47.273438 31.464844 93.453125 C 51.414062 117.957031 86.320312 122.160156 117.101562 129.28125 C 147.878906 136.414062 182.484375 154.328125 185.066406 185.824219 C 188.652344 229.519531 129.832031 252.441406 117.015625 294.367188 C 109.238281 319.820312 120.214844 347.324219 135.019531 369.441406 C 149.824219 391.558594 168.726562 411.167969 179.742188 435.398438 C 199.410156 478.679688 188.921875 533.824219 154.746094 566.859375 C 132.582031 588.277344 101.855469 600.992188 84.890625 626.71875 C 57.507812 668.257812 76.828125 724.589844 64.199219 772.714844 C 48.707031 831.792969 -22.0625 869.542969 -79.738281 849.496094 C -84.097656 847.980469 -88.542969 846.078125 -91.550781 842.585938 C -97.039062 836.246094 -96.320312 826.8125 -95.328125 818.480469 C -85.75 738.59375 -79.550781 658.289062 -76.738281 577.882812 C -74.175781 504.574219 -74.449219 430.847656 -85.4375 358.335938 C -105.792969 223.953125 -172.910156 80.75 -228.652344 -43.207031 "/>
<path style=" stroke:none;fill-rule:nonzero;fill:rgb(35.289001%,53.729248%,63.529968%);fill-opacity:1;" d="M 13.097656 179.039062 C 13.410156 179.238281 14.058594 178.996094 14.488281 178.808594 C 14.613281 178.746094 14.636719 178.140625 14.5 177.878906 C 14.28125 177.429688 13.964844 176.980469 13.578125 176.644531 C 13.378906 176.476562 12.890625 176.464844 12.648438 176.59375 C 12.386719 176.726562 12.261719 177.125 11.917969 177.660156 C 12.261719 178.085938 12.585938 178.726562 13.097656 179.039062 "/>
<path style=" stroke:none;fill-rule:nonzero;fill:rgb(35.289001%,53.729248%,63.529968%);fill-opacity:1;" d="M 147.972656 462.367188 C 147.566406 462.367188 147.15625 462.921875 146.5 463.402344 C 147.0625 464.007812 147.5 464.488281 147.953125 464.96875 C 148.246094 464.613281 148.671875 464.300781 148.808594 463.894531 C 149.039062 463.171875 148.890625 462.386719 147.972656 462.367188 "/>
<path style=" stroke:none;fill-rule:nonzero;fill:rgb(35.289001%,53.729248%,63.529968%);fill-opacity:1;" d="M 100.445312 495.769531 C 100.582031 496.125 101.273438 496.542969 101.605469 496.457031 C 101.984375 496.375 102.222656 495.746094 102.527344 495.359375 C 102.128906 495.089844 101.722656 494.816406 101.136719 494.410156 C 100.832031 494.972656 100.339844 495.484375 100.445312 495.769531 "/>
<path style=" stroke:none;fill-rule:nonzero;fill:rgb(35.289001%,53.729248%,63.529968%);fill-opacity:1;" d="M 25.003906 214.980469 C 25.195312 214.730469 25.394531 214.46875 25.582031 214.207031 C 25.214844 213.988281 24.847656 213.769531 24.484375 213.550781 C 24.367188 213.875 24.105469 214.238281 24.191406 214.5 C 24.253906 214.71875 24.714844 214.824219 25.003906 214.980469 "/>
<path style=" stroke:none;fill-rule:nonzero;fill:rgb(35.289001%,53.729248%,63.529968%);fill-opacity:1;" d="M 58.136719 155.929688 C 58.335938 155.863281 58.417969 155.414062 58.554688 155.089844 C 58.367188 154.914062 58.15625 154.714844 57.957031 154.515625 C 57.730469 154.890625 57.488281 155.257812 57.257812 155.636719 C 57.550781 155.75 57.894531 156 58.136719 155.929688 "/>
<path style=" stroke:none;fill-rule:nonzero;fill:rgb(35.289001%,53.729248%,63.529968%);fill-opacity:1;" d="M 42.066406 209.492188 C 41.953125 209.742188 42.726562 210.714844 43.238281 210.863281 C 44.304688 211.1875 44.921875 210.371094 44.984375 209.429688 C 45.027344 208.886719 44.523438 208.320312 44.054688 207.296875 C 43.101562 208.289062 42.382812 208.800781 42.066406 209.492188 "/>
<path style=" stroke:none;fill-rule:nonzero;fill:rgb(35.289001%,53.729248%,63.529968%);fill-opacity:1;" d="M 102.597656 553.472656 C 102.296875 554.371094 102.964844 555.273438 103.980469 555.28125 C 104.542969 555.28125 105.359375 554.800781 105.632812 554.300781 C 106.425781 552.867188 105.726562 551.664062 104.449219 550.335938 C 103.761719 551.453125 102.953125 552.386719 102.597656 553.472656 "/>
<path style=" stroke:none;fill-rule:nonzero;fill:rgb(35.289001%,53.729248%,63.529968%);fill-opacity:1;" d="M 58.554688 242.476562 C 58.25 242.191406 57.8125 242.054688 57.425781 241.859375 C 57.332031 242.128906 57.257812 242.402344 57.132812 242.789062 C 57.53125 242.964844 57.917969 243.164062 58.324219 243.351562 C 58.40625 243.050781 58.667969 242.570312 58.554688 242.476562 "/>
<path style=" stroke:none;fill-rule:nonzero;fill:rgb(35.289001%,53.729248%,63.529968%);fill-opacity:1;" d="M 69.0625 571.105469 C 68.820312 571.050781 68.527344 571.355469 68.257812 571.503906 C 68.402344 571.785156 68.539062 572.277344 68.726562 572.316406 C 68.976562 572.359375 69.269531 572.066406 69.550781 571.921875 C 69.386719 571.628906 69.261719 571.148438 69.0625 571.105469 "/>
<path style=" stroke:none;fill-rule:nonzero;fill:rgb(35.289001%,53.729248%,63.529968%);fill-opacity:1;" d="M 68.453125 545.285156 C 68.371094 545.496094 68.632812 545.851562 68.738281 546.152344 C 69.019531 546.027344 69.5 545.953125 69.542969 545.777344 C 69.605469 545.496094 69.375 545.148438 69.261719 544.835938 C 68.976562 544.980469 68.550781 545.054688 68.453125 545.285156 "/>
<path style=" stroke:none;fill-rule:nonzero;fill:rgb(35.289001%,53.729248%,63.529968%);fill-opacity:1;" d="M 119.011719 467.867188 C 119.242188 468.589844 119.472656 469.332031 119.828125 470.417969 C 120.65625 469.644531 121.324219 469.007812 122.117188 468.242188 C 121.492188 468.035156 121.175781 467.816406 120.914062 467.867188 C 120.257812 468.015625 119.578125 469.144531 119.011719 467.867188 "/>
<path style=" stroke:none;fill-rule:nonzero;fill:rgb(35.289001%,53.729248%,63.529968%);fill-opacity:1;" d="M 9.09375 594.308594 C 9.28125 594.539062 9.460938 594.769531 9.636719 594.988281 C 9.878906 594.664062 10.117188 594.339844 10.359375 594.007812 C 10.085938 593.871094 9.804688 593.597656 9.53125 593.621094 C 9.386719 593.628906 9.242188 594.070312 9.09375 594.308594 "/>
<path style=" stroke:none;fill-rule:nonzero;fill:rgb(35.289001%,53.729248%,63.529968%);fill-opacity:1;" d="M 13.640625 561.203125 C 13.957031 561.296875 14.519531 561.441406 14.59375 561.328125 C 15.125 560.449219 15.574219 559.519531 16.003906 558.585938 C 16.035156 558.523438 15.816406 558.273438 15.667969 558.222656 C 15.523438 558.167969 15.230469 558.191406 15.15625 558.285156 C 14.5625 559.109375 13.996094 559.957031 13.410156 560.816406 C 13.472656 560.929688 13.527344 561.160156 13.640625 561.203125 "/>
<path style=" stroke:none;fill-rule:nonzero;fill:rgb(35.289001%,53.729248%,63.529968%);fill-opacity:1;" d="M 25.277344 529.128906 C 25.582031 529.234375 25.882812 529.328125 26.1875 529.429688 C 26.332031 529.179688 26.492188 528.929688 26.648438 528.679688 C 26.292969 528.554688 25.945312 528.375 25.582031 528.34375 C 25.507812 528.332031 25.382812 528.855469 25.277344 529.128906 "/>
<path style=" stroke:none;fill-rule:nonzero;fill:rgb(35.289001%,53.729248%,63.529968%);fill-opacity:1;" d="M 161.929688 509.089844 C 161.761719 509.144531 161.59375 509.214844 161.207031 509.375 C 161.910156 510.355469 162.441406 511.089844 162.976562 511.851562 C 164.105469 511.675781 164.542969 510.984375 164.175781 509.949219 C 163.8125 508.871094 162.902344 508.796875 161.929688 509.089844 "/>
<path style=" stroke:none;fill-rule:nonzero;fill:rgb(35.289001%,53.729248%,63.529968%);fill-opacity:1;" d="M 144.542969 422.597656 C 144.46875 422.941406 144.886719 423.515625 145.234375 423.789062 C 145.703125 424.164062 146.5625 423.433594 146.488281 422.667969 C 146.394531 421.75 146.164062 420.828125 145.851562 419.113281 C 145.191406 420.796875 144.742188 421.664062 144.542969 422.597656 "/>
<path style=" stroke:none;fill-rule:nonzero;fill:rgb(35.289001%,53.729248%,63.529968%);fill-opacity:1;" d="M 10.054688 148.878906 C 10.035156 148.574219 10.003906 148.273438 9.972656 147.96875 C 9.691406 148.023438 9.261719 147.96875 9.15625 148.125 C 9.019531 148.335938 9.144531 148.710938 9.15625 149.015625 C 9.460938 148.972656 9.761719 148.921875 10.054688 148.878906 "/>
<path style=" stroke:none;fill-rule:nonzero;fill:rgb(35.289001%,53.729248%,63.529968%);fill-opacity:1;" d="M 47.566406 550.335938 C 47.503906 550.222656 47.441406 550.105469 47.378906 550 C 47.179688 550.117188 46.992188 550.230469 46.8125 550.355469 C 46.941406 550.410156 47.066406 550.472656 47.191406 550.523438 C 47.316406 550.460938 47.441406 550.398438 47.566406 550.335938 "/>
<path style=" stroke:none;fill-rule:nonzero;fill:rgb(35.289001%,53.729248%,63.529968%);fill-opacity:1;" d="M 20.09375 264.089844 C 19.863281 263.660156 19.644531 263.242188 19.414062 262.816406 C 19.015625 263.035156 18.765625 263.191406 18.492188 263.335938 C 18.722656 263.714844 18.890625 264.164062 19.203125 264.445312 C 19.308594 264.539062 19.789062 264.214844 20.09375 264.089844 "/>
<path style=" stroke:none;fill-rule:nonzero;fill:rgb(35.289001%,53.729248%,63.529968%);fill-opacity:1;" d="M 130.410156 387.636719 C 130.765625 387.847656 131.160156 388.171875 131.253906 388.097656 C 131.601562 387.824219 131.839844 387.425781 132.125 387.070312 C 131.863281 386.90625 131.453125 386.527344 131.371094 386.589844 C 131.003906 386.863281 130.734375 387.261719 130.410156 387.636719 "/>
<path style=" stroke:none;fill-rule:nonzero;fill:rgb(35.289001%,53.729248%,63.529968%);fill-opacity:1;" d="M 127.074219 226.558594 C 127.210938 226.601562 127.335938 226.640625 127.472656 226.683594 C 127.460938 226.421875 127.441406 226.160156 127.429688 225.898438 C 127.28125 225.960938 127.0625 225.984375 127.011719 226.085938 C 126.957031 226.203125 127.054688 226.402344 127.074219 226.558594 "/>
<path style=" stroke:none;fill-rule:nonzero;fill:rgb(35.289001%,53.729248%,63.529968%);fill-opacity:1;" d="M 91.738281 416.96875 C 91.644531 416.804688 91.066406 416.75 90.828125 416.867188 C 90.566406 416.992188 90.230469 417.460938 90.304688 417.660156 C 90.722656 418.9375 91.246094 420.179688 92.113281 422.398438 C 92.875 421.039062 93.398438 420.527344 93.296875 420.222656 C 92.898438 419.09375 92.332031 418.027344 91.738281 416.96875 "/>
<path style=" stroke:none;fill-rule:nonzero;fill:rgb(35.289001%,53.729248%,63.529968%);fill-opacity:1;" d="M 0.511719 455.882812 C 0.292969 455.894531 0.0195312 456.375 -0.105469 456.699219 C -0.710938 458.164062 -0.460938 458.539062 2.214844 460.160156 C 2.675781 459.03125 3.113281 457.953125 3.847656 456.15625 C 2.183594 455.996094 1.347656 455.863281 0.511719 455.882812 "/>
<path style=" stroke:none;fill-rule:nonzero;fill:rgb(35.289001%,53.729248%,63.529968%);fill-opacity:1;" d="M 135.300781 197.445312 C 135.125 197.183594 134.945312 196.910156 134.769531 196.640625 C 134.476562 196.773438 134.003906 196.859375 133.933594 197.078125 C 133.828125 197.339844 134.066406 197.714844 134.160156 198.039062 C 134.546875 197.84375 134.925781 197.644531 135.300781 197.445312 "/>
<path style=" stroke:none;fill-rule:nonzero;fill:rgb(35.289001%,53.729248%,63.529968%);fill-opacity:1;" d="M 95.429688 256.300781 C 95.3125 256.4375 95.511719 256.84375 95.574219 257.125 C 95.949219 256.988281 96.328125 256.855469 96.691406 256.71875 C 96.566406 256.476562 96.429688 256.238281 96.296875 255.996094 C 95.992188 256.089844 95.59375 256.101562 95.429688 256.300781 "/>
<path style=" stroke:none;fill-rule:nonzero;fill:rgb(35.289001%,53.729248%,63.529968%);fill-opacity:1;" d="M 113.453125 360.550781 C 113.316406 360.476562 113.179688 360.394531 113.042969 360.320312 C 112.96875 360.46875 112.84375 360.613281 112.84375 360.75 C 112.84375 360.824219 113.066406 360.898438 113.191406 360.980469 C 113.273438 360.832031 113.367188 360.699219 113.453125 360.550781 "/>
<path style=" stroke:none;fill-rule:nonzero;fill:rgb(35.289001%,53.729248%,63.529968%);fill-opacity:1;" d="M 85.976562 402.863281 C 86.21875 402.96875 86.550781 403.21875 86.699219 403.136719 C 86.949219 403 87.074219 402.652344 87.253906 402.390625 C 86.949219 402.296875 86.625 402.078125 86.363281 402.132812 C 86.1875 402.171875 86.101562 402.601562 85.976562 402.863281 "/>
<path style=" stroke:none;fill-rule:nonzero;fill:rgb(35.289001%,53.729248%,63.529968%);fill-opacity:1;" d="M 125.777344 213.789062 C 125.757812 213.757812 125.566406 213.832031 125.453125 213.863281 C 125.421875 214.007812 125.390625 214.15625 125.347656 214.300781 C 125.535156 214.269531 125.726562 214.238281 125.914062 214.207031 C 125.871094 214.0625 125.851562 213.914062 125.777344 213.789062 "/>
<path style=" stroke:none;fill-rule:nonzero;fill:rgb(35.289001%,53.729248%,63.529968%);fill-opacity:1;" d="M 98.480469 178.859375 C 98.679688 179.152344 98.917969 179.425781 99.085938 179.71875 C 99.296875 179.792969 99.496094 179.8125 99.640625 179.769531 C 101.554688 179.164062 102.734375 177.804688 104 174.929688 C 101.417969 176.289062 99.984375 176.957031 98.660156 177.792969 C 98.375 177.972656 98.1875 178.671875 98.269531 179.070312 C 98.34375 178.996094 98.40625 178.933594 98.480469 178.859375 "/>
<path style=" stroke:none;fill-rule:nonzero;fill:rgb(35.289001%,53.729248%,63.529968%);fill-opacity:1;" d="M 51.457031 472.980469 C 52.699219 473.609375 53.945312 474.246094 55.136719 474.851562 C 55.511719 474.519531 55.878906 474.339844 55.992188 474.058594 C 56.109375 473.777344 56.097656 473.160156 55.941406 473.074219 C 54.601562 472.363281 53.242188 471.539062 51.457031 472.980469 "/>
<path style=" stroke:none;fill-rule:nonzero;fill:rgb(35.289001%,53.729248%,63.529968%);fill-opacity:1;" d="M 101.460938 266.097656 C 101.792969 266.003906 102.023438 265.441406 102.203125 265.03125 C 102.234375 264.96875 101.710938 264.5 101.492188 264.53125 C 101.09375 264.59375 100.738281 264.894531 100.046875 265.261719 C 100.726562 265.691406 101.167969 266.171875 101.460938 266.097656 "/>
<path style=" stroke:none;fill-rule:nonzero;fill:rgb(35.289001%,53.729248%,63.529968%);fill-opacity:1;" d="M 13.203125 428.160156 C 12.792969 428.128906 12.367188 428.273438 11.9375 428.347656 C 12.074219 428.871094 12.167969 429.183594 12.25 429.5 C 12.660156 429.332031 13.109375 429.207031 13.464844 428.964844 C 13.539062 428.914062 13.316406 428.179688 13.203125 428.160156 "/>
<path style=" stroke:none;fill-rule:nonzero;fill:rgb(35.289001%,53.729248%,63.529968%);fill-opacity:1;" d="M 86.59375 365.9375 C 86.675781 365.769531 86.4375 365.414062 86.332031 365.132812 C 86.050781 365.246094 85.609375 365.300781 85.539062 365.488281 C 85.453125 365.707031 85.703125 366.050781 85.808594 366.335938 C 86.082031 366.210938 86.480469 366.15625 86.59375 365.9375 "/>
<path style=" stroke:none;fill-rule:nonzero;fill:rgb(35.289001%,53.729248%,63.529968%);fill-opacity:1;" d="M 85.746094 315.972656 C 85.652344 315.6875 85.507812 315.4375 85.371094 315.164062 C 85.222656 315.257812 84.953125 315.394531 84.972656 315.4375 C 85.066406 315.71875 85.222656 315.992188 85.359375 316.253906 C 85.496094 316.160156 85.769531 316.023438 85.746094 315.972656 "/>
<path style=" stroke:none;fill-rule:nonzero;fill:rgb(35.289001%,53.729248%,63.529968%);fill-opacity:1;" d="M 57.175781 399.347656 C 56.820312 399.296875 56.078125 399.746094 56.015625 400.058594 C 55.878906 400.886719 55.785156 401.710938 55.710938 402.539062 C 55.722656 402.550781 55.730469 402.558594 55.730469 402.558594 C 55.984375 402.851562 55.972656 403.625 55.753906 403.949219 C 55.722656 403.992188 55.660156 404.035156 55.574219 404.066406 C 55.566406 404.253906 55.542969 404.441406 55.53125 404.621094 C 55.773438 404.628906 56.035156 404.628906 56.285156 404.628906 C 56.871094 403.230469 57.519531 401.839844 58 400.394531 C 58.085938 400.144531 57.519531 399.402344 57.175781 399.347656 "/>
<path style=" stroke:none;fill-rule:nonzero;fill:rgb(35.289001%,53.729248%,63.529968%);fill-opacity:1;" d="M 106.824219 345.617188 C 105.484375 344.40625 104.898438 343.171875 103.375 342.910156 C 103.027344 345.210938 103.027344 345.210938 106.824219 345.617188 "/>
<path style=" stroke:none;fill-rule:nonzero;fill:rgb(35.289001%,53.729248%,63.529968%);fill-opacity:1;" d="M 152.71875 170.390625 C 153.367188 169.617188 153.929688 168.769531 154.871094 167.460938 C 152.300781 167.160156 151.777344 168.257812 151.433594 169.480469 C 151.359375 169.730469 151.578125 170.191406 151.808594 170.359375 C 152.019531 170.515625 152.582031 170.535156 152.71875 170.390625 "/>
<path style=" stroke:none;fill-rule:nonzero;fill:rgb(35.289001%,53.729248%,63.529968%);fill-opacity:1;" d="M 64.492188 306.914062 C 64.253906 306.800781 64.011719 306.664062 63.761719 306.589844 C 63.707031 306.570312 63.480469 306.871094 63.511719 306.933594 C 63.625 307.132812 63.800781 307.3125 63.96875 307.488281 C 64.136719 307.300781 64.316406 307.113281 64.492188 306.914062 "/>
<path style=" stroke:none;fill-rule:nonzero;fill:rgb(35.289001%,53.729248%,63.529968%);fill-opacity:1;" d="M 76.378906 329.335938 C 76.484375 329.472656 76.621094 329.734375 76.683594 329.710938 C 76.820312 329.671875 76.945312 329.617188 77.070312 329.554688 C 77.121094 329.355469 77.175781 329.167969 77.238281 328.96875 C 77.226562 328.960938 77.214844 328.949219 77.207031 328.949219 C 76.921875 329.042969 76.652344 329.199219 76.378906 329.335938 "/>
<path style=" stroke:none;fill-rule:nonzero;fill:rgb(35.289001%,53.729248%,63.529968%);fill-opacity:1;" d="M 26.886719 375.914062 C 27.167969 375.871094 27.234375 374.554688 27.515625 373.277344 C 25.957031 373.707031 24.953125 373.90625 24.035156 374.3125 C 23.835938 374.398438 23.855469 375.621094 23.917969 375.632812 C 24.902344 375.832031 25.9375 376.082031 26.886719 375.914062 "/>
<path style=" stroke:none;fill-rule:nonzero;fill:rgb(35.289001%,53.729248%,63.529968%);fill-opacity:1;" d="M 115.207031 255.859375 C 115.28125 255.628906 115.28125 255.367188 115.292969 255.117188 C 115.070312 255.191406 114.851562 255.296875 114.621094 255.410156 C 114.695312 255.621094 114.769531 255.828125 114.84375 256.039062 C 114.96875 255.984375 115.1875 255.945312 115.207031 255.859375 "/>
<path style=" stroke:none;fill-rule:nonzero;fill:rgb(35.289001%,53.729248%,63.529968%);fill-opacity:1;" d="M 142.660156 254.46875 C 142.566406 254.21875 142.390625 254.007812 142.242188 253.78125 C 142.035156 253.9375 141.824219 254.105469 141.59375 254.261719 C 141.878906 254.46875 142.105469 254.65625 142.378906 254.816406 C 142.398438 254.824219 142.683594 254.542969 142.660156 254.46875 "/>
<path style=" stroke:none;fill-rule:nonzero;fill:rgb(35.289001%,53.729248%,63.529968%);fill-opacity:1;" d="M 37.730469 354.582031 C 38.910156 355.125 39.996094 356.148438 41.492188 354.9375 C 41.292969 354.109375 41.085938 353.285156 40.886719 352.46875 C 39.359375 352.4375 37.832031 352.183594 37.730469 354.582031 "/>
<path style=" stroke:none;fill-rule:nonzero;fill:rgb(35.289001%,53.729248%,63.529968%);fill-opacity:1;" d="M 83.382812 439.296875 C 82.734375 439.976562 82.183594 440.980469 81.867188 442.003906 C 81.804688 442.226562 82.539062 442.851562 83.300781 443.648438 C 83.667969 443.136719 84.03125 442.621094 84.398438 442.101562 C 84.628906 441.546875 84.796875 441.042969 84.859375 440.53125 C 84.890625 440.1875 83.550781 439.121094 83.382812 439.296875 "/>
<path style=" stroke:none;fill-rule:nonzero;fill:rgb(35.289001%,53.729248%,63.529968%);fill-opacity:1;" d="M 38.210938 317.6875 C 38.660156 317.769531 39.097656 317.84375 39.546875 317.925781 C 39.601562 317.601562 39.640625 317.289062 39.726562 316.765625 C 39.253906 316.753906 38.796875 316.683594 38.398438 316.796875 C 38.261719 316.839844 38.273438 317.371094 38.210938 317.6875 "/>
<path style=" stroke:none;fill-rule:nonzero;fill:rgb(35.289001%,53.729248%,63.529968%);fill-opacity:1;" d="M 166.269531 230.929688 C 166.707031 230.425781 167.136719 229.925781 167.5625 229.421875 C 166.988281 229.550781 166.289062 229.746094 165.421875 229.988281 C 165.683594 230.386719 165.964844 230.679688 166.269531 230.929688 "/>
<path style=" stroke:none;fill-rule:nonzero;fill:rgb(35.289001%,53.729248%,63.529968%);fill-opacity:1;" d="M 68.726562 297.449219 C 68.664062 297.210938 68.589844 296.96875 68.527344 296.738281 C 68.308594 296.863281 68.078125 296.992188 67.859375 297.117188 C 67.984375 297.242188 68.121094 297.355469 68.257812 297.480469 C 68.390625 297.472656 68.558594 297.460938 68.726562 297.449219 "/>
<path style=" stroke:none;fill-rule:nonzero;fill:rgb(35.289001%,53.729248%,63.529968%);fill-opacity:1;" d="M 7.367188 109.964844 C 7.265625 110.238281 7.253906 110.550781 7.210938 110.855469 C 7.496094 110.824219 7.789062 110.78125 8.070312 110.75 C 8.007812 110.457031 7.953125 110.15625 7.851562 109.882812 C 7.839844 109.851562 7.398438 109.882812 7.367188 109.964844 "/>
<path style=" stroke:none;fill-rule:nonzero;fill:rgb(35.289001%,53.729248%,63.529968%);fill-opacity:1;" d="M 123.351562 194.472656 C 123.363281 194.484375 123.382812 194.484375 123.394531 194.484375 C 123.339844 194.097656 123.207031 193.605469 123.164062 193.230469 C 122.527344 193.335938 121.699219 193.21875 121.292969 193.585938 C 120.863281 193.953125 120.832031 194.777344 120.433594 196.023438 C 121.816406 195.613281 122.726562 195.550781 123.308594 195.082031 C 123.332031 194.882812 123.339844 194.683594 123.351562 194.472656 "/>
<path style=" stroke:none;fill-rule:nonzero;fill:rgb(35.289001%,53.729248%,63.529968%);fill-opacity:1;" d="M 180.507812 207.453125 C 180.121094 207.253906 179.128906 207.367188 179.105469 207.503906 C 178.96875 208.101562 179.074219 208.75 179.09375 209.574219 C 179.921875 209.4375 180.601562 209.511719 180.863281 209.261719 C 180.976562 209.011719 181.09375 208.769531 181.195312 208.519531 C 181.21875 208.089844 180.976562 207.683594 180.507812 207.453125 "/>
<path style=" stroke:none;fill-rule:nonzero;fill:rgb(35.289001%,53.729248%,63.529968%);fill-opacity:1;" d="M 137.058594 191.203125 C 137.320312 191.222656 137.601562 190.949219 137.882812 190.804688 C 137.8125 190.53125 137.726562 190.269531 137.652344 190 C 137.296875 190.175781 136.933594 190.34375 136.578125 190.523438 C 136.734375 190.761719 136.878906 191.191406 137.058594 191.203125 "/>
<path style=" stroke:none;fill-rule:nonzero;fill:rgb(35.289001%,53.729248%,63.529968%);fill-opacity:1;" d="M 25.539062 255.171875 C 25.601562 255.296875 25.800781 255.347656 25.945312 255.433594 C 26.0625 255.367188 26.175781 255.296875 26.292969 255.222656 C 26.09375 255.066406 25.882812 254.898438 25.683594 254.730469 C 25.632812 254.878906 25.496094 255.066406 25.539062 255.171875 "/>
<path style=" stroke:none;fill-rule:nonzero;fill:rgb(35.289001%,53.729248%,63.529968%);fill-opacity:1;" d="M 11.195312 38.75 C 11.226562 38.332031 11.039062 37.882812 10.933594 37.441406 C 10.503906 37.539062 10.234375 37.589844 9.960938 37.640625 C 10.128906 38.1875 10.308594 38.738281 10.472656 39.285156 C 10.734375 39.117188 11.183594 38.949219 11.195312 38.75 "/>
<path style=" stroke:none;fill-rule:nonzero;fill:rgb(35.289001%,53.729248%,63.529968%);fill-opacity:1;" d="M 71.089844 125.027344 C 70.859375 124.910156 70.492188 124.921875 70.167969 125.003906 C 70.230469 125.027344 70.285156 125.046875 70.335938 125.066406 C 70.253906 125.183594 70.179688 125.371094 70.074219 125.390625 C 69.972656 125.421875 69.824219 125.285156 69.699219 125.222656 C 69.4375 125.453125 69.542969 126.09375 69.425781 127.054688 C 70.378906 126.710938 70.996094 126.582031 71.464844 126.25 C 71.589844 126.144531 71.371094 125.160156 71.089844 125.027344 "/>
<path style=" stroke:none;fill-rule:nonzero;fill:rgb(35.289001%,53.729248%,63.529968%);fill-opacity:1;" d="M 148.210938 409.355469 C 147.105469 408.90625 145.921875 408.613281 144.753906 408.351562 C 144.5625 408.3125 144.136719 408.707031 144.0625 408.96875 C 143.988281 409.242188 144.113281 409.808594 144.304688 409.878906 C 145.535156 410.414062 146.8125 410.851562 149.050781 411.679688 C 148.546875 410.195312 148.503906 409.472656 148.210938 409.355469 "/>
<path style=" stroke:none;fill-rule:nonzero;fill:rgb(35.289001%,53.729248%,63.529968%);fill-opacity:1;" d="M 165.148438 171.96875 C 165.023438 171.886719 164.898438 171.792969 164.761719 171.707031 C 164.667969 171.824219 164.492188 171.9375 164.492188 172.042969 C 164.5 172.1875 164.65625 172.324219 164.753906 172.460938 C 164.886719 172.304688 165.023438 172.136719 165.148438 171.96875 "/>
<path style=" stroke:none;fill-rule:nonzero;fill:rgb(35.289001%,53.729248%,63.529968%);fill-opacity:1;" d="M 113.210938 502.410156 C 113.074219 502.578125 113.261719 503.109375 113.421875 503.414062 C 114.097656 504.835938 114.550781 504.910156 117.550781 503.976562 C 117.007812 502.890625 116.492188 501.832031 115.636719 500.097656 C 114.414062 501.238281 113.753906 501.769531 113.210938 502.410156 "/>
<path style=" stroke:none;fill-rule:nonzero;fill:rgb(35.289001%,53.729248%,63.529968%);fill-opacity:1;" d="M 14.949219 566.230469 C 15.398438 566.316406 15.992188 566.597656 16.285156 566.410156 C 16.757812 566.09375 17.039062 565.488281 17.65625 564.671875 C 16.671875 564.558594 15.972656 564.285156 15.785156 564.496094 C 15.367188 564.945312 15.210938 565.644531 14.949219 566.230469 "/>
<path style=" stroke:none;fill-rule:nonzero;fill:rgb(35.289001%,53.729248%,63.529968%);fill-opacity:1;" d="M 57.175781 157.800781 C 57.183594 157.738281 56.453125 157.476562 56.390625 157.558594 C 55.941406 158.125 55.574219 158.75 54.863281 159.859375 C 55.984375 159.746094 56.683594 159.839844 56.796875 159.621094 C 57.089844 159.085938 57.121094 158.417969 57.175781 157.800781 "/>
<path style=" stroke:none;fill-rule:nonzero;fill:rgb(35.289001%,53.729248%,63.529968%);fill-opacity:1;" d="M 9.34375 231.191406 C 9.449219 230.785156 9.554688 230.363281 9.660156 229.945312 C 9.335938 229.90625 9.011719 229.851562 8.695312 229.8125 C 8.601562 230.125 8.351562 230.523438 8.464844 230.730469 C 8.601562 230.972656 9.042969 231.042969 9.34375 231.191406 "/>
<path style=" stroke:none;fill-rule:nonzero;fill:rgb(35.289001%,53.729248%,63.529968%);fill-opacity:1;" d="M 127.074219 133.726562 C 126.824219 133.328125 126.632812 132.898438 126.320312 132.605469 C 126.226562 132.523438 125.527344 132.859375 125.535156 132.910156 C 125.632812 133.339844 125.820312 133.757812 125.988281 134.175781 C 126.289062 134.050781 126.59375 133.925781 127.074219 133.726562 "/>
<path style=" stroke:none;fill-rule:nonzero;fill:rgb(35.289001%,53.729248%,63.529968%);fill-opacity:1;" d="M 27.136719 298.851562 C 27.167969 299.03125 27.597656 299.15625 27.859375 299.289062 C 28.007812 298.925781 28.152344 298.558594 28.300781 298.183594 C 28.027344 298.128906 27.753906 298.066406 27.492188 298.003906 C 27.359375 298.296875 27.097656 298.589844 27.136719 298.851562 "/>
<path style=" stroke:none;fill-rule:nonzero;fill:rgb(35.289001%,53.729248%,63.529968%);fill-opacity:1;" d="M 120.339844 586.339844 C 120.257812 586.539062 120.519531 586.875 120.632812 587.148438 C 120.90625 587.03125 121.324219 586.988281 121.40625 586.792969 C 121.492188 586.601562 121.230469 586.257812 121.113281 585.984375 C 120.84375 586.101562 120.414062 586.152344 120.339844 586.339844 "/>
<path style=" stroke:none;fill-rule:nonzero;fill:rgb(35.289001%,53.729248%,63.529968%);fill-opacity:1;" d="M 85.234375 302.0625 C 84.972656 302.03125 84.710938 302.011719 84.441406 301.980469 C 84.492188 302.304688 84.542969 302.625 84.605469 302.941406 C 84.773438 302.972656 84.941406 303.003906 85.109375 303.035156 C 85.160156 302.710938 85.203125 302.386719 85.234375 302.0625 "/>
<path style=" stroke:none;fill-rule:nonzero;fill:rgb(35.289001%,53.729248%,63.529968%);fill-opacity:1;" d="M 117.164062 355.113281 C 117.109375 354.957031 117.070312 354.800781 117.015625 354.644531 C 116.871094 354.683594 116.722656 354.738281 116.566406 354.789062 C 116.628906 354.9375 116.652344 355.132812 116.765625 355.230469 C 116.816406 355.28125 117.015625 355.15625 117.164062 355.113281 "/>
<path style=" stroke:none;fill-rule:nonzero;fill:rgb(35.289001%,53.729248%,63.529968%);fill-opacity:1;" d="M 130.085938 402.519531 C 130 402.675781 130.261719 403.03125 130.367188 403.292969 C 130.617188 403.175781 131.027344 403.09375 131.066406 402.925781 C 131.128906 402.652344 130.953125 402.328125 130.878906 402.027344 C 130.597656 402.183594 130.21875 402.277344 130.085938 402.519531 "/>
<path style=" stroke:none;fill-rule:nonzero;fill:rgb(35.289001%,53.729248%,63.529968%);fill-opacity:1;" d="M 54.519531 522.183594 C 54.007812 521.871094 53.828125 522.027344 54.070312 522.570312 C 54.121094 522.707031 54.308594 522.8125 54.457031 522.84375 C 54.539062 522.863281 54.65625 522.695312 54.757812 522.601562 C 54.675781 522.464844 54.644531 522.257812 54.519531 522.183594 "/>
<path style=" stroke:none;fill-rule:nonzero;fill:rgb(35.289001%,53.729248%,63.529968%);fill-opacity:1;" d="M 6.949219 529.703125 L 6.835938 529.378906 L 6.636719 529.527344 Z M 6.949219 529.703125 "/>
<path style=" stroke:none;fill-rule:nonzero;fill:rgb(35.289001%,53.729248%,63.529968%);fill-opacity:1;" d="M 15.941406 248.101562 C 15.804688 248.039062 15.679688 247.953125 15.542969 247.933594 C 15.503906 247.921875 15.441406 248.113281 15.378906 248.214844 C 15.472656 248.332031 15.554688 248.457031 15.636719 248.582031 C 15.742188 248.425781 15.835938 248.257812 15.941406 248.101562 "/>
<path style=" stroke:none;fill-rule:nonzero;fill:rgb(35.289001%,53.729248%,63.529968%);fill-opacity:1;" d="M 163.664062 473.003906 C 163.519531 472.730469 163.058594 472.332031 162.890625 472.394531 C 161.46875 472.917969 159.941406 473.378906 159.839844 475.679688 C 161.132812 475.167969 162.429688 474.65625 163.675781 474.171875 C 163.6875 473.671875 163.789062 473.285156 163.664062 473.003906 "/>
<path style=" stroke:none;fill-rule:nonzero;fill:rgb(35.289001%,53.729248%,63.529968%);fill-opacity:1;" d="M 159.273438 147.488281 C 159.441406 148.742188 159.347656 149.644531 159.691406 150.3125 C 160.058594 151.023438 161.46875 150.867188 162.066406 150.175781 C 162.347656 149.851562 162.523438 149.476562 162.597656 149.109375 C 161.867188 148.574219 161.132812 148.042969 160.390625 147.519531 C 160.046875 147.519531 159.679688 147.519531 159.273438 147.488281 "/>
<path style=" stroke:none;fill-rule:nonzero;fill:rgb(35.289001%,53.729248%,63.529968%);fill-opacity:1;" d="M 74.164062 211.800781 C 73.921875 211.445312 73.546875 210.964844 73.210938 210.957031 C 72.898438 210.945312 72.5625 211.46875 71.925781 212.023438 C 72.75 212.273438 73.191406 212.492188 73.621094 212.492188 C 73.816406 212.492188 74.214844 211.886719 74.164062 211.800781 "/>
<path style=" stroke:none;fill-rule:nonzero;fill:rgb(35.289001%,53.729248%,63.529968%);fill-opacity:1;" d="M 38.460938 300.859375 C 38.617188 300.546875 38.355469 299.992188 38.167969 299.59375 C 38.136719 299.53125 37.4375 299.605469 37.320312 299.792969 C 37.101562 300.128906 37.089844 300.597656 36.902344 301.351562 C 37.6875 301.132812 38.335938 301.121094 38.460938 300.859375 "/>
<path style=" stroke:none;fill-rule:nonzero;fill:rgb(35.289001%,53.729248%,63.529968%);fill-opacity:1;" d="M 101.710938 474.84375 C 101.710938 474.757812 101.019531 474.425781 100.9375 474.507812 C 100.632812 474.789062 100.46875 475.199219 100.238281 475.585938 C 100.71875 475.816406 101.011719 475.960938 101.304688 476.109375 C 101.449219 475.691406 101.648438 475.269531 101.710938 474.84375 "/>
<path style=" stroke:none;fill-rule:nonzero;fill:rgb(35.289001%,53.729248%,63.529968%);fill-opacity:1;" d="M 102.964844 379.15625 C 103.058594 378.863281 103.277344 378.519531 103.195312 378.296875 C 103.132812 378.121094 102.695312 378.066406 102.421875 377.964844 C 102.316406 378.246094 102.054688 378.613281 102.160156 378.789062 C 102.265625 379 102.683594 379.039062 102.964844 379.15625 "/>
<path style=" stroke:none;fill-rule:nonzero;fill:rgb(35.289001%,53.729248%,63.529968%);fill-opacity:1;" d="M 19.800781 527.035156 C 19.902344 527.121094 20.007812 527.257812 20.125 527.265625 C 20.226562 527.265625 20.332031 527.121094 20.4375 527.046875 C 20.386719 526.921875 20.332031 526.796875 20.289062 526.671875 C 20.125 526.796875 19.964844 526.910156 19.800781 527.035156 "/>
<path style=" stroke:none;fill-rule:nonzero;fill:rgb(35.289001%,53.729248%,63.529968%);fill-opacity:1;" d="M 64.378906 345.964844 C 64.660156 346.078125 64.964844 346.140625 65.257812 346.214844 C 65.265625 346.046875 65.351562 345.753906 65.296875 345.734375 C 65.027344 345.617188 64.734375 345.566406 64.449219 345.480469 C 64.417969 345.648438 64.347656 345.941406 64.378906 345.964844 "/>
<path style=" stroke:none;fill-rule:nonzero;fill:rgb(35.289001%,53.729248%,63.529968%);fill-opacity:1;" d="M 108.621094 422.492188 C 108.339844 422.722656 108.183594 423.570312 108.382812 423.832031 C 108.902344 424.480469 109.457031 425.097656 110.03125 425.703125 C 110.042969 425.703125 110.054688 425.703125 110.0625 425.703125 C 110.441406 425.710938 111.015625 426.226562 111.109375 426.613281 C 111.121094 426.664062 111.109375 426.738281 111.078125 426.8125 C 111.203125 426.945312 111.339844 427.082031 111.464844 427.230469 C 111.632812 427.039062 111.800781 426.851562 111.96875 426.664062 C 111.308594 425.292969 110.710938 423.882812 109.949219 422.566406 C 109.8125 422.335938 108.882812 422.273438 108.621094 422.492188 "/>
<path style=" stroke:none;fill-rule:nonzero;fill:rgb(35.289001%,53.729248%,63.529968%);fill-opacity:1;" d="M 97.132812 350.460938 C 98.625 352.25 98.625 352.25 101.449219 349.675781 C 99.660156 349.875 98.34375 349.488281 97.132812 350.460938 "/>
<path style=" stroke:none;fill-rule:nonzero;fill:rgb(35.289001%,53.729248%,63.529968%);fill-opacity:1;" d="M 0.386719 199.609375 C 0.636719 199.558594 1.035156 199.148438 1.003906 198.949219 C 0.867188 197.945312 0.605469 196.964844 0.261719 195.394531 C -1.683594 197.121094 -1.214844 198.238281 -0.523438 199.304688 C -0.386719 199.527344 0.101562 199.671875 0.386719 199.609375 "/>
<path style=" stroke:none;fill-rule:nonzero;fill:rgb(35.289001%,53.729248%,63.529968%);fill-opacity:1;" d="M 88.421875 269.027344 C 88.328125 269.308594 88.066406 269.675781 88.160156 269.851562 C 88.265625 270.050781 88.683594 270.09375 88.976562 270.207031 C 89.0625 269.925781 89.289062 269.582031 89.207031 269.363281 C 89.125 269.171875 88.695312 269.132812 88.421875 269.027344 "/>
<path style=" stroke:none;fill-rule:nonzero;fill:rgb(35.289001%,53.729248%,63.529968%);fill-opacity:1;" d="M 43.675781 355.941406 C 43.636719 355.972656 43.710938 356.335938 43.773438 356.359375 C 44 356.410156 44.253906 356.390625 44.492188 356.390625 C 44.472656 356.128906 44.441406 355.867188 44.410156 355.617188 C 44.167969 355.71875 43.90625 355.804688 43.675781 355.941406 "/>
<path style=" stroke:none;fill-rule:nonzero;fill:rgb(35.289001%,53.729248%,63.529968%);fill-opacity:1;" d="M 69.542969 361.640625 C 69.605469 361.511719 69.648438 361.386719 69.679688 361.253906 C 69.574219 361.074219 69.457031 360.90625 69.355469 360.738281 C 69.34375 360.738281 69.332031 360.738281 69.324219 360.738281 C 69.195312 361.023438 69.144531 361.324219 69.0625 361.617188 C 69.230469 361.628906 69.519531 361.691406 69.542969 361.640625 "/>
<path style=" stroke:none;fill-rule:nonzero;fill:rgb(35.289001%,53.729248%,63.529968%);fill-opacity:1;" d="M 68.800781 431.601562 C 69.605469 430.992188 70.484375 430.386719 70.996094 429.5625 C 71.140625 429.320312 70.191406 428.402344 69.425781 427.34375 C 68.714844 428.796875 68.195312 429.675781 67.890625 430.628906 C 67.828125 430.847656 68.757812 431.632812 68.800781 431.601562 "/>
<path style=" stroke:none;fill-rule:nonzero;fill:rgb(35.289001%,53.729248%,63.529968%);fill-opacity:1;" d="M 39.957031 283.773438 C 39.820312 283.574219 39.632812 283.394531 39.453125 283.21875 C 39.359375 283.4375 39.296875 283.667969 39.222656 283.90625 C 39.433594 283.992188 39.632812 284.085938 39.839844 284.167969 C 39.882812 284.035156 40.007812 283.855469 39.957031 283.773438 "/>
<path style=" stroke:none;fill-rule:nonzero;fill:rgb(35.289001%,53.729248%,63.529968%);fill-opacity:1;" d="M 122.882812 153.574219 C 122.914062 153.542969 122.757812 153.21875 122.652344 153.1875 C 122.410156 153.113281 122.140625 153.15625 121.867188 153.144531 C 122.003906 153.480469 122.128906 153.773438 122.253906 154.054688 C 122.464844 153.910156 122.691406 153.761719 122.882812 153.574219 "/>
<path style=" stroke:none;fill-rule:nonzero;fill:rgb(35.289001%,53.729248%,63.529968%);fill-opacity:1;" d="M 57.144531 262.332031 C 56.902344 262.238281 56.628906 262.230469 56.359375 262.1875 C 56.339844 262.449219 56.316406 262.710938 56.296875 262.980469 C 56.628906 262.910156 56.933594 262.867188 57.214844 262.761719 C 57.246094 262.761719 57.214844 262.355469 57.144531 262.332031 "/>
<path style=" stroke:none;fill-rule:nonzero;fill:rgb(35.289001%,53.729248%,63.529968%);fill-opacity:1;" d="M 37.886719 556.078125 C 37.761719 556.054688 37.636719 556.035156 37.507812 556.003906 C 37.476562 556.222656 37.4375 556.441406 37.40625 556.664062 C 37.53125 556.609375 37.65625 556.546875 37.78125 556.496094 C 37.824219 556.359375 37.855469 556.214844 37.886719 556.078125 "/>
<path style=" stroke:none;fill-rule:nonzero;fill:rgb(35.289001%,53.729248%,63.529968%);fill-opacity:1;" d="M -0.0234375 538.519531 C 0.09375 538.5625 0.21875 538.613281 0.332031 538.65625 C 0.195312 538.476562 0.0507812 538.308594 -0.09375 538.132812 C -0.0742188 538.257812 -0.0546875 538.382812 -0.0234375 538.519531 "/>
<path style=" stroke:none;fill-rule:nonzero;fill:rgb(35.289001%,53.729248%,63.529968%);fill-opacity:1;" d="M 70.421875 578.238281 C 70.328125 578.695312 70.222656 579.167969 70.117188 579.628906 C 70.578125 579.722656 71.027344 579.828125 71.78125 579.984375 C 71.613281 579.304688 71.601562 578.824219 71.371094 578.488281 C 71.226562 578.289062 70.753906 578.308594 70.421875 578.238281 "/>
<path style=" stroke:none;fill-rule:nonzero;fill:rgb(35.289001%,53.729248%,63.529968%);fill-opacity:1;" d="M 111.414062 178.117188 C 111.613281 177.542969 111.546875 176.402344 111.214844 176.214844 C 110.609375 175.871094 109.707031 176.058594 108.421875 176.007812 C 108.726562 177.125 108.726562 177.878906 109.082031 178.339844 C 109.625 179.007812 111.160156 178.859375 111.414062 178.117188 "/>
<path style=" stroke:none;fill-rule:nonzero;fill:rgb(35.289001%,53.729248%,63.529968%);fill-opacity:1;" d="M 70.335938 125.066406 C 70.285156 125.046875 70.230469 125.027344 70.167969 125.003906 C 70.035156 124.953125 69.886719 124.898438 69.742188 124.835938 C 69.730469 124.960938 69.710938 125.097656 69.699219 125.222656 C 69.824219 125.285156 69.972656 125.421875 70.074219 125.390625 C 70.179688 125.371094 70.253906 125.183594 70.335938 125.066406 "/>
<path style=" stroke:none;fill-rule:nonzero;fill:rgb(35.289001%,53.729248%,63.529968%);fill-opacity:1;" d="M 70.347656 528.332031 C 70.492188 528.292969 70.777344 528.28125 70.777344 528.230469 C 70.808594 527.976562 70.765625 527.714844 70.746094 527.453125 C 70.585938 527.464844 70.441406 527.476562 70.285156 527.484375 C 70.304688 527.769531 70.328125 528.050781 70.347656 528.332031 "/>
<path style=" stroke:none;fill-rule:nonzero;fill:rgb(35.289001%,53.729248%,63.529968%);fill-opacity:1;" d="M 106.144531 543.140625 C 104.847656 544.449219 105.472656 545.652344 106.425781 546.980469 C 107.398438 545.796875 108.296875 544.71875 109.269531 543.550781 C 106.636719 542.703125 106.605469 542.671875 106.144531 543.140625 "/>
<path style=" stroke:none;fill-rule:nonzero;fill:rgb(35.289001%,53.729248%,63.529968%);fill-opacity:1;" d="M 65.015625 404.703125 C 64.261719 404.316406 63.511719 403.910156 62.769531 403.523438 C 61.722656 404.640625 60.53125 405.613281 62.246094 407.277344 C 63.4375 406.765625 64.921875 406.636719 65.015625 404.703125 "/>
<path style=" stroke:none;fill-rule:nonzero;fill:rgb(35.289001%,53.729248%,63.529968%);fill-opacity:1;" d="M 157.777344 429.152344 C 157.546875 428.890625 155.855469 429.183594 155.875 429.4375 C 155.949219 430.375 156.347656 431.453125 156.902344 432.363281 C 157.015625 432.5625 157.988281 432.425781 159.074219 432.386719 C 158.9375 431.769531 158.792969 431.152344 158.648438 430.542969 C 158.386719 430 158.125 429.539062 157.777344 429.152344 "/>
<path style=" stroke:none;fill-rule:nonzero;fill:rgb(35.289001%,53.729248%,63.529968%);fill-opacity:1;" d="M 21.722656 423.632812 C 21.484375 423.925781 21.222656 424.164062 21.042969 424.449219 C 20.867188 424.742188 20.707031 425.066406 20.636719 425.398438 C 20.289062 426.863281 20.707031 427.074219 23.144531 426.433594 C 22.402344 425.578125 23.53125 424.058594 21.722656 423.632812 "/>
<path style=" stroke:none;fill-rule:nonzero;fill:rgb(35.289001%,53.729248%,63.529968%);fill-opacity:1;" d="M 75.175781 180.722656 C 75.605469 180.679688 76.097656 180.617188 76.390625 180.355469 C 76.515625 180.242188 76.210938 179.644531 76.109375 179.269531 C 75.691406 179.445312 75.261719 179.625 74.84375 179.8125 C 74.988281 180.222656 75.105469 180.734375 75.175781 180.722656 "/>
<path style=" stroke:none;fill-rule:nonzero;fill:rgb(35.289001%,53.729248%,63.529968%);fill-opacity:1;" d="M 34.457031 381.6875 C 34.40625 381.824219 34.8125 382.167969 35 382.417969 C 35.355469 382.136719 35.710938 381.855469 36.066406 381.582031 C 35.859375 381.332031 35.648438 381.078125 35.3125 380.671875 C 35 381.027344 34.632812 381.308594 34.457031 381.6875 "/>
<path style=" stroke:none;fill-rule:nonzero;fill:rgb(35.289001%,53.729248%,63.529968%);fill-opacity:1;" d="M 100.570312 218.054688 C 100.039062 218.015625 99.441406 217.910156 99.421875 217.972656 C 99.285156 218.441406 99.085938 219.027344 99.242188 219.4375 C 99.535156 220.210938 100.121094 219.824219 100.371094 219.382812 C 100.59375 219.027344 100.519531 218.507812 100.570312 218.054688 "/>
<path style=" stroke:none;fill-rule:nonzero;fill:rgb(35.289001%,53.729248%,63.529968%);fill-opacity:1;" d="M 123.308594 195.082031 C 123.445312 195.058594 123.570312 195.039062 123.695312 195.019531 C 123.71875 194.882812 123.8125 194.695312 123.75 194.621094 C 123.6875 194.527344 123.53125 194.515625 123.394531 194.484375 C 123.382812 194.484375 123.363281 194.484375 123.351562 194.472656 C 123.339844 194.683594 123.332031 194.882812 123.308594 195.082031 "/>
<path style=" stroke:none;fill-rule:nonzero;fill:rgb(35.289001%,53.729248%,63.529968%);fill-opacity:1;" d="M 98.5 314.863281 C 98.625 314.894531 98.785156 314.769531 98.929688 314.707031 C 98.753906 314.527344 98.574219 314.351562 98.398438 314.171875 C 98.335938 314.289062 98.269531 314.402344 98.207031 314.527344 C 98.304688 314.644531 98.375 314.820312 98.5 314.863281 "/>
<path style=" stroke:none;fill-rule:nonzero;fill:rgb(35.289001%,53.729248%,63.529968%);fill-opacity:1;" d="M 120.121094 585.171875 C 120.277344 585.472656 120.425781 585.777344 120.570312 586.082031 C 120.757812 586.046875 120.9375 586.015625 121.113281 585.984375 C 120.96875 585.691406 120.84375 585.378906 120.644531 585.128906 C 120.59375 585.042969 120.308594 585.148438 120.121094 585.171875 "/>
<path style=" stroke:none;fill-rule:nonzero;fill:rgb(35.289001%,53.729248%,63.529968%);fill-opacity:1;" d="M 58.386719 226.902344 C 56.210938 224.769531 55.992188 224.886719 53.976562 229.046875 C 56.085938 229.339844 57.226562 228.210938 58.386719 226.902344 "/>
</g>
</svg>
