<?xml version="1.0" encoding="UTF-8"?>
<svg xmlns="http://www.w3.org/2000/svg" xmlns:xlink="http://www.w3.org/1999/xlink" width="300pt" height="299.999988pt" viewBox="0 0 300 299.999988" version="1.2">
<defs>
<clipPath id="clip1">
  <path d="M 0.96875 0.816406 L 297.933594 0.816406 L 297.933594 297.832031 L 0.96875 297.832031 Z M 0.96875 0.816406 "/>
</clipPath>
</defs>
<g id="surface1">
<path style=" stroke:none;fill-rule:nonzero;fill:rgb(35.289001%,53.729248%,63.529968%);fill-opacity:1;" d="M 242.9375 204.484375 C 241.273438 205.136719 239.328125 205.042969 237.660156 203.992188 L 111.601562 124.492188 C 109.5625 123.207031 108.515625 120.808594 108.953125 118.4375 L 127.464844 18.539062 C 127.855469 16.417969 129.320312 14.820312 131.144531 14.117188 C 131.621094 13.9375 132.023438 14.507812 131.714844 14.90625 C 131.167969 15.617188 130.769531 16.464844 130.59375 17.421875 L 112.082031 117.320312 C 111.644531 119.6875 112.695312 122.089844 114.730469 123.375 L 240.789062 202.871094 C 241.449219 203.289062 242.148438 203.550781 242.863281 203.675781 C 243.289062 203.757812 243.339844 204.328125 242.9375 204.484375 Z M 280.257812 63.734375 L 138.457031 3.746094 C 131.746094 0.902344 124.140625 5.042969 122.875 12.222656 L 101.984375 130.789062 L 102.117188 130.871094 L 101.871094 130.839844 L 6.136719 172.410156 C 1.089844 174.605469 0.0546875 181.316406 4.210938 184.929688 L 119.34375 285.023438 C 128.394531 292.890625 141.609375 293.660156 151.511719 286.894531 L 246.105469 222.257812 L 245.914062 222.132812 L 246.21875 222.203125 L 292.496094 91.515625 C 296.402344 80.476562 291.039062 68.296875 280.257812 63.734375 "/>
<path style=" stroke:none;fill-rule:nonzero;fill:rgb(1.959229%,39.99939%,57.649231%);fill-opacity:1;" d="M 282.890625 93.011719 L 246.367188 200.898438 C 245.707031 202.863281 244.128906 204.203125 242.316406 204.6875 C 242.527344 204.632812 242.734375 204.5625 242.9375 204.484375 C 243.339844 204.328125 243.289062 203.757812 242.863281 203.675781 C 242.148438 203.550781 241.449219 203.289062 240.789062 202.871094 L 114.730469 123.375 C 112.695312 122.089844 111.644531 119.6875 112.082031 117.320312 L 130.59375 17.421875 C 130.769531 16.464844 131.167969 15.617188 131.714844 14.90625 C 132.023438 14.507812 131.621094 13.941406 131.148438 14.117188 C 132.535156 13.585938 134.128906 13.566406 135.628906 14.230469 L 275.460938 76.09375 C 281.941406 78.960938 285.164062 86.296875 282.890625 93.011719 "/>
<path style=" stroke:none;fill-rule:nonzero;fill:rgb(79.60968%,83.529663%,87.449646%);fill-opacity:1;" d="M 129.308594 3.878906 C 129.320312 3.875 129.324219 3.871094 129.335938 3.867188 C 129.324219 3.871094 129.308594 3.878906 129.308594 3.878906 Z M 283.746094 62.355469 L 141.9375 2.386719 C 139.03125 1.160156 135.960938 1.242188 133.308594 2.304688 C 133.308594 2.304688 133.222656 2.339844 133.222656 2.339844 C 133.222656 2.339844 131.609375 2.972656 130.453125 3.429688 C 132.949219 2.59375 135.765625 2.617188 138.433594 3.746094 L 280.242188 63.714844 C 291.027344 68.273438 296.394531 80.453125 292.484375 91.496094 L 246.230469 222.1875 L 245.925781 222.121094 L 246.117188 222.242188 L 151.53125 286.894531 C 141.632812 293.660156 128.417969 292.894531 119.367188 285.027344 L 4.214844 184.953125 C 2.738281 183.671875 1.929688 181.992188 1.710938 180.269531 C 1.707031 180.269531 1.703125 180.269531 1.703125 180.269531 L 1.640625 184.835938 C 1.59375 186.9375 2.421875 189.074219 4.214844 190.632812 L 119.367188 290.710938 C 128.417969 298.574219 141.632812 299.339844 151.53125 292.574219 L 247.734375 225.714844 L 295.984375 90.136719 C 299.894531 79.09375 294.527344 66.917969 283.746094 62.355469 Z M 131.121094 14.121094 C 129.296875 14.820312 127.835938 16.421875 127.445312 18.542969 L 108.949219 118.445312 C 108.507812 120.816406 109.558594 123.214844 111.597656 124.496094 L 237.667969 203.972656 C 239.335938 205.027344 241.285156 205.121094 242.945312 204.46875 C 243.351562 204.308594 243.296875 203.742188 242.867188 203.664062 C 242.160156 203.535156 241.457031 203.269531 240.796875 202.855469 L 114.726562 123.378906 C 112.6875 122.09375 111.640625 119.695312 112.078125 117.328125 L 130.574219 17.425781 C 130.75 16.46875 131.144531 15.617188 131.695312 14.910156 C 132.003906 14.507812 131.597656 13.9375 131.121094 14.121094 Z M 132.554688 216.8125 L 150.429688 230.285156 C 157.808594 225.773438 169.835938 218.296875 180.085938 211.914062 L 84.421875 144.5625 L 45.917969 161.257812 L 121.699219 218.023438 L 114.894531 221.550781 L 136.683594 238.195312 L 143.527344 234.375 C 143.585938 234.414062 145.34375 233.378906 148.203125 231.640625 L 133.980469 221.046875 L 129.191406 223.636719 L 125.734375 221.046875 Z M 183.660156 214.390625 L 147.164062 237.097656 L 177.5 259.816406 L 214.417969 235.671875 C 208.421875 231.5625 191.175781 219.605469 183.660156 214.390625 Z M 217.394531 233.722656 L 222.464844 230.410156 L 191.476562 209.527344 L 186.71875 212.484375 Z M 159.8125 188.179688 L 155.25 190.980469 L 183.140625 210.007812 C 184.78125 208.980469 186.363281 207.996094 187.839844 207.074219 Z M 155.40625 185.214844 L 128.625 167.164062 L 124.425781 169.949219 L 150.527344 187.757812 Z M 124.625 164.46875 L 90.917969 141.746094 L 86.132812 143.820312 L 119.859375 166.832031 C 119.949219 166.894531 122.363281 165.652344 124.625 164.46875 Z M 66.65625 189.0625 L 88.121094 205.863281 C 89.144531 206.664062 88.996094 208.261719 87.84375 208.855469 L 65.554688 220.394531 C 63.398438 221.515625 60.773438 221.164062 58.984375 219.519531 L 41.550781 203.496094 C 40.632812 202.65625 40.839844 201.160156 41.941406 200.59375 L 64.742188 188.878906 C 65.359375 188.558594 66.109375 188.628906 66.65625 189.0625 "/>
<path style=" stroke:none;fill-rule:nonzero;fill:rgb(79.60968%,83.529663%,87.449646%);fill-opacity:1;" d="M 169.773438 151.664062 L 269.242188 119.5 L 274.09375 105.75 L 157.472656 144.5625 Z M 119.777344 121.535156 L 260.503906 74.515625 C 260.503906 74.515625 283.613281 82.003906 276.992188 95.496094 L 146.546875 136.984375 L 119.777344 121.535156 "/>
<g clip-path="url(#clip1)" clip-rule="nonzero">
<path style=" stroke:none;fill-rule:nonzero;fill:rgb(3.919983%,25.489807%,27.059937%);fill-opacity:1;" d="M 51.707031 164.761719 C 51.710938 164.765625 51.710938 164.765625 51.714844 164.765625 Z M 54.039062 158.460938 L 58.144531 161.554688 C 55.636719 162.71875 52.394531 164.191406 51.441406 164.5625 L 47.234375 161.414062 Z M 88.457031 148.214844 L 82.28125 150.90625 L 78.148438 148.007812 L 84.347656 145.324219 Z M 173.773438 215.054688 L 161.238281 206.265625 L 166.089844 202.875 L 178.878906 211.878906 C 177.113281 212.976562 175.414062 214.035156 173.773438 215.054688 Z M 150.464844 229.484375 L 132.820312 216.179688 L 139.875 212.152344 L 157.652344 225.058594 C 154.871094 226.777344 152.464844 228.257812 150.464844 229.484375 Z M 133.921875 221.832031 L 139.6875 226.128906 C 138.6875 226.789062 137.578125 227.523438 136.472656 228.253906 L 130.421875 223.726562 Z M 143.609375 233.597656 L 137.609375 229.105469 C 138.554688 228.476562 139.621094 227.769531 140.820312 226.972656 L 147.015625 231.585938 C 144.917969 232.851562 144.003906 233.378906 143.609375 233.597656 Z M 131.265625 233.222656 C 132.191406 232.675781 133.742188 231.667969 136.429688 229.886719 L 142.3125 234.289062 L 136.738281 237.402344 Z M 128.792969 224.167969 L 135.289062 229.03125 C 132.992188 230.539062 130.914062 231.890625 130.136719 232.359375 L 123.039062 226.933594 L 127.984375 223.5625 Z M 121.636719 218.804688 L 125.335938 221.578125 L 126.859375 222.714844 L 121.925781 226.085938 L 116.132812 221.660156 Z M 57.355469 168.992188 Z M 63.625 165.6875 C 60.820312 167.0625 57.960938 168.425781 57.082031 168.789062 L 52.683594 165.496094 C 53.824219 165.023438 55.804688 164.113281 59.351562 162.464844 Z M 73.074219 163.664062 L 66.78125 166.398438 L 55.441406 157.851562 L 61.46875 155.242188 Z M 77.933594 157.257812 L 70.640625 160.253906 L 62.886719 154.625 L 70.039062 151.527344 C 70.921875 152.160156 73.757812 154.21875 77.933594 157.257812 Z M 83.203125 153.175781 L 77.800781 155.511719 C 76.625 154.660156 75.5625 153.886719 74.648438 153.222656 L 71.59375 151.007812 C 71.542969 150.972656 71.507812 150.941406 71.457031 150.90625 L 76.71875 148.628906 Z M 87.777344 154.761719 L 83.558594 151.800781 L 89.730469 149.113281 L 93.585938 151.828125 C 91.105469 153.117188 88.59375 154.390625 87.777344 154.761719 Z M 94.492188 159.464844 L 89.039062 155.644531 C 90.070312 155.15625 91.808594 154.257812 94.8125 152.691406 L 100.183594 156.46875 Z M 100.035156 163.355469 L 95.714844 160.328125 L 101.402344 157.332031 L 105.976562 160.550781 L 99.96875 163.203125 Z M 106.554688 167.925781 L 101.148438 164.136719 L 107.246094 161.445312 L 112.269531 164.984375 Z M 112.539062 172.121094 L 107.785156 168.785156 L 113.5 165.847656 L 118.207031 169.160156 Z M 119.054688 176.691406 L 113.765625 172.980469 L 119.429688 170.023438 L 124.835938 173.828125 Z M 125.773438 181.398438 L 120.296875 177.5625 L 126.074219 174.699219 L 131.199219 178.308594 Z M 132.269531 185.957031 L 126.976562 182.242188 L 132.402344 179.15625 L 137.4375 182.699219 Z M 138.75 190.5 L 133.453125 186.785156 L 138.617188 183.53125 L 144.339844 187.558594 Z M 145.320312 195.105469 L 139.972656 191.359375 L 145.5625 188.421875 L 150.734375 192.0625 Z M 152.980469 200.476562 L 146.527344 195.953125 L 151.945312 192.914062 L 157.933594 197.128906 Z M 154.148438 201.292969 L 159.09375 197.949219 L 164.933594 202.058594 L 160.078125 205.453125 Z M 156.363281 212.707031 C 154.441406 211.308594 152.296875 209.746094 149.980469 208.058594 L 156.488281 204.5625 L 162.273438 208.617188 Z M 157.503906 213.535156 L 163.4375 209.433594 L 172.546875 215.820312 C 170.28125 217.230469 168.136719 218.5625 166.121094 219.8125 C 165.109375 219.078125 162.007812 216.816406 157.503906 213.535156 Z M 150.160156 209.835938 C 157.5 215.183594 162.933594 219.136719 164.902344 220.570312 C 162.738281 221.910156 160.726562 223.160156 158.875 224.304688 L 144.046875 213.539062 C 145.355469 212.707031 148.140625 211.035156 150.160156 209.835938 Z M 137.015625 208.429688 L 143.476562 204.96875 C 145.398438 206.367188 147.242188 207.710938 148.988281 208.984375 C 147.039062 210.140625 144.066406 211.925781 142.898438 212.703125 Z M 131.660156 215.308594 L 125.601562 210.738281 L 132.222656 206.597656 L 138.691406 211.296875 Z M 126.125 212.796875 L 131.378906 216.757812 L 125.769531 220.242188 L 120.589844 216.359375 Z M 119.386719 207.71875 L 124.992188 211.945312 L 119.453125 215.507812 L 113.726562 211.21875 Z M 112.535156 202.554688 L 118.246094 206.859375 L 112.582031 210.359375 L 106.597656 205.875 Z M 76.738281 175.570312 L 97.722656 191.390625 L 111.375 201.679688 L 105.433594 205.007812 L 70.609375 178.921875 C 71.660156 178.390625 73.484375 177.382812 76.738281 175.570312 Z M 78.988281 167.957031 L 72.714844 170.875 L 68 167.316406 L 74.328125 164.574219 Z M 82.777344 160.78125 C 83.117188 161.027344 83.464844 161.277344 83.8125 161.535156 L 76.554688 164.546875 L 71.90625 161.171875 L 79.199219 158.175781 C 80.3125 158.988281 81.511719 159.859375 82.777344 160.78125 Z M 95.425781 168.335938 C 93.953125 167.265625 92.515625 166.21875 91.128906 165.210938 L 96.777344 162.695312 L 101.445312 165.96875 Z M 111.351562 191.449219 L 114.910156 194.03125 C 114.910156 194.03125 114.910156 194.03125 114.910156 194.035156 L 116.964844 195.523438 L 111 199.730469 L 105.386719 195.5 Z M 105.359375 187.097656 L 107.59375 188.71875 C 107.59375 188.722656 107.59375 188.722656 107.597656 188.722656 L 110.207031 190.621094 L 104.261719 194.652344 L 99.320312 190.929688 C 100.339844 190.332031 102.121094 189.183594 105.359375 187.097656 Z M 98.433594 182.070312 L 104.203125 186.261719 C 102.003906 187.671875 99.144531 189.496094 98.179688 190.070312 L 92.445312 185.746094 Z M 92.496094 177.761719 L 97.269531 181.222656 L 91.304688 184.886719 L 86.292969 181.109375 Z M 85.773438 172.882812 L 91.300781 176.890625 L 85.125 180.226562 L 79.53125 176.011719 Z M 115.691406 192.953125 Z M 135.574219 199.210938 L 128.792969 202.464844 L 123.761719 198.8125 L 130.386719 195.4375 C 132.144531 196.714844 133.875 197.976562 135.574219 199.210938 Z M 129.179688 194.558594 L 122.554688 197.933594 L 116.574219 193.597656 C 117.632812 193.023438 119.46875 191.917969 122.796875 189.910156 C 124.945312 191.472656 127.078125 193.027344 129.179688 194.558594 Z M 121.628906 189.0625 C 119.328125 190.441406 116.328125 192.222656 115.378906 192.730469 L 109.3125 188.324219 C 110.425781 187.792969 112.386719 186.769531 115.925781 184.910156 C 117.828125 186.292969 119.734375 187.679688 121.628906 189.0625 Z M 114.726562 184.035156 C 112.257812 185.328125 109.050781 186.984375 108.082031 187.433594 L 103.136719 183.84375 L 109.757812 180.417969 C 111.402344 181.617188 113.0625 182.824219 114.726562 184.035156 Z M 108.554688 179.542969 L 101.933594 182.96875 L 96.578125 179.078125 L 103.09375 175.566406 C 104.886719 176.871094 106.710938 178.199219 108.554688 179.542969 Z M 101.898438 174.695312 L 95.378906 178.210938 L 90.296875 174.519531 L 97.175781 171.257812 C 98.71875 172.382812 100.292969 173.527344 101.898438 174.695312 Z M 95.949219 170.363281 L 89.070312 173.628906 L 84.222656 170.113281 L 91.191406 166.902344 C 92.726562 168.019531 94.316406 169.175781 95.949219 170.363281 Z M 89.957031 166.003906 L 82.988281 169.214844 L 77.816406 165.460938 L 85.074219 162.449219 C 86.621094 163.574219 88.253906 164.761719 89.957031 166.003906 Z M 73.917969 171.78125 L 80.21875 168.851562 L 84.558594 172 L 78.347656 175.121094 Z M 112.117188 200.574219 L 118.101562 196.347656 L 124.476562 200.972656 L 117.488281 204.621094 Z M 118.664062 205.507812 L 125.675781 201.847656 L 131.058594 205.757812 L 124.460938 209.878906 Z M 130.015625 203.355469 L 136.796875 200.105469 C 138.675781 201.472656 140.507812 202.808594 142.28125 204.097656 L 135.816406 207.5625 Z M 155.265625 203.703125 L 148.785156 207.191406 C 146.925781 205.835938 144.964844 204.40625 142.921875 202.917969 L 149.027344 199.332031 Z M 147.832031 198.492188 L 141.746094 202.0625 C 139.984375 200.777344 138.160156 199.453125 136.296875 198.09375 L 142.1875 194.53125 Z M 140.992188 193.695312 L 135.128906 197.246094 C 133.296875 195.910156 131.425781 194.546875 129.53125 193.164062 L 135.570312 189.890625 Z M 134.351562 189.039062 L 128.335938 192.296875 C 126.332031 190.839844 124.300781 189.359375 122.261719 187.875 L 128.441406 184.894531 Z M 127.195312 184.019531 L 121.042969 186.984375 C 120.199219 186.375 119.355469 185.757812 118.511719 185.144531 C 117.433594 184.359375 116.355469 183.574219 115.277344 182.789062 L 121.132812 179.773438 Z M 119.902344 178.910156 L 114.074219 181.914062 C 112.460938 180.738281 110.859375 179.574219 109.269531 178.414062 L 115.113281 175.550781 Z M 113.871094 174.679688 L 108.050781 177.527344 C 106.257812 176.222656 104.484375 174.929688 102.738281 173.664062 L 108.441406 170.871094 Z M 107.195312 170 L 101.519531 172.777344 C 99.882812 171.582031 98.269531 170.410156 96.699219 169.265625 L 102.753906 166.882812 Z M 95.507812 161.800781 L 89.886719 164.308594 C 88.371094 163.203125 86.910156 162.140625 85.523438 161.132812 C 85.203125 160.898438 84.898438 160.675781 84.585938 160.449219 C 85.632812 160.058594 87.375 159.359375 90.324219 158.171875 Z M 88.058594 154.957031 L 88.058594 154.960938 Z M 89.023438 157.257812 C 86.835938 158.136719 84.148438 159.199219 83.292969 159.511719 C 81.765625 158.398438 80.347656 157.367188 79.050781 156.421875 L 84.484375 154.074219 Z M 69.847656 170.378906 L 63.53125 173.621094 L 58.308594 169.707031 C 59.425781 169.222656 61.363281 168.285156 64.816406 166.585938 Z M 64.714844 174.507812 L 71.027344 171.269531 L 75.574219 174.695312 C 73.300781 175.953125 70.363281 177.5625 69.417969 178.03125 Z M 50.914062 165.832031 C 50.914062 165.832031 50.917969 165.832031 50.917969 165.832031 L 56.554688 170.058594 C 56.558594 170.058594 56.558594 170.058594 56.558594 170.058594 L 68.929688 179.328125 C 68.929688 179.328125 68.929688 179.328125 68.933594 179.328125 L 120.453125 217.917969 L 113.660156 221.445312 L 129.667969 233.675781 C 129.671875 233.675781 129.671875 233.675781 129.671875 233.679688 L 136.625 238.988281 L 143.855469 234.953125 L 143.847656 234.945312 C 144.441406 234.707031 145.652344 233.96875 148.546875 232.210938 L 149.390625 231.699219 L 134.035156 220.257812 L 129.25 222.847656 L 126.914062 221.09375 L 132.515625 217.617188 L 150.390625 231.089844 L 150.773438 230.855469 C 156.863281 227.128906 166.84375 220.945312 180.4375 212.476562 L 181.289062 211.945312 L 84.503906 143.804688 L 44.601562 161.101562 Z M 207.265625 239.554688 L 200.644531 234.957031 C 203.566406 233.054688 205.757812 231.632812 206.59375 231.089844 C 209.199219 232.890625 211.523438 234.488281 213.21875 235.660156 Z M 170.960938 254.089844 C 171.863281 253.558594 173.359375 252.597656 175.957031 250.933594 C 178.527344 249.285156 181.726562 247.21875 185.082031 245.046875 C 187.328125 246.707031 189.515625 248.328125 191.546875 249.835938 L 177.523438 259.003906 Z M 154.394531 233.382812 L 167.035156 243.347656 L 161.457031 246.972656 L 148.34375 237.148438 Z M 196.570312 224.148438 L 190.636719 228.007812 L 177.589844 218.949219 L 183.640625 215.1875 C 185.785156 216.675781 190.964844 220.265625 196.570312 224.148438 Z M 191.816406 228.828125 L 197.753906 224.96875 C 200.335938 226.757812 202.972656 228.582031 205.410156 230.269531 C 203.738281 231.359375 201.707031 232.679688 199.460938 234.136719 Z M 192.710938 238.519531 L 184.84375 233.359375 L 190.613281 229.609375 L 198.257812 234.917969 C 196.492188 236.066406 194.621094 237.28125 192.710938 238.519531 Z M 188.613281 242.761719 C 192.449219 240.28125 196.277344 237.792969 199.4375 235.742188 L 206.066406 240.339844 L 192.730469 249.058594 C 191.640625 248.246094 189.253906 246.476562 186.277344 244.273438 C 187.050781 243.773438 187.832031 243.269531 188.613281 242.761719 Z M 177.734375 237.980469 L 183.625 234.152344 L 191.492188 239.3125 C 189.367188 240.691406 187.214844 242.082031 185.132812 243.429688 C 182.847656 241.738281 180.289062 239.855469 177.734375 237.980469 Z M 175.394531 237.914062 L 168.210938 242.582031 L 155.59375 232.636719 L 162.269531 228.484375 C 163.621094 229.328125 168.992188 233.21875 175.394531 237.914062 Z M 170.035156 223.648438 L 176.359375 219.714844 L 189.429688 228.792969 L 183.625 232.5625 Z M 182.40625 233.355469 L 176.589844 237.136719 C 171.03125 233.0625 165.703125 229.191406 163.503906 227.714844 L 168.792969 224.425781 Z M 176.417969 249.054688 L 169.316406 243.453125 L 176.542969 238.753906 C 178.941406 240.519531 181.460938 242.371094 183.9375 244.203125 C 181.203125 245.972656 178.621094 247.636719 176.417969 249.054688 Z M 162.59375 247.820312 L 168.136719 244.21875 L 175.234375 249.8125 C 172.554688 251.535156 170.585938 252.785156 169.828125 253.242188 Z M 184.035156 213.84375 L 183.679688 213.59375 L 145.988281 237.046875 L 169.371094 254.5625 C 169.375 254.5625 169.375 254.5625 169.375 254.5625 L 177.097656 260.347656 L 177.472656 260.628906 L 215.613281 235.683594 L 214.792969 235.125 C 208.191406 230.59375 188.015625 216.601562 184.035156 213.84375 Z M 196.558594 213.753906 L 193.035156 216.050781 L 187.929688 212.515625 L 191.460938 210.316406 Z M 217.40625 232.921875 L 210.503906 228.144531 L 214.398438 225.777344 L 221.257812 230.402344 Z M 205.429688 219.730469 L 213.183594 224.957031 L 209.308594 227.316406 L 201.980469 222.242188 Z M 200.820312 221.441406 L 194.21875 216.867188 L 197.757812 214.558594 L 204.257812 218.941406 Z M 217.382812 234.527344 L 223.667969 230.417969 L 191.492188 208.734375 L 185.507812 212.457031 Z M 164.824219 192.363281 L 161.332031 194.324219 L 156.472656 191.011719 L 159.792969 188.972656 Z M 183.15625 209.214844 L 177.628906 205.441406 L 181.1875 203.390625 L 186.617188 207.054688 Z M 173.332031 198.097656 L 179.957031 202.5625 L 176.410156 204.609375 L 169.867188 200.148438 Z M 168.65625 199.320312 L 162.558594 195.160156 L 166.058594 193.199219 L 172.113281 197.273438 Z M 183.121094 210.800781 L 189.0625 207.09375 L 159.828125 187.390625 L 154.027344 190.949219 Z M 133.035156 170.941406 L 129.738281 172.769531 L 125.621094 169.957031 L 128.621094 167.964844 Z M 150.574219 186.984375 L 144.324219 182.722656 L 147.554688 180.726562 L 154.105469 185.140625 Z M 140.289062 175.828125 L 146.34375 179.910156 L 143.121094 181.898438 L 136.894531 177.652344 Z M 135.65625 176.804688 L 130.96875 173.609375 L 134.273438 171.773438 L 139.042969 174.988281 Z M 150.484375 188.535156 L 156.703125 185.285156 L 128.996094 166.613281 L 128.628906 166.363281 L 123.234375 169.941406 Z M 90.84375 142.503906 L 95.476562 145.621094 C 93.703125 146.398438 92.707031 146.839844 92.148438 147.121094 L 87.503906 143.953125 Z M 111.5625 156.464844 L 116.234375 159.613281 L 112.746094 161.171875 L 108.546875 158.308594 Z M 106.453125 153.023438 L 110.347656 155.648438 L 107.339844 157.488281 L 103.195312 154.65625 Z M 97.300781 150.636719 L 93.414062 147.984375 C 94.339844 147.574219 95.707031 146.972656 96.78125 146.503906 L 100.546875 149.042969 Z M 101.820312 149.902344 L 105.1875 152.167969 L 101.9375 153.800781 L 98.5625 151.5 Z M 119.957031 166.09375 L 114.035156 162.054688 L 117.535156 160.492188 L 123.328125 164.398438 C 121.195312 165.507812 120.316406 165.929688 119.957031 166.09375 Z M 119.8125 167.511719 C 120.230469 167.511719 121.183594 167.027344 124.933594 165.058594 L 125.921875 164.539062 L 91.289062 141.195312 L 90.988281 140.992188 L 84.757812 143.691406 L 119.488281 167.386719 C 119.59375 167.457031 119.675781 167.511719 119.8125 167.511719 Z M 41.648438 202.03125 C 41.695312 201.664062 41.914062 201.355469 42.246094 201.1875 L 45.855469 199.332031 L 56.746094 208.089844 L 50.355469 210.6875 L 42 203.007812 C 41.726562 202.753906 41.597656 202.402344 41.648438 202.03125 Z M 65.046875 189.46875 C 65.207031 189.386719 65.382812 189.347656 65.558594 189.347656 C 65.804688 189.347656 66.046875 189.425781 66.246094 189.582031 L 87.710938 206.390625 C 88.019531 206.628906 88.171875 206.988281 88.136719 207.375 C 88.097656 207.761719 87.882812 208.089844 87.535156 208.265625 L 70.226562 217.226562 L 47.152344 198.664062 Z M 65.25 219.804688 C 63.347656 220.789062 61.011719 220.476562 59.433594 219.027344 L 51.441406 211.683594 L 57.929688 209.042969 L 68.933594 217.898438 Z M 58.535156 220.011719 C 59.746094 221.125 61.320312 221.703125 62.90625 221.703125 C 63.914062 221.703125 64.929688 221.46875 65.859375 220.988281 L 88.148438 209.449219 C 88.890625 209.0625 89.382812 208.335938 89.460938 207.5 C 89.539062 206.664062 89.191406 205.859375 88.53125 205.339844 L 67.066406 188.535156 C 66.320312 187.945312 65.285156 187.847656 64.4375 188.285156 L 41.636719 200.003906 C 40.925781 200.367188 40.4375 201.058594 40.332031 201.855469 C 40.222656 202.648438 40.507812 203.445312 41.101562 203.984375 Z M 295.367188 89.9375 L 247.167969 225.304688 L 151.132812 292.023438 C 141.492188 298.613281 128.597656 297.867188 119.777344 290.203125 L 4.648438 190.105469 C 3.089844 188.753906 2.257812 186.878906 2.300781 184.820312 L 2.316406 183.769531 C 2.71875 184.375 3.203125 184.9375 3.773438 185.433594 L 118.90625 285.527344 C 123.964844 289.921875 130.289062 292.152344 136.644531 292.152344 C 141.949219 292.152344 147.269531 290.597656 151.886719 287.445312 L 246.214844 222.988281 L 246.566406 223.210938 L 246.785156 222.597656 L 247.316406 222.234375 L 246.984375 222.027344 L 293.121094 91.738281 C 297.144531 80.382812 291.605469 67.8125 280.515625 63.121094 L 138.714844 3.132812 C 137.761719 2.726562 136.769531 2.457031 135.769531 2.308594 C 137.753906 1.96875 139.800781 2.195312 141.699219 3 L 283.5 62.988281 C 293.941406 67.410156 299.15625 79.246094 295.367188 89.9375 Z M 2.382812 178.242188 C 2.738281 175.910156 4.242188 173.960938 6.40625 173.023438 L 101.8125 131.59375 L 126.277344 147.09375 C 126 147.996094 126.28125 148.671875 126.300781 148.722656 L 126.378906 148.90625 L 137.800781 156.476562 C 137.96875 156.589844 138.164062 156.648438 138.351562 156.648438 C 138.503906 156.648438 138.652344 156.613281 138.796875 156.542969 C 139.117188 156.382812 139.332031 156.0625 139.355469 155.703125 C 139.359375 155.601562 139.378906 155.503906 139.394531 155.410156 L 200.386719 194.066406 C 199.820312 195.1875 200.191406 196.101562 200.21875 196.160156 L 200.296875 196.34375 L 211.71875 203.917969 C 211.886719 204.027344 212.078125 204.082031 212.269531 204.082031 C 212.421875 204.082031 212.570312 204.046875 212.710938 203.980469 C 213.03125 203.820312 213.246094 203.5 213.273438 203.140625 C 213.292969 202.839844 213.359375 202.578125 213.453125 202.351562 L 244.894531 222.277344 L 151.132812 286.34375 C 141.488281 292.9375 128.597656 292.183594 119.777344 284.519531 L 4.648438 184.429688 C 2.867188 182.882812 2.023438 180.570312 2.382812 178.242188 Z M 202.871094 193.390625 C 203 193.3125 203.171875 193.320312 203.304688 193.40625 L 213.488281 200.246094 C 212.910156 200.675781 212.242188 201.394531 212.015625 202.515625 L 201.40625 195.480469 C 201.367188 195.140625 201.4375 194.285156 202.871094 193.390625 Z M 128.953125 145.953125 C 129.082031 145.875 129.257812 145.878906 129.386719 145.96875 L 139.570312 152.8125 C 138.996094 153.238281 138.328125 153.957031 138.097656 155.078125 L 127.492188 148.046875 C 127.453125 147.695312 127.527344 146.839844 128.953125 145.953125 Z M 123.53125 12.335938 C 124.097656 9.117188 126.070312 6.375 128.941406 4.8125 C 129.15625 4.691406 129.375 4.585938 129.597656 4.484375 L 130.726562 4.042969 C 133.15625 3.242188 135.792969 3.339844 138.195312 4.355469 L 279.996094 64.347656 C 290.4375 68.765625 295.65625 80.605469 291.867188 91.296875 L 245.871094 221.195312 L 214.355469 201.257812 C 214.433594 201.207031 214.507812 201.160156 214.582031 201.117188 C 214.882812 200.945312 215.070312 200.636719 215.082031 200.285156 C 215.09375 199.9375 214.925781 199.613281 214.636719 199.417969 L 204.046875 192.300781 C 203.480469 191.917969 202.742188 191.902344 202.167969 192.261719 C 201.800781 192.492188 201.492188 192.726562 201.242188 192.960938 L 139.992188 154.210938 C 140.207031 153.984375 140.445312 153.808594 140.664062 153.679688 C 140.964844 153.507812 141.152344 153.199219 141.164062 152.851562 C 141.175781 152.5 141.011719 152.175781 140.71875 151.980469 L 130.128906 144.863281 C 129.5625 144.484375 128.828125 144.464844 128.253906 144.824219 C 127.707031 145.160156 127.304688 145.511719 127 145.855469 L 102.71875 130.460938 Z M 284.015625 61.765625 L 142.21875 1.773438 C 139.28125 0.53125 136.039062 0.5 133.085938 1.683594 L 130.285156 2.785156 C 129.878906 2.917969 129.484375 3.074219 129.09375 3.253906 L 129.089844 3.253906 C 128.824219 3.375 128.5625 3.503906 128.308594 3.640625 C 125.078125 5.398438 122.859375 8.484375 122.222656 12.105469 L 101.390625 130.324219 L 5.875 171.800781 C 3.292969 172.921875 1.496094 175.253906 1.066406 178.035156 C 0.949219 178.789062 0.941406 179.542969 1.03125 180.277344 L 0.972656 184.796875 C 0.917969 187.214844 1.941406 189.519531 3.773438 191.113281 L 118.90625 291.207031 C 123.960938 295.597656 130.289062 297.832031 136.644531 297.832031 C 141.949219 297.832031 147.273438 296.277344 151.886719 293.121094 L 248.277344 226.15625 L 296.625 90.382812 C 300.644531 79.027344 295.105469 66.457031 284.015625 61.765625 Z M 109.605469 118.5625 L 128.117188 18.660156 C 128.152344 18.460938 128.203125 18.265625 128.261719 18.078125 C 128.285156 18 128.320312 17.921875 128.347656 17.84375 C 128.386719 17.738281 128.421875 17.628906 128.464844 17.519531 C 128.507812 17.421875 128.5625 17.324219 128.609375 17.230469 C 128.652344 17.152344 128.683594 17.074219 128.730469 17 C 128.789062 16.894531 128.855469 16.800781 128.925781 16.703125 C 128.964844 16.640625 129.003906 16.570312 129.050781 16.507812 C 129.121094 16.414062 129.199219 16.324219 129.277344 16.234375 C 129.324219 16.175781 129.371094 16.113281 129.421875 16.058594 C 129.5 15.976562 129.582031 15.902344 129.667969 15.824219 C 129.726562 15.765625 129.785156 15.707031 129.847656 15.652344 C 129.921875 15.589844 130.003906 15.535156 130.078125 15.472656 C 130.160156 15.414062 130.238281 15.347656 130.324219 15.289062 C 130.378906 15.25 130.445312 15.21875 130.507812 15.179688 C 130.617188 15.113281 130.730469 15.042969 130.84375 14.980469 C 130.847656 14.980469 130.847656 14.980469 130.855469 14.976562 C 130.402344 15.683594 130.09375 16.460938 129.941406 17.300781 L 111.429688 117.199219 C 110.9375 119.855469 112.09375 122.496094 114.378906 123.933594 L 240.4375 203.433594 C 240.890625 203.722656 241.371094 203.949219 241.875 204.113281 C 241.871094 204.117188 241.867188 204.117188 241.863281 204.117188 C 241.625 204.167969 241.378906 204.195312 241.136719 204.214844 C 241.042969 204.21875 240.945312 204.230469 240.851562 204.230469 C 240.777344 204.230469 240.703125 204.226562 240.632812 204.222656 C 240.519531 204.21875 240.40625 204.214844 240.292969 204.207031 C 240.222656 204.199219 240.160156 204.191406 240.09375 204.179688 C 239.972656 204.164062 239.859375 204.144531 239.738281 204.121094 C 239.675781 204.105469 239.613281 204.09375 239.550781 204.078125 C 239.429688 204.046875 239.3125 204.011719 239.195312 203.972656 C 239.136719 203.957031 239.078125 203.9375 239.019531 203.917969 C 238.898438 203.871094 238.773438 203.820312 238.65625 203.765625 C 238.605469 203.742188 238.554688 203.722656 238.507812 203.699219 C 238.339844 203.617188 238.175781 203.527344 238.015625 203.425781 L 111.957031 123.929688 C 110.136719 122.78125 109.21875 120.675781 109.605469 118.5625 Z M 135.359375 14.839844 L 275.191406 76.699219 C 281.398438 79.449219 284.4375 86.367188 282.261719 92.796875 L 245.738281 200.683594 C 245.355469 201.820312 244.605469 202.769531 243.621094 203.398438 C 243.460938 203.210938 243.242188 203.070312 242.980469 203.023438 C 242.324219 202.90625 241.707031 202.664062 241.144531 202.308594 L 115.085938 122.808594 C 113.265625 121.664062 112.34375 119.558594 112.738281 117.441406 L 131.25 17.542969 C 131.402344 16.71875 131.734375 15.96875 132.242188 15.316406 C 132.4375 15.0625 132.503906 14.75 132.464844 14.449219 C 133.433594 14.300781 134.433594 14.425781 135.359375 14.839844 Z M 237.304688 204.550781 C 238.367188 205.222656 239.5625 205.566406 240.773438 205.566406 C 240.777344 205.566406 240.777344 205.5625 240.785156 205.5625 C 240.785156 205.5625 240.785156 205.566406 240.789062 205.566406 C 241.527344 205.566406 242.269531 205.4375 242.988281 205.183594 C 243.042969 205.164062 243.097656 205.132812 243.15625 205.109375 C 243.164062 205.109375 243.171875 205.105469 243.179688 205.105469 C 243.183594 205.101562 243.1875 205.097656 243.191406 205.097656 C 244.992188 204.390625 246.375 202.953125 247 201.109375 L 283.519531 93.226562 C 285.921875 86.136719 282.570312 78.511719 275.730469 75.484375 L 135.894531 13.621094 C 134.054688 12.804688 131.972656 12.878906 130.191406 13.820312 C 130.179688 13.828125 130.164062 13.835938 130.152344 13.84375 C 130.097656 13.871094 130.050781 13.90625 129.996094 13.9375 C 129.820312 14.039062 129.648438 14.140625 129.484375 14.253906 C 129.398438 14.316406 129.316406 14.382812 129.234375 14.449219 C 129.109375 14.542969 128.988281 14.636719 128.875 14.742188 C 128.785156 14.820312 128.703125 14.902344 128.621094 14.984375 C 128.519531 15.085938 128.421875 15.191406 128.324219 15.300781 C 128.246094 15.386719 128.171875 15.480469 128.097656 15.570312 C 128.011719 15.683594 127.925781 15.800781 127.84375 15.921875 C 127.777344 16.015625 127.714844 16.113281 127.65625 16.210938 C 127.578125 16.34375 127.503906 16.476562 127.433594 16.609375 C 127.386719 16.707031 127.332031 16.804688 127.289062 16.902344 C 127.21875 17.058594 127.160156 17.21875 127.101562 17.382812 C 127.070312 17.46875 127.035156 17.554688 127.007812 17.640625 C 126.925781 17.894531 126.859375 18.152344 126.808594 18.417969 L 108.296875 118.316406 C 107.808594 120.972656 108.964844 123.617188 111.246094 125.054688 L 237.304688 204.550781 "/>
</g>
</g>
</svg>
